<?xml version="1.0" standalone="no"?>
<!DOCTYPE svg PUBLIC "-//W3C//DTD SVG 1.1//EN" "http://www.w3.org/Graphics/SVG/1.1/DTD/svg11.dtd" >
<svg xmlns="http://www.w3.org/2000/svg">
<metadata></metadata>
<defs>
<font id="caveatbold" horiz-adv-x="446" >
<font-face units-per-em="1000" ascent="800" descent="-200" />
<missing-glyph horiz-adv-x="242" />
<glyph unicode="&#xfb00;" horiz-adv-x="500" d="M362 540v-4q-5 1 -27 -27.5t-40 -57.5q-8 -17 -47 -115l-8 -24l16 -2q9 0 44.5 6.5t53.5 9.5l6 11q26 74 45 114q11 36 12.5 46t7.5 32.5t3.5 28t-17.5 6t-32 -8t-17 -15.5zM364 29l-8 -98q-5 -43 -11 -49q-7 -4 -28.5 5.5t-32 22t-12 20.5t1.5 34q5 15 5 44 q0 36 14.5 94.5t18.5 86.5q3 10 9 28t8 27q-22 0 -67.5 -7.5t-48.5 -10.5q-14 -7 -27 -86q-11 -44 -13 -94.5t4.5 -72t-4 -42t-24.5 -25.5q-20 -2 -38.5 33t-18.5 83q-8 76 40 247q14 50 50 134t44 91q4 -1 5 1.5t1 5.5t3.5 9.5t9.5 17t10 18.5q20 28 54.5 58t54 38t39.5 8 t43 -16.5t33 -41.5q16 19 43.5 38t32.5 23q37 19 68.5 19t69.5 -36q14 -15 16 -20t2 -19q-4 -19 -35.5 -67t-40.5 -49q-12 -4 -17.5 2.5t-5.5 17.5t-15 24q0 17 7 27q5 10 2 20t-13 7q-10 -5 -31.5 -23.5t-21.5 -24.5q-5 -13 -19 -30q-18 -25 -18 -34.5t-6 -9.5 q-4 -14 -14 -32q-9 -24 -20 -35h1q-19 -43 -18 -47.5t25 -2t46.5 8.5t42.5 1q11 -7 18 -33t3 -32q-4 -11 -64 -22q-11 -3 -39 -9q-56 -11 -56 -16q-10 0 -10 -13t-5 -25.5t-17 -55.5t-12 -54q-8 -10 -8 -36q-6 -11 -6 -25z" />
<glyph unicode="&#xfb01;" horiz-adv-x="459" d="M541 540q25 0 43 -19t18 -47q-2 -25 -20 -48t-43.5 -23t-39.5 18t-14 32.5t18 49t29 35.5q2 2 9 2zM460 319q2 11 16.5 11t35 -19.5t23.5 -37.5q0 -13 -12 -41q-27 -82 -36.5 -126.5t-16 -64.5t-15 -27.5t-23.5 -7.5t-28.5 16.5t-13.5 36t4 39t4 23.5v2q0 6 16.5 54.5 t24 72.5t14.5 46t7 23zM66 -51l8 57q0 18 20 122q16 60 24.5 102.5t15 59t20.5 41.5q42 114 59 146l3 7q31 83 120 162q56 26 86.5 26t57 -27.5t26.5 -47.5q-7 -30 -39.5 -73.5t-42.5 -43.5q-7 0 -11 7.5t-8 19t-11 18.5q0 3 4.5 17.5t4.5 26t-9 11.5h-2q-47 -29 -80 -88 q-11 -18 -12 -25q-3 -10 -6 -10q-20 -53 -34 -67h1q-19 -45 -19 -49t10 -4l80 14q21 0 32 -17t11 -41q0 -14 -90 -33l-24 -6t-18.5 -4t-15 -4t-10 -5t-7.5 -6q-7 -10 -7.5 -16t-4 -16t-15 -63t-11.5 -65q-11 -13 -14 -54v-9q-5 -50 -5 -67l-3 -29q-4 -37 -14 -37 q-17 0 -43.5 23t-26.5 47z" />
<glyph unicode="&#xfb02;" horiz-adv-x="460" d="M476 421q0 3 6 15q0 16 8 28q12 20 16 35l28 57q10 29 32 38l-1 1q5 8 18.5 14t23.5 6q29 0 29 -30q0 -26 -8 -36h1q-12 -34 -17.5 -40t-43.5 -81q-46 -89 -54 -120q-2 -4 -7.5 -17t-6.5 -15l-17 -62l-4 -21q-16 -45 -17 -54q-5 -15 -5.5 -18.5t-7.5 -23.5 q-16 -46 -18 -83l-1 -4q-3 -22 -12.5 -33t-23.5 -7q-30 10 -30 50q-1 33 10 108q27 112 34 129t12 33q30 97 56 131zM150 14l-8 -98q-3 -30 -10 -37q-6 -4 -27.5 9.5t-32.5 26t-12.5 20.5t1.5 34q5 15 5 42q0 33 14.5 91.5t18.5 86.5q19 63 19 82t14 27q1 8 15 33 q42 117 60 149q18 50 29 63q7 17 38 50t55 53q50 26 81.5 26t69.5 -36q13 -15 15.5 -20t2.5 -19q-4 -19 -35 -67t-39 -49q-12 -4 -17.5 2.5t-5.5 18.5t-15 23q0 15 7 25q5 10 2.5 21.5t-12.5 8.5q-9 -5 -31.5 -24t-22.5 -25q-5 -13 -19 -30q-18 -25 -18 -34.5t-6 -9.5 q-4 -14 -14 -32q-9 -24 -20 -35h1q-19 -45 -18 -49.5t24 -2t45.5 8.5t42.5 1q11 -7 18 -31t3 -30q-4 -11 -64 -22q-12 -3 -40 -9q-58 -11 -58 -16q-10 0 -10 -13t-4.5 -23.5t-16 -63.5t-11.5 -65q-8 -10 -8 -36q-6 -11 -6 -25z" />
<glyph unicode="&#xfb03;" horiz-adv-x="654" d="M756 468.5q19 -28.5 19 -47t-11 -31t-30 -12.5t-47 22t-28 47q0 9 16 36t22 30q17 0 37 -10q3 -6 22 -34.5zM416 492l13 59q0 8 -4.5 10t-16.5 2t-29 -8t-17 -15v-4q-6 2 -31.5 -32t-36.5 -56q-22 -39 -54 -136l16 -2q3 0 17 2q34 7 81 14l6 11q12 35 45 114q11 36 11 41 zM629 308l-1 8q0 9 6.5 15.5t19 6.5t34 -19.5t21.5 -57.5t-21.5 -139t-35.5 -103q-6 0 -21 7.5t-17.5 14.5t-14.5 16.5t-12 16.5zM272 -61l7 65q0 28 13.5 82t19.5 103q3 10 9 28t8 27q-22 0 -67.5 -7.5t-48.5 -10.5q-10 -6 -25 -74.5t-15 -105t3.5 -60t3.5 -34t-10 -26 t-21 -19.5q-24 0 -41 39.5t-17 107t41 215.5q14 50 50 134t44 91h2q2 0 1 -2q14 31 26 54q30 42 72 73t69 31t50 -16.5t33 -41.5q16 19 43.5 38t32.5 23q35 19 65 19q40 0 76 -40q11 -12 13 -16.5t2 -18.5q-4 -21 -23.5 -50t-37.5 -48t-23 -19q-10 0 -15 21t-15 24l10 41 q0 14 -10 14h-2q-21 -12 -38 -30.5t-19 -23.5q-32 -49 -35 -58t-3.5 -10t-2.5 -1q-26 -59 -34 -67h1q-19 -43 -19 -47t12 -4l81 14q19 0 31 -18.5t12 -41.5v-5q-3 -8 -28 -17t-42 -9q-16 -4 -35 -8.5t-26.5 -6.5t-17 -5t-12.5 -6q-6 -6 -8 -16.5t-11.5 -37t-23 -81 t-13.5 -72.5q-5 -40 -5 -69l-3 -29q-5 -13 -5 -31.5t-11 -18.5q-17 0 -42.5 18t-25.5 40z" />
<glyph unicode="&#xfb04;" horiz-adv-x="670" d="M362 540v-4q-5 1 -27 -27.5t-40 -57.5q-8 -17 -47 -115l-8 -24l16 -2q9 0 44.5 6.5t53.5 9.5l6 11q26 74 45 114q11 36 12.5 46t7.5 32.5t3.5 28t-17.5 6t-32 -8t-17 -15.5zM607 -30q-30 10 -31 41q0 41 11 117q27 112 34 129t12 33q30 97 56 131q1 2 3 7.5t3 7.5 q0 16 7 28q13 20 17 35l28 57q10 29 32 38l-1 1q5 8 18.5 14t23.5 6q29 0 29 -30q0 -26 -8 -36h1q-11 -32 -17 -39t-45 -82q-45 -89 -53 -120q-2 -4 -7.5 -17t-6.5 -15l-17 -62l-4 -21q-16 -45 -17 -54q-5 -15 -5.5 -18.5t-7.5 -23.5q-16 -46 -18 -83l-1 -4 q-3 -22 -12.5 -33t-23.5 -7zM364 29l-8 -98q-5 -43 -11 -49q-7 -4 -28.5 5.5t-32 22t-12 20.5t1.5 34q5 15 5 44q0 36 14.5 94.5t18.5 86.5q3 10 9 28t8 27q-22 0 -67.5 -7.5t-48.5 -10.5q-14 -7 -27 -86q-11 -44 -13 -94.5t4.5 -72t-4 -42t-24.5 -25.5q-20 -2 -38.5 33 t-18.5 83q-8 76 40 247q14 50 50 134t44 91q4 -1 5 1.5t1 5.5t3.5 9.5t9.5 17t10 18.5q20 28 54.5 58t54 38t39.5 8t43 -16.5t33 -41.5q16 19 43.5 38t32.5 23q37 19 68.5 19t69.5 -36q14 -15 16 -20t2 -19q-4 -19 -35.5 -67t-40.5 -49q-12 -4 -17.5 2.5t-5.5 17.5t-15 24 q0 17 7 27q5 10 2 20t-13 7q-10 -5 -31.5 -23.5t-21.5 -24.5q-5 -13 -19 -30q-18 -25 -18 -34.5t-6 -9.5q-4 -14 -14 -32q-9 -24 -20 -35h1q-19 -43 -18 -47.5t25 -2t46.5 8.5t42.5 1q11 -7 18 -33t3 -32q-4 -11 -64 -22q-11 -3 -39 -9q-56 -11 -56 -16q-10 0 -10 -13 t-5 -25.5t-17 -55.5t-12 -54q-8 -10 -8 -36q-6 -11 -6 -25z" />
<glyph unicode="ft" horiz-adv-x="582" d="M407.5 483.5q-5.5 6.5 -5.5 17.5t-15 24q0 21 11 37q5 10 2 15t-13 2q-11 -6 -34.5 -24t-23.5 -24q-5 -13 -19 -30q-18 -25 -18 -34.5t-6 -9.5q-4 -14 -14 -32q-9 -24 -20 -35h1q-12 -46 -14 -54q10 1 37 6.5t43 7.5q89 10 140 33q33 86 53 108q46 24 60 1q2 -3 9.5 -10 t8.5 -12q3 -15 -27 -71l-13 -25q12 -2 32 0q26 5 41 3q42 0 46 -52q4 -23 -53 -23q-102 -4 -103 -8q-3 -2 -26 -89q-27 -126 -8 -147q8 -9 31 -7.5t39 14.5q34 29 50.5 9t-4.5 -49q-18 -28 -56 -46.5t-72.5 -9.5t-52.5 26q-18 23 -23.5 50t-5.5 75q0 22 34 158q-6 11 -90 -2 q-4 0 -6.5 -0.5t-7 -1t-57 -13.5t-52.5 -18q-4 0 -7 -7.5t-3 -16.5t-4 -16q-5 -15 -15.5 -58t-10.5 -55q-8 -10 -8 -36q-6 -11 -6 -25l-8 -98q-5 -47 -10 -52q-16 -10 -46 24q-2 2 -8.5 7.5t-10.5 9.5q-10 10 -8 34q5 15 5 50q0 40 14.5 98.5t18.5 86.5q19 63 19 82t14 27 q1 8 15 33q17 46 26 76q16 49 30 73q12 34 37 63q7 17 38 50t55 53q50 26 82.5 26t65.5 -31q14 -15 16 -20t2 -19q-4 -19 -35 -69.5t-39 -51.5q-12 -4 -17.5 2.5z" />
<glyph horiz-adv-x="0" />
<glyph unicode="&#xd;" horiz-adv-x="242" />
<glyph unicode=" "  horiz-adv-x="242" />
<glyph unicode="&#x09;" horiz-adv-x="242" />
<glyph unicode="&#xa0;" horiz-adv-x="242" />
<glyph unicode="!" horiz-adv-x="210" d="M102 92q19 13 29 13.5t29 -7.5q34 -21 30 -46.5t-44 -45.5q-39 -15 -66 6q-40 39 22 80zM229 464l13 35q18 30 52 113t35.5 94.5t5.5 17t12 4.5q5 4 24 4q16 -5 25.5 -15.5t9.5 -30t-2.5 -27.5t-4.5 -13.5t-7.5 -16t-7.5 -15.5q-5 -10 -21 -37q-29 -56 -29 -57.5 t-13 -31.5q-8 -13 -16.5 -36t-8.5 -28q-5 -13 -8 -16q-5 0 -5 -8v-3q0 -14 -19 -53q-34 -97 -37 -134t-28 -49q-31 -6 -44 23.5t2 100.5q14 28 14 42q12 43 34 84q4 0 8.5 7t4.5 22t11 24z" />
<glyph unicode="&#x22;" horiz-adv-x="237" d="M370.5 670.5q4.5 8.5 8 7t12 -5.5t13.5 -6.5t12 -7t12 -8.5q10 -9 7.5 -28t-24.5 -92q-10 -37 -56 -89q0 -4 -9.5 -6t-14.5 -4q-26 -5 -41 8q-5 17 12 41q38 62 43.5 78t8.5 28q7 28 6.5 41t2.5 24t7.5 19.5zM239.5 670.5q4.5 8.5 8 7t12 -5.5t13.5 -6.5t12 -7t11 -8.5 q11 -9 8.5 -28t-24.5 -92q-10 -37 -56 -89q0 -4 -9.5 -6t-14.5 -4q-27 -5 -42 8q-4 17 13 41q38 62 43.5 78t8.5 28q7 28 6.5 41t2.5 24t7.5 19.5z" />
<glyph unicode="#" horiz-adv-x="559" d="M282 272q-5 0 -5 -8v-3q0 -4 -5 -21l160 3l11 29q10 0 10 22t11 31l10 38l6 14q-100 -2 -157 -2q-36 -77 -36 -87.5t-5 -15.5zM216 325l10 38l5 11h-31q-20 0 -35 5q-26 0 -36 18q-18 24 33 33q59 7 96 8q114 282 114 305q0 8 10.5 16.5t19.5 8.5q5 5 16 5l16 -16 q26 -24 26 -46q0 -18 -6 -31.5t-9 -20.5t-12 -25.5t-45.5 -103.5t-38.5 -89q45 2 160 4q111 275 111 298q0 8 10.5 16.5t19.5 8.5q5 5 16 5l16 -16q26 -24 26 -46q0 -18 -6 -31.5t-9 -20.5t-12 -25q-13 -28 -83 -188h37q24 0 33.5 -3.5t23 -17t5 -29.5t-30.5 -12l-75 -6h-19 q-37 -83 -37 -92t-5 -14q-5 0 -5 -8v-3q0 -5 -4 -16h52q24 0 33.5 -3.5t23 -17t5.5 -29.5t-30 -12l-56 -5h-8l-42 -1q-73 -250 -73 -281.5t-25 -43.5q-29 -8 -46.5 28.5t-5.5 91.5q11 29 11 42q4 22 50 161l-160 -1q-72 -246 -72 -278t-25 -44q-29 -8 -46.5 28.5t-5.5 91.5 q11 29 11 42q5 25 49 159h-22q-20 0 -35 5q-26 0 -37 19q-17 23 29 31q34 6 86 8q9 30 13 36q10 0 10 22t11 31z" />
<glyph unicode="$" horiz-adv-x="450" d="M306 427q1 -1 3 -8q5 -17 14 -26l15 -17q32 62 71 144q-33 -6 -55 -31q-48 -30 -48 -62zM356 179q7 10 7 15.5t1 15.5t0 16q-1 17 -26 44l-2 -2q-4 0 -4 -4q-3 -19 -24 -50l-43 -104q79 16 91 58v11zM563 513.5q-8 -14.5 -18.5 -14.5t-34.5 11t-41 13q-46 -83 -74 -139 q-16 -29 -24 -43q21 -21 23.5 -23t3.5 -4q4 -3 4 -4v-3q2 0 15.5 -18.5t14.5 -24.5q23 -31 23 -88q0 -12 -19 -34q-69 -85 -200 -104q-39 -98 -42 -121q-1 -27 -5.5 -34t-18.5 -7q-24 0 -24 30t15 83q15 21 17 44h-14q-37 0 -44 7q-21 0 -48 28.5t-27 50.5t13.5 33t31.5 11 t32 -7q-11 -24 -11 -31q0 -23 61 -23q24 0 35 1q66 155 79 175q4 0 9 7t6 14v6l-2 2q-25 39 -41 48q-3 3 -8 13q-3 6 -8 11q-15 18 -15 42q0 55 45 92q11 13 40 33.5t33 20.5t5.5 0.5t13.5 5.5q32 14 58 14l21 5q58 123 60 138q5 13 15 13h5q2 2 10 2l13 -7q25 -37 2 -77 q-4 -7 -16.5 -27.5t-24.5 -42.5q26 -8 44.5 -22.5t19 -27.5t-7.5 -27.5z" />
<glyph unicode="%" horiz-adv-x="600" d="M652 588q7 4 16 0q15 -17 24 -32q12 -17 -5 -42q-11 -17 -21 -25q-13 -11 -50 -44q-114 -114 -116 -123q-10 -8 -21 -22q-70 -62 -72 -70q-7 -9 -12 -11l-7 -6q0 -9 -33 -40q-163 -197 -172 -218.5t-21.5 -32.5t-21.5 -13q-33 3 -38.5 31t30.5 82q20 22 23 30 q18 25 160 185q4 -1 9 3.5t10 17.5t18 15q1 3 6 8.5t5.5 8t4.5 6t5 6.5q25 21 139.5 144.5t119.5 133.5q4 13 20 8zM524 138q0 18 -4 21q-22 10 -43 -11q-28 -22 -65 -100q-15 -36 5 -47.5t62 35.5q45 50 45 102zM429 205q36 31 76 39q18 6 26 5t19 -14q20 -8 37 -28t19 -42 q6 -65 -37 -127t-85 -87q-47 -30 -88 -32q-16 0 -32.5 16t-26 35.5t-6.5 33.5l1 18q-4 5 1 10q5 0 2 13.5t34 77.5t60 82zM269 374q23 -11 67 37.5t42 98.5q0 18 -4 21q-21 10 -42 -11q-29 -22 -66 -100q-15 -36 3 -46zM187 404q5 0 2 13.5t34.5 78.5t59.5 82q35 30 76 38 q18 6 26 5t19 -14q20 -8 37 -28t19 -41q6 -65 -42 -135q-78 -107 -168 -111q-16 0 -32 16q-39 38 -33 68l1 18q-3 5 -1 7t2 3z" />
<glyph unicode="&#x26;" horiz-adv-x="564" d="M302 223q-18 16 -24 30q-5 0 -24.5 -21t-28.5 -36q-29 -21 -53 -62q-20 -32 -11 -42q2 -3 11.5 -7.5t13.5 -7.5q22 -7 38 -8t36 7q37 14 106 65q-29 34 -42 52.5t-22 29.5zM435 546q-4 7 -22 14.5t-35.5 7.5t-34 -14t-43 -52t-32.5 -65t12 -60q11 11 57.5 46t75.5 66.5 t22 56.5zM329 655l8 2q4 3 31.5 0.5t46.5 -8.5q39 -5 52.5 -9t24.5 -17q21 -16 39.5 -42.5t18.5 -40.5q0 -30 -75 -97l-40 -41q0 -5 -5.5 -11.5t-12.5 -9.5q-83 -72 -84.5 -78.5t42 -65t52.5 -58.5q23 22 70 63.5t71 63.5q23 25 38 33t20.5 6t15.5 -11q12 -2 13.5 -17.5 t-2 -29.5t-5.5 -16q-21 -27 -87 -86.5t-77 -70.5q48 -57 77 -79.5t55.5 -31t37.5 -21.5t13 -36q2 -25 -51 -19.5t-83 23.5q-26 7 -116 115q-83 -46 -107.5 -56t-51.5 -18q-66 -6 -121 13q-12 4 -38 21t-34 25q-7 4 -9.5 33t1.5 42t54.5 80t99.5 116q-38 51 -37.5 104.5 t42.5 127.5q25 41 82 92q21 18 23 15q3 -5 8 -5z" />
<glyph unicode="'" horiz-adv-x="117" d="M237 670.5q5 8.5 8.5 7t12 -5.5t13.5 -6.5t12 -7t11 -8.5q11 -9 9 -25.5t-26 -94.5q-10 -38 -55 -89q0 -4 -9.5 -6t-14.5 -4q-27 -5 -42 8q-5 17 12 41q38 62 43.5 78t8.5 28q7 28 6.5 41t2.5 24t8 19.5z" />
<glyph unicode="(" horiz-adv-x="330" d="M232 199q-4 0 -8.5 -34t-7.5 -55q-2 -66 8 -100t38 -64q23 -20 48 -21l34 -21q-6 -22 -23.5 -33t-36.5 -9q-46 6 -80 40.5t-48 80.5q-19 42 -18.5 109.5t16.5 123t18 80.5q4 13 37.5 89t45.5 108q21 46 75.5 124.5t75.5 96t27 18.5q4 10 15.5 17.5t21.5 7.5q23 14 49 7 t34 -35q3 -14 0 -18t-22 -13q-35 -13 -47 -27q-22 -28 -37 -37q-18 -7 -18 -16q-11 -26 -36 -58q-8 -13 -27.5 -46t-32.5 -56t-23 -35q0 -15 -15 -39q-6 -22 -21 -53t-28.5 -74.5t-13.5 -57.5z" />
<glyph unicode=")" horiz-adv-x="330" d="M235 187q5 5 5 24q16 8 14 35q0 1 4 12q13 29 15 53q16 51 21 90t8 90t4 72t1 29v20q0 24 -10 39q-10 32 -16.5 32t-6.5 14.5t3 23.5q-1 4 14.5 9t27.5 4.5t24 -15.5q4 4 13 -15t19.5 -45.5t11.5 -43t-3 -88.5q-1 -100 -28 -229q-13 -52 -45.5 -135.5t-47.5 -107.5 q4 0 -30 -49.5t-43 -64.5q-24 -33 -61 -57.5t-56.5 -19t-37.5 22t-19 31.5q0 18 5 28q8 -8 29 -2q19 -1 29.5 3.5t19.5 15.5t28 34t23 34q20 15 36 40q0 22 18 51q6 13 14 29q17 31 17 36z" />
<glyph unicode="*" horiz-adv-x="363" d="M420 459q0 4 6.5 4t16.5 -13.5t7 -15.5v-6q3 -1 -5 -10t-18.5 -17.5t-12.5 -8.5q-10 -6 -23.5 5.5t-20 23.5t-8.5 19q-8 23 -14 39l-2 37q-4 4 -94 -86q-40 -37 -52 -35q-4 0 -11.5 5t-8.5 6.5t-0.5 20t3.5 25.5q10 13 54 58.5t52 51.5q8 8 8 11t-8 10q-7 10 -6 13t-4 4 q-6 9 -6 17l-8 25q-5 5 -0.5 20t9.5 20q3 0 9 -5q7 0 35 -39q7 -14 10 -15.5t6 -1t5 0.5q14 21 17 45q10 14 19 28l22 34q3 10 8 11q6 8 16 13t12 3q12 -9 16 -20l18 -15q-37 -49 -49.5 -77t-10.5 -28q15 7 29 10q13 6 25 10q10 0 24 9q15 5 24 0q7 -7 13.5 -22.5t6.5 -21.5 q-7 -5 -12.5 -9t-12.5 -8q-19 -12 -59.5 -24t-42.5 -19q-12 0 0 -17q2 -6 3 -27q3 -11 5.5 -22t5.5 -22q4 0 4 6z" />
<glyph unicode="+" d="M319 373l7 -127q31 1 81.5 1t69 -18t10 -34.5t-30.5 -12.5q-109 -7 -129 -7q2 -74 2 -91t-5 -32q0 -25 -20 -36q-25 -19 -34 33q-8 53 -12 124q-37 -1 -72.5 -1t-50.5 5q-25 0 -36 20q-19 25 33 34l18 2q34 7 105 10q-1 31 -1 82t17.5 69t34.5 9.5t13 -30.5z" />
<glyph unicode="," horiz-adv-x="198" d="M102 -72q-4 0 -12 -7t-32 -7t-33 17q0 9 19.5 28t48.5 74q5 15 16 59q0 20 5 25q47 44 60 -39q6 -36 -17 -84q-4 -10 -27.5 -38t-27.5 -28z" />
<glyph unicode="-" horiz-adv-x="326" d="M356.5 229q18.5 -18 10 -34.5t-30.5 -12.5q-140 -10 -163 -10t-38 5q-25 0 -36 20q-19 25 33 34l18 2q63 14 125.5 14t81 -18z" />
<glyph unicode="." horiz-adv-x="198" d="M118 139q19 12 29 12.5t29 -7.5q34 -21 30 -46.5t-44 -45.5q-39 -14 -66 6q-40 38 22 81z" />
<glyph unicode="/" horiz-adv-x="330" d="M236 364l15 36q21 27 104.5 175.5t85 162.5t19.5 11q7 5 16 3q18 -18 28 -30q12 -14 2 -50q-4 -14 -38.5 -62.5t-66 -103t-30.5 -58.5q-6 -6 -17 -31q-11 -14 -35 -51t-27.5 -45t-6.5 -10q-3 0 -7 -10q2 -8 -24 -50q-141 -285 -145 -308q-10 -50 -30 -58q-33 -2 -43.5 30 t14.5 99q17 32 18 40q7 17 68.5 134t68.5 128q9 -2 14 19q6 24 17 29z" />
<glyph unicode="0" horiz-adv-x="450" d="M441 436q-8 11 -27.5 11t-36.5 -12q-7 -4 -15.5 -1t-8.5 8q0 12 -10.5 1.5t-38.5 -45.5q-16 -16 -29.5 -35.5t-13.5 -22t-9 -25.5q-7 -11 -19 -38.5t-15 -39.5v-66q0 -21 6 -30q7 -12 30 -41q10 -8 13.5 -7.5t10 3t13.5 3.5q24 0 38 14q40 27 62 78q14 20 38 88 q14 21 14 59.5t5 56.5q0 24 -1 29.5t-6 11.5zM373 539q14 4 51.5 4t75 -17.5t37.5 -32.5v-7q0 -12 -4 -10h-6h-10l10 -30q10 -22 10 -44t-10 -73t-15.5 -64t-5.5 -26q-3 -6 -13.5 -29t-12.5 -27q-10 -9 -5 -14q0 -5 -10 -23.5t-14.5 -18.5t-4.5 -4q0 -11 -45 -56 q-16 -17 -54.5 -40.5t-52.5 -23.5t-47.5 11t-47.5 23q-84 72 -64 207q11 64 46.5 127.5t87 109t104.5 58.5z" />
<glyph unicode="1" horiz-adv-x="450" d="M388 517q34 21 64.5 36t35.5 14t26 -15.5t22 -22.5q6 -7 -4.5 -29t-34 -91t-33.5 -104.5t-22 -68t-19 -59.5q-20 -47 -37 -127q-8 -24 -14 -45t-10.5 -24t-26 2t-30.5 13.5t-10.5 17t5.5 57.5l26 96q8 4 29.5 78t33.5 111q18 54 32 81q-50 -27 -99 -65t-57 -42.5 t-27 -19.5t-24.5 -14t-8.5 3q-14 12 -25 33t-5 31q3 1 40.5 28.5t42 29.5t8.5 5t10.5 8.5t11.5 8.5q3 4 17 14t39.5 28.5t43.5 31.5z" />
<glyph unicode="2" horiz-adv-x="450" d="M375 536l29 -5q13 1 40 -19t36 -40q34 -53 -17 -129q-11 -13 -61.5 -68.5t-60.5 -63.5q-8 -4 -34 -29.5t-47 -49.5t-21 -26q1 -2 15.5 3.5t30.5 11t64 12.5t55 2l5 -2q4 6 25 4t44 -9t23 -17q3 -7 11 -16q18 -15 0 -29t-55 -7q-26 0 -35 -1.5t-50 -4.5q-29 4 -65 -9 t-86 -26t-57.5 -10.5t-24.5 21t-20.5 25.5t0 20.5t7.5 13.5q4 -4 13 16t10 23t14 12q0 1 15.5 19t27.5 29q104 100 108 119q5 6 16 13t24 20q3 15 27 39q17 25 22 41.5t1 19.5t-28 10q-24 9 -45 3t-56 -30q-7 -2 -17 -6q-22 -7 -26 -6t-7 4.5t-7.5 9t-7.5 8.5l-10 43l31 17 q93 60 144 44z" />
<glyph unicode="3" horiz-adv-x="450" d="M363 473h-4q-7 3 -38.5 -4t-32.5 -10.5t-25 -10.5t-29 -7q-7 2 -17 26t-7.5 31t26.5 22t44 24q21 5 69.5 10.5t66.5 4.5q95 -11 110 -82q9 -45 -43 -92q-12 -8 -26 -17q-48 -33 -67.5 -41t-32 -12.5t-12.5 -6.5q78 -9 135 -86q20 -45 -10.5 -101.5t-84.5 -88.5 q-43 -24 -141 -31q-37 0 -69 19t-30 38q2 37 43 31q51 -11 103.5 0t80 38.5t28 45.5t-23.5 34.5t-55 26.5t-48.5 8.5t-50.5 15.5q-6 6 -11.5 23.5t-6.5 19.5q-2 7 20 22t109 62.5t101 59.5q13 13 10.5 20.5t-26.5 12.5q-55 5 -55 -5z" />
<glyph unicode="4" horiz-adv-x="450" d="M160 303q35 70 35 77q8 18 58 87t66 84q30 15 42 15t23.5 -19.5t11.5 -27.5q-6 -14 -38 -51q-107 -150 -107 -180q0 -10 17 -10q65 11 97 24q6 3 13.5 13t9.5 15t8.5 22t19.5 47t36 69q40 68 49 68q5 0 29 -20.5t24 -24.5q0 -18 -18 -48t-40.5 -74.5t-55.5 -125.5 q-63 -158 -63 -187q0 -8 5 -18q0 -19 -17 -34.5t-34 -15.5q-13 0 -24 19.5t-11 29.5t5 40.5t15 64t17 53t7 21.5q-1 0 -21 -4q-60 -14 -79 -14q-31 0 -52 31q-7 6 -18 28t-11 31t1 11v4z" />
<glyph unicode="5" horiz-adv-x="434" d="M344.5 546q41.5 17 86.5 15.5t67 -30.5q15 -33 -4 -51q-9 -9 -20 -3q-26 16 -89 -3q-5 -2 -13 -5t-11.5 -4.5t-9 -4t-8.5 -4.5q-6 -4 -10 -12q-3 -2 -5 -4q-2 -4 -6 -4q-6 -6 -6 -11l-8 -10q-2 0 -4 3q0 -5 -1 -11t4 -8.5t36.5 -6.5t63.5 -24q38 -22 51 -76t6 -102.5 t-25 -76.5q-46 -64 -134.5 -95.5t-133.5 -1.5q-18 13 -18 22q-4 6 -9 6q-6 -3 -8.5 22t-1.5 29q5 11 27 14.5t24 -7.5q3 -19 51 -17q79 1 130 68q17 40 19.5 67t-1.5 29q-2 11 -6.5 23.5t-22.5 28.5t-35 23q-17 3 -46 -1q-37 -5 -41 -1q-8 2 -27.5 19.5t-19.5 24.5 q3 15 34 62t57 74t67.5 44z" />
<glyph unicode="6" horiz-adv-x="471" d="M438 276q-1 0 -4.5 1t-9 2t-14.5 3q-18 5 -101 -15q-4 -1 -14 -5t-16 -5q-6 -8 -20 -11.5t-20.5 -18.5t-16.5 -58q-9 -50 -4 -58q3 -13 18 -17t25 -3.5t30 8.5q20 6 23 5q20 13 41 27q45 27 69 62t19 60q1 5 -5 23zM276 442q14 9 25 23t64 45t97 37q15 2 13 -5 q18 -21 29 -23q1 0 12 -17q3 -15 -32 -48q-22 -16 -29 -8q0 5 -10 7.5t-40 -12t-50 -36.5q-22 -20 -25 -28l-33 -38q3 -5 14 -2.5t13 6.5q0 4 22.5 10.5t45.5 8.5q11 4 42 -2.5t39 -10.5t19 -18q36 -34 34 -89q0 -32 -17 -53q-44 -75 -68 -90l-11 -7q-2 -11 -52 -40 q-134 -77 -194 -20q-40 30 -46 69q-7 25 -6.5 33.5t9.5 51t15 61t23 42.5q19 53 34 70q22 33 36 47z" />
<glyph unicode="7" d="M211 313l67 -4q18 0 28.5 -1.5t15 2t20.5 23.5q4 7 20.5 30t26.5 42q54 75 33 81q-18 6 -86.5 -20t-86.5 -16q-8 1 -12 22.5t-1 34.5q4 18 131 50q34 6 80 4.5t52 -12.5q8 -1 9 -5q8 -15 15 -27t8.5 -18.5t-0.5 -22.5q-7 -24 -21 -36q-13 -18 -26 -31q-1 -3 -5 -9t-4 -8 l-52 -79q-19 -17 -14.5 -22t13.5 -9q35 -16 43 -40q1 -23 -8 -27q-5 -7 -16.5 -10t-14.5 1q-4 8 -22.5 15.5t-24.5 7.5q-13 -8 -41 -59.5t-31 -57t-7.5 -12.5t-8.5 -15.5t-7 -30t2 -22.5q12 3 17 -13q5 -7 -7 -19t-30 -20t-29.5 -6t-27.5 17t-22 29q-7 33 70 178 q25 41 21.5 44.5t-19.5 3.5q-41 10 -43 13q-23 12 -19 23q2 4 9.5 5.5t10.5 11.5t-6 14zM211 313q-1 1 -2 1q1 0 2 -1z" />
<glyph unicode="8" horiz-adv-x="450" d="M345 170q-20 41 -27 51.5t-18 16.5q-8 -10 -14 -24q-14 -17 -19 -27l-22 -22q0 -8 -20 -46q-31 -52 -29 -77q1 -12 9 -13q14 -1 42.5 11.5t52.5 29.5q64 51 45 100zM284 442q-11 -34 2 -60q11 -4 15 -17q0 -9 8 -9q2 -12 19 -11.5t32 10.5q39 35 51 14q4 -6 23 8 q38 25 34 35q-5 9 -5 21.5t-4.5 19t-49.5 22.5q-100 35 -125 -33zM311 575q102 -14 131 -26.5t61 -36t34 -31.5q0 -2 3 -7q13 -18 11 -53t-11 -49q-25 -28 -31 -30.5t-11 -7.5q-12 -11 -19 -12q-13 -17 -18 -17q-12 8 -12 0q-1 -4 -27 -15.5t-31 -9.5t-13 -3q-13 2 15 -32 q58 -106 31 -143q-19 -43 -41 -71t-35 -26q-8 -5 -14 -9q-4 -13 -20 -11q-9 4 -29.5 -9.5t-56 -21t-46.5 -1.5q-19 3 -61 41q-14 30 -10 56q0 35 12 54q12 34 50 91t58 81.5t18.5 34.5t-20.5 36q-3 8 -7.5 15t-2.5 7q-4 4 -8 14q-15 15 -14.5 43.5t14.5 56.5q16 37 43 62.5 t57 29.5z" />
<glyph unicode="9" horiz-adv-x="438" d="M425.5 457q2.5 4 14 16.5t10.5 18t-6.5 12.5t-13 8t-31.5 -8q-15 -3 -30 -14t-24 -17q-6 -6 -13 -5t-7 -4q5 -9 -12 -23q-48 -51 -30 -72q22 -24 57 -7t67 67q7 8 11.5 16t7 12zM265 11l2 34q4 55 50 188q15 36 13 44t-26 6q-45 -8 -79.5 27.5t-31.5 81.5q1 24 28.5 66 t77.5 82q89 70 161 42q22 -9 49.5 -47t23.5 -55q-11 -52 -38 -81q-23 -20 -58 -89t-52 -118t-22 -75t-5 -41.5t5 -16.5l28 -6q13 -21 -39 -67q-32 -29 -39.5 -28t-24 12.5t-16.5 15.5q1 4 0.5 4.5t-4.5 0.5z" />
<glyph unicode=":" horiz-adv-x="198" d="M190 349q19 12 29 12.5t29 -7.5q33 -21 29 -46.5t-44 -45.5q-38 -14 -66 6q-39 38 23 81zM120 139q19 12 29 12.5t29 -7.5q33 -21 29 -46.5t-44 -45.5q-38 -14 -66 6q-39 38 23 81z" />
<glyph unicode=";" horiz-adv-x="198" d="M190 349q19 12 29 12.5t29 -7.5q33 -21 29 -46.5t-44 -45.5q-38 -14 -66 6q-39 38 23 81zM103 -72q-5 0 -12 -7t-31 -7t-33 17q0 9 16 25t52 77q5 15 16 59q0 20 5 25q47 44 60 -39q6 -36 -17 -84q-4 -10 -27.5 -38t-28.5 -28z" />
<glyph unicode="&#x3c;" d="M454 376q-3 -16 -13 -25t-33 -21q-80 -41 -113 -61t-47 -27.5t-18.5 -9.5t-11 -7t-5 -8t0.5 -12q37 -43 169 -84q52 -16 68.5 -31.5t13.5 -36.5q-8 -14 -46.5 -18.5t-70.5 8.5q-56 11 -75 23t-27.5 17.5t-23 14t-19 11t-14.5 9.5t-15 12q-15 13 -25 28l-33 40l-11 53 q13 2 56 30t85 52q103 53 119 69.5t31 16.5q11 3 36 -22q3 -2 7 -4.5t6 -4t4 -2.5q2 -2 5 -10z" />
<glyph unicode="=" d="M339 202q45 0 70 -23q18 -15 12.5 -32t-28.5 -13q-174 -10 -200.5 -10t-47.5 5q-29 0 -37 14q-8 11 -8 21t17 17t49 7q73 14 173 14zM394 345q45 0 69 -22q18 -15 13 -32.5t-29 -13.5q-168 -10 -197 -10t-51 5q-29 0 -37 14q-21 22 4 36q18 10 55 9q73 14 173 14z" />
<glyph unicode="&#x3e;" d="M140 63q3 16 13 25t33 20q80 42 113 62t47 27.5t18.5 9.5t11 7t5 8t-0.5 12q-37 43 -169 84q-52 16 -68.5 31.5t-13.5 36.5q8 14 46.5 18.5t70.5 -8.5q56 -11 75 -23t27.5 -17.5t23 -14t19 -11t14.5 -9.5t15 -11q15 -14 25 -29l33 -40l11 -53q-13 -2 -56 -30t-85 -52 q-103 -53 -119 -69.5t-31 -16.5q-11 -3 -36 22q-3 2 -7 4.5t-6 4t-4 3.5q-2 1 -5 9z" />
<glyph unicode="?" horiz-adv-x="374" d="M180 92q20 13 29.5 13.5t29.5 -7.5q33 -21 29 -46.5t-44 -45.5q-39 -15 -66 6q-39 38 22 80zM310 542l5 -35q-1 0 -8 -2.5t-13 -3.5t-14 -1q-19 -2 -32 11q-20 24 -21.5 30t-2 9t0 10.5t0.5 12.5q32 97 94 129l58 30q9 0 33 3q4 -1 9 -1q12 2 12 -3h29q18 -5 45 -22.5 t38 -29.5q15 -45 -4 -124t-58 -122q-1 -1 -36 -33t-48 -46q-32 -18 -58.5 -54.5t-40.5 -76.5q-19 -40 -51 -40q-15 1 -22.5 12t-7.5 25q-5 27 -1 37t9.5 22t8.5 21q11 19 33.5 44.5t39.5 37.5l17 12q0 4 14 15t24 16q23 16 33 25q31 32 41 58t23 91q1 33 -2.5 42t-16.5 19 q-84 15 -126 -79q-8 -24 -4 -39z" />
<glyph unicode="@" horiz-adv-x="643" d="M450 247q-33 7 -47 0q-24 -10 -48.5 -57t-21.5 -75q14 -28 42 -16q13 8 29 23.5t20 24.5q18 34 35 84q0 10 -9 16zM383 -96l1 -18q0 -10 -7 -13q-31 -13 -71 -13q-73 0 -145 57q-41 37 -67 83q-31 43 -15 134q8 41 19 62l4 16q0 14 23 47q43 57 62 81q49 62 117 112 q28 22 76 42t69 23t57 1q73 -7 116 -47q70 -56 88 -134q6 -21 3.5 -66t-11.5 -64q-21 -46 -70.5 -104t-71.5 -64q-16 0 -40.5 7t-29 12t-25.5 17q-11 -12 -28 -27.5t-50 -28.5t-46 -10q-31 8 -42.5 15t-31.5 34q-17 44 -17 57t10 46q10 43 47 96t99 79q12 6 35 6 q37 0 62.5 -27.5t31.5 -41.5q4 -22 2 -35q-13 -70 -17.5 -78.5t-4 -9t0.5 -7t10 -11.5t17.5 -5t37.5 33t36 45t11 24q2 16 2 34q0 117 -94 155q-20 8 -62.5 8t-79.5 -16q-24 -8 -63 -42q-144 -124 -165 -272q-5 -40 9.5 -69t63.5 -60q44 -18 124 -13q8 -2 10.5 -5t2 -15.5 t7.5 -29.5z" />
<glyph unicode="A" horiz-adv-x="511" d="M454 323h2q3 9 16 101t14 124l-3 50q-9 0 -41 -47.5t-62 -107.5q-23 -41 -32 -41q-7 -7 -30 -47t-18 -44q40 8 65 9q64 17 80 10q5 -7 9 -7zM415 663q22 30 48.5 30t58.5 -24q42 -30 46 -59q1 -6 1 -17t-0.5 -22t-2 -28t-2.5 -29.5t-3 -33.5t-3 -37t-12 -121 q-22 -216 -17 -307q1 -7 0 -18t-1 -12q-9 -10 -46 -4t-40 20q-5 4 -5 9l9 233l-13 -1q-20 0 -84.5 -8t-81.5 -13q-21 0 -45 -43q-6 -15 -15.5 -31.5t-9.5 -18.5l-16 -19q0 -11 -19.5 -56.5t-38.5 -74.5l-27 -38l-35 27q-16 8 -19 17.5t5.5 30t27 56t27.5 53.5q43 82 43 121 q-4 15 15 24q1 1 12 9q28 21 39 40q21 49 102 186q48 88 102 159z" />
<glyph unicode="B" horiz-adv-x="521" d="M450.5 593q-28.5 5 -54.5 -2t-26 -25t-16 -34q-2 -8 -12 -20q0 -2 -6 -12q-22 -41 -33 -71q-30 -71 -30 -86q62 12 83 20q26 15 34 23q63 59 88 106q22 35 24.5 52t-10.5 29q-13 15 -41.5 20zM382 673q1 0 10 1q24 2 44 1q71 -6 112 -40.5t40 -101.5q-2 -26 -29 -71 t-66 -80t-56 -43q1 -1 37 -14q78 -29 98 -110q10 -44 -22 -117l-15 -22q-1 -4 -18 -30.5t-30 -42.5q-66 -56 -109 -72q-41 -18 -96 -19t-81 16q-43 27 -51 55.5t20 45.5q6 4 24 0.5t26 -11.5q38 -35 108 -17q39 12 61.5 30t53.5 56q29 39 36 78.5t-9 54.5q-53 74 -159 46 q-20 -3 -39.5 -7.5t-27 -5.5t-8 -4t-8.5 -18q-10 -19 -46.5 -122.5t-57.5 -105.5q-11 -1 -27 22q-1 2 -8 12.5t-10 18t-3 12.5q-2 11 5 23.5t15 42.5q13 39 75.5 194t92.5 223t20 71q0 3 -3 9t-2 9q0 6 35.5 18t48.5 10q19 0 19 5z" />
<glyph unicode="C" horiz-adv-x="491" d="M273.5 26q5.5 0 14 3t15 5t17.5 6t17 7t19 9q70 29 94 51q26 19 42 19q13 4 20.5 -8t7.5 -29.5t-19 -37t-45 -34.5q-11 -11 -49 -26q-37 -27 -87 -46t-85 -11q-79 29 -99 81t-18 126q0 89 31 169q1 2 14 33.5t18 41.5q17 39 60 101q56 85 86.5 116.5t98.5 78.5 q23 17 56.5 21t67.5 -12.5t49 -53.5q22 -40 -2 -118.5t-66 -117.5q-30 -19 -70 17q-12 22 -10 23t4 1q9 11 26.5 42.5t21.5 45.5t6.5 25t3.5 17t2 12.5t1.5 9.5t-0.5 7q0 5 -7 12t-35 -8q-49 -21 -117 -113q-87 -114 -108 -178l-11 -26q3 -16 -12 -46q-17 -70 -12 -129 q5 -73 36 -85q5 -2 11.5 -1.5t12 0.5z" />
<glyph unicode="D" horiz-adv-x="587" d="M181 -6q-1 -4 -1 -9q18 -8 31 -6t36 3q53 2 69 15q55 36 105 79q2 5 21 12q5 5 30.5 31.5t29.5 29.5q1 5 3.5 13.5t2.5 12.5q12 13 36 62.5t33 85.5q36 157 -65 244q-21 18 -68.5 39t-53 19.5t-22.5 -46t-48 -132t-45 -126.5q-4 -16 -12 -39q-18 -53 -18 -58 q-29 -45 -43 -152q-2 -9 -4.5 -19t-4 -17l-3 -14t-3 -12t-2.5 -9q-2 -7 -4 -7zM260.5 701.5q58.5 13.5 109 9t126.5 -31.5q52 -20 107 -76t70 -118q6 -22 8.5 -56t-4.5 -47.5t2 -16.5q-2 -4 -8.5 -26t-9.5 -30q-3 -36 -23.5 -88.5t-38.5 -83.5q-6 -1 -7 -4q0 -5 -11 -19 q-3 -2 -12.5 -14.5t-13.5 -15.5q-1 -7 -6 -11.5t-9 -4.5q0 -3 -3 -4q-18 -26 -71.5 -71.5t-90.5 -60.5q-5 -4 -42 -21q-6 -6 -58.5 -10.5t-62.5 -6.5q-38 -6 -104 12q-15 3 -22 11t-8.5 9.5t-6 8t-7.5 9.5q-17 22 -12.5 52t30.5 34q7 1 19 -4q0 28 6 50.5t41 126t55.5 174.5 t36.5 101q2 5 7 23q12 44 29 87l7 33l-11 5q-18 -6 -27 0q-9 -3 -24.5 10t-17.5 23l-3 17q2 12 60.5 25.5z" />
<glyph unicode="E" horiz-adv-x="557" d="M268 52l40 -3q24 0 42 8q78 13 110 36q5 2 9.5 7t8.5 5q-1 -2 -1 -2.5t19 16t41.5 21.5t36 1.5t14.5 -8.5q9 -16 -22 -55q-92 -114 -304 -117q-29 3 -52 17t-29 18t-20.5 14t-17.5 12q-30 30 -41 88q-6 26 5 79t25 83q22 53 97 170l6 8q0 7 29 62q25 27 14 42q-7 9 38 47 q20 17 42 29q23 18 46.5 20.5t26.5 -9.5q9 -3 33.5 2.5t32.5 6.5q7 9 67 16l70 2q7 2 20.5 -9t21 -28.5t-11.5 -31t-70 -19.5t-91.5 -14.5t-56 -11.5t-20 -4t-14.5 -4.5t-15 -7.5q-16 -15 -27 -32q-9 -6 -40 -68q-7 -10 -31.5 -42.5t-19.5 -38.5q27 -6 32 -6q8 4 48 11 q136 35 156 38q13 10 27.5 -1t23 -34.5t-9.5 -34.5t-85.5 -26.5t-104.5 -25.5t-58 -15t-38 -6t-25 3t-7 14q-11 5 -25 -25q-25 -53 -25 -108q0 -15 3 -23q17 -49 77 -66z" />
<glyph unicode="F" horiz-adv-x="475" d="M606 653q41 -7 44 -11q6 -6 4 -12l7 -5q16 -9 4 -44q-1 -9 -9.5 -10.5t-45.5 -0.5q-67 9 -171 -5q-51 -4 -61 -16q-17 -20 -50.5 -103.5t-35.5 -86.5q32 -9 177 4q39 8 53 6q18 -2 21.5 -30t-16 -39.5t-68.5 -16.5t-106 -6t-81 2q-9 -7 -9 -18q-18 -33 -50.5 -117 t-32.5 -102q-8 -20 -11.5 -39.5t-6.5 -21.5q-3 -14 -19 -15t-23 9q-46 21 -31 68q8 36 29.5 103t34 91.5t18.5 46.5t8 26q-2 11 -0.5 14.5t8.5 12.5q14 12 30 47l50 143q9 32 5 32q-1 0 -29.5 -3.5t-29.5 -3.5q-26 -4 -26 14q3 18 12.5 34t23.5 17l39 9q28 6 54 -1 q12 8 13 14q8 30 36.5 36t36.5 -15q3 -8 2 -16.5t4 -8.5q11 0 60 11q72 6 89 1q9 2 21 3q24 1 28 3z" />
<glyph unicode="G" horiz-adv-x="507" d="M623 584q0 -16 -18 -32.5t-32.5 -16.5t-19.5 6q-37 54 -83 54t-88 -39t-72 -98t-53 -130q-43 -131 -50 -240q0 -32 9 -47t39.5 -15t82 29.5t85.5 82.5q43 81 43 109q0 16 -15 16q-50 0 -72 4t-29 19q-13 4 -13 24q0 41 90 41q63 -2 95 -22t32 -81q0 -18 -3 -33 q-15 -66 -54 -121.5t-87 -89.5q-101 -70 -181 -70q-44 0 -78 40.5t-34 106.5q0 132 41 251q85 252 200 325q43 27 105 27q16 0 37 -3q42 -11 82.5 -38t40.5 -59z" />
<glyph unicode="H" horiz-adv-x="573" d="M580 155l-26 -89q-23 -106 -23 -132q-28 -3 -43.5 8.5t-19.5 12.5q-37 21 -15 67q2 4 28 102q6 17 17 52q25 85 28 88v10q0 5 -65.5 4.5t-120.5 -7.5h-86q-5 -11 -29 -87.5t-38 -145t-34 -129.5q-38 13 -49 13q-15 4 -22.5 17.5t-3.5 29.5q8 8 8 38q5 10 11.5 42.5 t35.5 136.5t36 111v11q0 15 11 31q10 30 10 41l58 141v5q2 2 25 53.5t40 88.5t17 40q14 16 30 10q25 -10 42 -41l10 -16l-37 -72q-39 -69 -39 -78q-16 -43 -24.5 -70t-16.5 -45.5t-12.5 -28t-4.5 -11.5q0 3 50 4q161 1 180 4l52 5q53 170 69.5 218.5t34.5 69t32 20.5 q4 0 20.5 -11.5t19.5 -19.5q23 -21 -5 -62q-16 -28 -28.5 -65t-16.5 -45q0 -21 -7 -28t-17 -31.5t-10 -37t-10 -22.5q-45 -156 -62 -200z" />
<glyph unicode="I" horiz-adv-x="409" d="M239 -37q0 -10 -9 -16t-23.5 -3t-25.5 15q-13 18 -76 15q-21 -3 -42.5 7t-17.5 23q1 13 29.5 26.5t68.5 14.5l42 1q13 25 17.5 45t8 32.5t17.5 56.5q33 102 37 122q15 32 33 107q46 140 38 143q-10 1 -53 -3.5t-48 -7.5q-5 -7 -17 2t-15 20q-4 22 6 28q10 9 51.5 20 t80 15.5t58.5 21.5q21 7 35 6q12 -8 69 -4q92 9 108 -26q5 -19 -2 -31.5t-24 -11.5q-18 -5 -67 -6q-66 -6 -71 -14q-3 -3 -7 -9t-6 -8q1 -9 -10.5 -43t-23.5 -73q-32 -98 -39 -112q-1 -4 -76 -269q25 2 81.5 7.5t60.5 2.5t8 -14q20 -27 -3 -45t-78 -17q-79 -3 -97 -5.5 t-18 -12.5z" />
<glyph unicode="J" horiz-adv-x="315" d="M344 301l-62 -186q0 -20 -13 -33q-56 -139 -64 -152q-14 -23 -14 -27.5t-5 -4.5q-6 -4 -6 -10q-5 -12 -38.5 -47.5t-49.5 -44.5q-37 -18 -77 -9t-65 37q-7 10 -6 29.5t6 36t13 16.5q11 0 25 -19q54 -48 114 45q5 12 26 59q55 120 59 134t9 20q0 1 5 16t8 28l42 119 q10 46 19.5 68.5t35.5 100.5q41 131 38 135l-56 -10q-46 -18 -49 -3q-1 2 0 5v11q-3 -2 -9 4q-12 14 -12 30q0 8 24 18.5t46 13.5t55.5 6.5t42.5 4.5q5 4 32 -7.5t35 -19.5q10 -20 5.5 -39t-23.5 -71.5t-25.5 -71t-21.5 -61.5q-34 -96 -44 -121z" />
<glyph unicode="K" horiz-adv-x="503" d="M79 43q7 0 7 10.5t3 20.5t7 26q8 25 16 45q15 36 15 44t13 28q10 27 10 49q20 44 23 54.5t11 32t16 45t14.5 38.5t17.5 42q23 54 28 54v11q0 3 3.5 10t9.5 19.5t11 21.5q12 19 17 41q6 11 11 16q25 17 43 15t23 -13q20 -40 6 -60q-67 -140 -93 -207l7 5q26 26 83 69 l123 100q20 10 55 36q78 56 84 55q11 5 28 -20.5t15 -38.5q2 -10 -4.5 -17.5t-40 -24.5t-39.5 -28q-28 -22 -66 -49q-85 -55 -105 -84q-3 0 -7.5 -3t-7.5 -2q-14 -9 -19 -15q-10 -23 -25 -22q-15 -8 -52 -37q9 -70 38 -123q29 -64 59 -94q45 -49 68 -49q9 -3 25 -14 t18 -19.5t-1.5 -28t-18.5 -29.5q-16 -14 -51 2q-16 -1 -55 30t-60 57q-61 86 -76 141q-5 22 -13.5 46.5t-9.5 31.5l-3 -8q0 -1 -6 -15q-16 -41 -39 -124q-46 -146 -57 -162q-12 -16 -34 0q-38 23 -30 52q0 7 5 39z" />
<glyph unicode="L" horiz-adv-x="426" d="M215 254v-3q-2 0 -3.5 -7t-3.5 -10q-7 -6 -7 -29q-11 -27 -18 -68t-5 -61q4 -34 29.5 -46.5t37.5 -12.5q23 -5 92 14q11 3 26 5t47.5 12t37.5 6q20 -17 14 -35q-4 -9 -41 -37.5t-62 -35.5q-29 -13 -86 -14.5t-79 7.5q-70 17 -104 117q-2 19 0 58.5t5.5 42.5t3 11t7 30.5 t4.5 35.5q5 11 10 16q7 8 5 17.5t8 23.5l9 15q1 7 15.5 44.5t19.5 45.5v2q4 10 11 21q6 40 63 131.5t81 114.5q41 47 67 21q11 -12 15 -34t-7 -24q-14 -9 -100 -165l-39 -81q-24 -51 -45 -110q-8 -8 -8 -18z" />
<glyph unicode="M" horiz-adv-x="729" d="M698 -36q-6 -7 -9 -6.5t-6 0.5t-7.5 -4.5t-12.5 -4.5q-25 0 -32.5 18t-7.5 42.5t2 42.5t56.5 237t54.5 229q-5 -7 -24 -42t-40 -71l-70 -131q-11 -15 -24.5 -42t-68.5 -101q-10 -20 -60 -65.5t-78 -45.5t-49.5 26t-21.5 58t10 95q40 176 51 209t11 42t-2 11q-3 -2 -6 -7 q-51 -83 -116 -225q-143 -263 -164 -287q-15 0 -31 19.5t-16 45.5t13.5 53t27 47.5t18.5 28.5t7 23q14 18 37 65q30 47 74 126q93 170 121 209q2 4 4.5 10.5t11 23t16.5 29.5q21 33 35 33q22 0 47 -24.5t25 -65.5q0 -12 -11 -87q-13 -62 -40 -186.5t-27 -138.5t7 -14 q4 0 12 9q2 1 16 22.5t32 47t34 50.5q50 78 162 276q10 15 31 48q42 70 53 78.5t30.5 8t43 -23.5t23.5 -50.5t-14.5 -91.5t-33.5 -124q-4 -21 -30 -118.5t-26 -127.5v-8q-15 -28 -15 -108q-6 -45 -23 -63z" />
<glyph unicode="N" horiz-adv-x="575" d="M463 63q27 0 98 287q17 57 26 132q32 121 32 134v22q4 0 8.5 13t4.5 33t14 34q16 27 45 18t33 -31.5t-27 -154.5q0 -12 -12.5 -66.5t-16.5 -77.5q-10 -65 -18 -63q-41 -176 -105 -322q-25 -57 -61.5 -71t-69.5 26q-30 39 -44 79.5t-23 116.5q-21 133 -19 229t-8 97 q-9 0 -26.5 -51t-43 -114.5t-26.5 -67.5q-18 -36 -27 -73q-40 -106 -58 -174.5t-25 -87t-15 -23.5t-34 8.5t-30.5 40.5t5.5 55q7 27 26 72.5t27 86.5q34 79 55 145q1 5 50 112q38 108 96 196q18 30 55 26t47 -34q20 -46 22 -198q0 -43 1 -62t3 -49q2 -49 13 -91q2 -14 7 -57 q12 -95 21 -95z" />
<glyph unicode="O" horiz-adv-x="505" d="M234 38q19 -10 42.5 -6.5t40.5 16t68.5 71.5t71.5 93.5t40.5 109t21.5 85.5t0 81q-2 48 -17 65q-33 35 -76 21q-29 -12 -85 -77t-55 -84q0 -8 -5 -15q-26 -28 -53 -118q-34 -116 -30 -184q1 -40 36 -58zM401 649q47 28 65 21q123 -27 147 -156q17 -82 3.5 -149 t-77.5 -172q-78 -154 -182.5 -215.5t-169.5 -12.5q-79 58 -82 96q-6 55 14 155q6 6 5 15.5t2 19.5t9 29.5t10 39.5q45 136 111 223q68 70 145 106z" />
<glyph unicode="P" horiz-adv-x="472" d="M260 302l-1 -20q0 -2 2 -6t26 0q62 10 133 54q22 15 52 53q56 93 46 134q-10 52 -58 69q-44 7 -68 3q-16 -5 -22.5 -13.5t-18.5 -38.5q-32 -61 -42 -88q-22 -77 -35.5 -111.5t-13.5 -35.5zM125 185l5 33q12 0 22 41q2 9 5 19q6 20 7 24q8 26 27 65q30 111 56 168 q4 10 8.5 21t6.5 16.5t4 10.5q2 8 -2 12q-9 4 -6.5 25.5t18.5 35.5q25 29 113 22q12 -1 64 -1q6 -3 21 -9q35 -13 35 -17q0 -8 12.5 -9t40.5 -28q65 -61 54 -125q-4 -40 -12 -50q-16 -12 -16 -21.5t-29 -55.5q-50 -80 -113 -120q-42 -19 -94.5 -33t-79.5 -13q-2 0 -21.5 -3 t-24.5 -11q-19 -45 -19 -58q-6 -11 -24.5 -67t-25.5 -86q-4 -13 -16 -20.5t-23 -7.5t-19 13q-10 9 -14.5 18.5t-2 43.5t20.5 86q5 21 11 40q11 35 11 41z" />
<glyph unicode="Q" horiz-adv-x="490" d="M260 141q6 14 22.5 23.5t33.5 4.5q22 0 42 -48q0 -4 9 -24q45 69 92 203q1 4 21 49q37 87 37 150q6 42 -3 59t-35 29q-51 18 -104 -25.5t-94 -145.5q-61 -131 -80 -212t-4 -149q2 -32 14.5 -47t36.5 -8q29 3 60 27l-50 94q-8 8 2 20zM546 283q-6 0 -6 -6q7 -23 -25 -85 q-39 -107 -102 -183q8 -16 12 -21q2 -7 13 -24t14 -27q22 -36 18 -50t-26.5 -14t-43 8t-23.5 21q-6 6 -7 12t-2 7q-13 5 -21 28q-58 -41 -114 -35q-23 4 -58 29.5t-45 47.5q-25 50 -28 108t15 140q10 38 33 105.5t27 67.5q3 3 3 15.5t31 61.5t55 70q51 67 96 90 q8 5 37.5 13.5t45.5 9.5q95 6 134 -73q17 -20 20 -36t5 -36t3 -26q1 -57 -20.5 -137.5t-40.5 -80.5z" />
<glyph unicode="R" horiz-adv-x="498" d="M471 583q-60 15 -79.5 11t-26.5 -33q0 -2 -8 -18q-27 -54 -42 -94q-59 -119 -59.5 -126t2.5 -10q26 2 109 36q163 76 158 159q0 20 -17.5 44.5t-36.5 30.5zM334 668q105 24 190 -21q45 -27 69.5 -62.5t25 -68t-8.5 -62.5q-16 -40 -81 -94.5t-121 -78.5q-86 -42 -133 -50 q49 -91 156 -183q54 -47 93 -66q8 -9 0 -34t-14 -27q-30 -11 -68 14q-94 56 -187 163q-15 17 -23 33t-11 21q-10 19 -19 45q-30 -101 -89 -257q-3 -11 -27 -10.5t-40 13.5q-16 16 -16 24t28 71q6 36 29 83q5 17 78.5 196.5t104.5 246.5q4 11 -3.5 21.5t-23.5 10.5 q-11 12 -11.5 23.5t10.5 17.5z" />
<glyph unicode="S" horiz-adv-x="495" d="M583 702q39 -2 73 -28q71 -55 16 -149q-31 -53 -70 -75q-28 -11 -48 -3t-19 27t37 59q55 81 19 89q-16 3 -63.5 -8t-47.5 -16l-4 -5q-4 1 -56.5 -33t-54.5 -39q-2 -11 -23 -20q-18 -11 -32.5 -30t-37.5 -60q-17 -23 -24 -49q-12 -45 22.5 -71t66.5 -42q51 -29 92 -61.5 t50 -51.5q29 -41 8 -115q-9 -19 -23 -35.5t-25 -15.5q-9 -2 -18.5 -7.5t-16 -9.5t-56 -11.5t-82.5 -6.5l-40 12q2 5 -2 9t-14 5q-21 13 -45 44.5t-28.5 43t-5 15.5t2 6.5t5 3.5t8 3.5t8.5 3.5q33 22 44 -1q20 -37 69.5 -52t105.5 6q46 20 11 76q-4 10 -21.5 24t-32.5 28 q-22 10 -50.5 24t-59.5 40.5t-43 49.5q-23 24 -22 68.5t22 83.5q12 27 58 83t68 70l32 30q1 1 11 5q25 10 48 31q114 55 188 55z" />
<glyph unicode="T" horiz-adv-x="458" d="M500 560q-24 -3 -39 -3q-8 -26 -20 -49q-3 -11 -7 -24q-10 -29 -10 -33q-6 -8 -34 -94.5t-30 -91.5l-48 -131q-20 -38 -34.5 -90.5t-23.5 -71t-14.5 -21.5t-19 -4t-26 16t-11.5 35.5t16.5 70.5t28.5 81q3 14 7.5 28.5t4.5 16.5q11 13 16.5 40t72.5 236q9 15 17 38 q8 5 8 21l7 15q2 2 4.5 1t6.5 3h-1l-138 -14q-38 -3 -54 9.5t-12 30.5q6 25 57 35q20 5 94 14q65 9 195 18q9 0 43 -4.5t48 -9.5q45 -10 55 -48q5 -21 -11 -29q-7 -2 -22 -6.5t-22 -6.5q-11 -2 -22 2q-7 6 -12 9q-12 7 -70 11z" />
<glyph unicode="U" horiz-adv-x="482" d="M384.5 135q29.5 42 29.5 49t13 22q18 18 88 165q61 195 67 224.5t17 61.5q13 11 26 5.5t20 -9t14.5 -8t9.5 -5.5q9 -11 4 -33q-26 -123 -43 -169.5t-29.5 -76.5t-19 -45.5t-22 -50.5t-21.5 -49v-6q-12 -7 -22 -25.5t-14 -20.5l-9 -23q-1 -6 -12 -12.5t-13.5 -13.5 t-3.5 -9q-34 -51 -87 -98t-87.5 -60.5t-60.5 -7.5q-79 20 -101 99t10 236q15 73 51.5 174.5t76 171t73 63.5t44 -35t-14.5 -45q-12 -13 -34 -56t-30 -58q-62 -178 -78 -268q-18 -83 -20.5 -98.5t-2.5 -42.5q2 -4 5.5 -10t5 -9.5t4.5 -7.5q3 -5 11 -8q36 -17 73 4q6 11 21 18 q3 -4 4.5 -2.5t3.5 6.5q-1 5 9 15q15 6 44.5 48z" />
<glyph unicode="V" horiz-adv-x="490" d="M235 616q-6 56 33 74q16 6 33 0q23 -11 20 -48q4 -13 2 -66t-13.5 -108t-15 -124t-6.5 -127q-5 -78 -4.5 -108.5t8.5 -29.5q6 0 12 17.5t10 26.5q33 64 50 111q13 29 36.5 72.5t34.5 70t50 99.5q48 74 69 114q57 93 87 93q22 3 33 -11q31 -29 -33.5 -124t-116.5 -194 q-14 -34 -21 -45q-13 -12 -60 -108l-73 -168q-4 -13 -13.5 -28.5t-9.5 -18.5q-11 -17 -42 -34t-41 -12q-9 2 -10 17t-7 20.5t-23 9.5q-18 18 -25 47.5t-12 121.5q8 131 19 209q-2 15 2 49t2 44q5 15 9.5 50.5t8.5 50.5q7 54 7 57z" />
<glyph unicode="W" horiz-adv-x="720" d="M770 278q-4 -8 -4 -15.5t-52.5 -102t-81.5 -131t-72 -64t-57 -27.5q-29 -2 -38 22q-5 5 -13.5 22t-10.5 28q-6 61 -2.5 119.5t10.5 90t14 53t13 38.5q13 32 9.5 32t-10 -11.5t-16.5 -33.5q-37 -83 -120 -223q-5 -6 -32 -45.5t-44 -54.5q-43 -42 -88 -20q-16 2 -31 22 t-11 38q-3 25 5.5 102.5t16.5 128t28 144t26 123.5q7 15 17 51.5t11 41.5q0 20 15.5 27t33 2.5t24.5 -14.5q34 -36 14 -84q-45 -110 -72 -290q-29 -170 -21 -173q16 -4 38 44q56 92 135.5 243.5t83.5 159.5q23 40 28.5 49.5t13 22.5t12.5 21l10 16q9 14 15 17q42 0 62 -48 q6 -21 -1 -38q0 -1 -8.5 -29t-13.5 -49q-19 -50 -25 -82t-21 -101q-32 -142 -32.5 -189t6.5 -64q4 -15 21.5 9t34 60t26.5 54q75 141 145 306q29 83 45.5 118.5t31.5 44.5q5 4 22 3q17 0 26.5 -8.5t12.5 -11.5q9 -9 9 -21q-9 -31 -49 -130t-53.5 -128t-22.5 -43t-13 -22z " />
<glyph unicode="X" horiz-adv-x="524" d="M368 454l4 -40q0 -7 12 -55q81 81 103 108q93 111 118 163q10 19 13.5 20t8.5 0.5t7 -0.5q31 -2 34 -43.5t-31 -92.5q-23 -23 -26 -39q-77 -93 -98 -110q-62 -53 -80 -76q-20 -22 -23 -24q20 -75 50 -136.5t56 -76.5q2 -2 10.5 -2.5t10.5 2.5q14 2 17 -12q3 -19 3 -42 q3 -11 -19 -22q-77 -35 -136 74q-41 56 -70 137q-9 -9 -9 -10q-29 -28 -113 -119.5t-91 -105t-27 -8.5q-5 -2 -18 -1t-16 2q-3 6 -6 21q-10 16 9 64q8 19 26 35.5t34.5 31.5t27 25.5t23.5 22.5t21 19t8 9t3.5 6t9 10t9.5 12q17 14 83 78q-6 31 -13 81.5t-14 57.5q-2 5 4 7 q2 2 -5 25.5t-14 89.5q-7 73 -11 87q1 3 24 26q23 16 50 -2t27 -49t6 -37q-2 -4 1.5 -44t6.5 -50q-4 -12 0 -17z" />
<glyph unicode="Y" horiz-adv-x="504" d="M210.5 -24.5q0.5 4.5 1 7.5t2.5 9.5t3 10.5t3 13t4 15q2 60 30 111q0 31 31 105l11 34q-57 74 -66 142q-15 51 -9 162q0 27 7 45q11 32 20 50q29 25 45 -5t15 -80q6 -202 40 -230q4 -4 11 -1t10 3.5t11 8.5t13 13.5t17 19t32 34t62 70.5q105 123 131 135q11 5 29 10 q6 -2 9.5 -14.5t6 -16.5t6.5 -9q10 -12 9.5 -18.5t-42.5 -48.5q-22 -19 -70 -69t-76 -85q-91 -105 -121 -132q0 -2 -5 -2q-7 -23 -16 -66q-6 -20 -17 -56q-15 -52 -32 -104q-18 -68 -31 -93t-27 -20q-6 1 -39 24q-9 9 -9 16t0.5 11.5z" />
<glyph unicode="Z" horiz-adv-x="522" d="M373.5 41.5q74.5 4.5 96.5 4.5t35 -18q13 -5 9 -26.5t-17 -31.5q-5 0 -24 -4q-50 -9 -77 -7t-126 -9q-72 -11 -121.5 -8.5t-58.5 4.5q-30 4 -38.5 24.5t-1 45t19.5 37.5q110 120 244 239q83 71 164 156q10 11 14 15.5t12.5 13t12 13t9.5 11.5t9.5 11.5t6.5 9.5q6 10 9 20 q9 28 -2 35t-82 12t-191 -15q-6 -2 -16 6.5t-10 13.5q12 16 -4 29q-8 17 8 33q6 3 52 10.5t97 8.5t91 -3t66.5 -7.5t60.5 -17t42 -33.5q9 -25 5.5 -37.5t-5 -17t-6.5 -16.5t-7 -18q-18 -34 -71 -96t-144 -146.5t-155.5 -139.5t-102.5 -91q-22 -27 27 -27q30 -1 62.5 5.5 t107 11z" />
<glyph unicode="[" horiz-adv-x="330" d="M596 763h4q9 0 13 -7t5 -8q5 -8 6 -10q14 -16 12 -26.5t-23 -19.5q-110 -36 -158 -42q-45 -12 -49 -17t-20 -41t-16 -40q-5 -5 -29 -54.5t-26 -59.5t-11 -32q-26 -59 -41.5 -107t-19.5 -57q0 -17 -10.5 -35t-17.5 -45l-12 -24q0 -8 -9 -40q-2 -2 -4 -11q-10 -34 -24 -74 t-14 -46l-5 -28l30 6q108 15 148 15q10 5 20.5 1t12.5 -5q2 0 18 -21q8 -19 4.5 -22.5t-48 -14t-77.5 -15.5h-37q0 -9 -33 -9q-8 -4 -29 -10t-25 -8q-44 -18 -65 0q-17 7 -21 27.5t8 37.5q13 9 13 26.5t28 117.5t36 112q0 18 31 65q31 101 81.5 225.5t74.5 161.5q8 34 8 49 q0 34 49 34q14 2 48 4q94 7 158 41q12 6 16 6z" />
<glyph unicode="\" horiz-adv-x="330" d="M228 243l-4 40q-8 7 -6 30.5t-8 23.5q-4 14 -25.5 120t-21.5 117t-5.5 65.5t15.5 83.5t52 16q7 -6 10.5 -24.5t0.5 -37.5t5 -72.5t20 -124t15 -96.5q13 -42 8 -55q-1 -11 4 -11q5 -7 4.5 -14t10.5 -49t18 -59q0 -8 2.5 -20.5t2.5 -14.5t6 -25q13 -53 22.5 -83t15.5 -49.5 t8.5 -25.5t5.5 -17t1.5 -13.5t-1.5 -20.5t-15 -28l-36 -20q-11 0 -14 7q-18 3 -14 19q1 13 -32 159t-45 179z" />
<glyph unicode="]" horiz-adv-x="330" d="M361 745q68 18 103 6q3 0 9.5 -13.5t6.5 -22.5q8 -14 8 -17.5t-8 -14.5t-27.5 -53t-19 -49t-6.5 -8q-5 -1 -4.5 -8t-4 -21.5t-8.5 -14.5q-5 -1 -5 -10t-8 -32t-15.5 -43.5t-12 -31.5t-7.5 -17.5t-5 -15.5q-10 -23 -14 -61q-18 -26 -25 -56l-6 -28q0 -6 -10 -41.5 t-17 -48.5q0 -14 -18 -70q-12 -62 -16 -70l-9 -15q0 -17 -5 -21l-3 -16l1 -4q-4 0 -4 -26q0 -54 -76 -48h-35q-24 0 -33 2q-33 -3 -57 1q-12 -1 -33 5t-23 6l-15 20l-14 10l12 5q7 9 62 21.5t66 9.5l34 -2l27 3l10 27q5 27 5 41q14 11 12 27q16 44 20 57q1 11 12 45.5 t14 47.5t13 43t12 39q1 9 8.5 30t8.5 32q8 26 40 121t47 144q14 27 22 63q-30 -2 -112 -7.5t-83 -1.5q-2 2 -3.5 7t-3.5 5q-4 -1 -8 6.5t-5 15.5q-1 13 38.5 26t75.5 17q52 7 69 7z" />
<glyph unicode="^" d="M400 269q-9 7 -21 44q-22 67 -53 118q-6 10 -9 16t-6.5 11.5t-5 7.5t-4.5 4q-4 2 -19 -2q-33 -10 -82 -119q-11 -33 -31 -51.5t-35 -10.5q-32 20 -5 87q7 13 14 28.5t11 22.5q7 15 18 28q20 35 70 75.5t79 37.5q19 -2 60 -81.5t74 -155.5q9 -20 -13.5 -48t-41.5 -12z" />
<glyph unicode="_" d="M349 58q44 0 61 -16.5t8.5 -33t-30.5 -12.5q-156 -10 -225 -10t-84 5q-25 0 -36 20q-16 21 22 29l29 4q63 14 255 14z" />
<glyph unicode="`" horiz-adv-x="353" d="M374 466.5q0 -10.5 -19 -28.5q-22 -20 -32 -20t-15 30q-3 11 -28.5 55t-25.5 59.5t17.5 29t28.5 13.5q21 0 47.5 -64t26.5 -74.5z" />
<glyph unicode="a" d="M328 310q-37 0 -122 -143q-15 -24 -27 -63q16 -2 62 36q9 8 24.5 21t22.5 19t18 16q19 19 34 41l22 36q-17 37 -34 37zM93 49q0 9 -13 25q-15 15 62 156q6 6 15.5 21t12.5 17q0 4 3 7.5t7 3.5l8 16q4 9 39 43t56 47t43 12t38 -14q2 -3 13 -11q19 -15 85 -74l-17 -50 q-23 -66 12 -122q10 -21 34 -25t24 -22q0 -41 -27 -47q-78 -11 -117 64q-14 19 -18 44q-7 -10 -23 -26q-136 -138 -206 -93q-3 6 -17 16t-14 12z" />
<glyph unicode="b" horiz-adv-x="444" d="M172 350l11 34q5 4 18.5 43.5t24.5 64.5q37 81 51 120q6 9 14 23q17 29 22 32q7 2 30.5 -10t30.5 -23q6 -6 2.5 -18t-17.5 -40t-17 -34.5t-9 -19t-21 -45t-31.5 -74t-29 -78.5t-17.5 -50l-5 -22l26 29q36 36 69 50q57 25 96 25t70 -53q11 -22 8 -54t-17 -55 q-15 -11 -16 -23t-51 -67q-26 -27 -68.5 -54t-58.5 -32.5t-26 -6.5q-25 -4 -32 -6q-37 4 -49 32q-12 13 -10 23q12 0 14 4q0 6 11 4q52 -4 173 108q37 48 44 64t-1 28q-12 23 -65 -12q-76 -47 -117 -102l-40 -49q0 -4 -11.5 -10t-19.5 -6q-16 7 -19 22q-12 8 -13.5 9.5 t-5.5 10.5q-6 14 8 62q25 117 36 126q8 14 8 30z" />
<glyph unicode="c" horiz-adv-x="364" d="M376.5 245q-11.5 -18 -21 -18t-9.5 -5.5t-10.5 -6t-22 4.5t-13.5 12q0 5 7 36.5t1.5 41t-24.5 1.5q-37 -21 -55.5 -54.5t-32 -85t-12.5 -63.5q2 -19 9 -23q30 -8 53 4t61 41q2 1 8.5 11t12.5 13q8 13 24 13h21q18 -6 29 -24q4 -9 0 -12l-5 -5q4 -8 -35 -47.5t-50 -39.5 t-11 -6q0 -4 -30.5 -18.5t-49.5 -18.5q-46 -8 -84.5 19t-38.5 73q-5 46 16.5 115t55.5 111q51 61 79 72.5t60 11.5q55 -13 55 -34l5 -5q9 0 20 -31t3 -46q-4 -19 -15.5 -37z" />
<glyph unicode="d" horiz-adv-x="402" d="M181 98.5q9 -3.5 30 4.5t50 29.5t42.5 38.5t21.5 43.5t-15 46.5q-28 22 -67 -14q-51 -46 -69 -134q-2 -11 7 -14.5zM390.5 -16.5q-6.5 -1.5 -18 -3.5t-23.5 7t-18 21q-9 24 -11 98l-41 -37q-63 -59 -117 -59q-16 3 -40.5 27t-31.5 41q-12 29 9 95.5t57 107.5 q32 48 82 62.5t87 -8.5q32 -16 36 6q1 4 27.5 86t72.5 180q20 42 41 40q13 0 28.5 -8.5t22 -25t-4.5 -36.5q-26 -45 -64 -147t-54 -160t-19.5 -143t2.5 -98q2 -16 1.5 -24.5t-9 -14t-15 -7z" />
<glyph unicode="e" horiz-adv-x="334" d="M293 324q-13 0 -37.5 -21.5t-42.5 -49.5q2 -12 33 -12t39.5 4.5t29 25t21.5 28.5q0 22 -32 25h-11zM300 397q59 0 86 -28.5t27 -53.5v-8q0 -21 -28 -69q-14 -25 -43 -44.5t-58 -20.5t-55.5 3.5t-32.5 4.5t-11 -7q-7 -11 -7 -41q3 -28 15.5 -39t30.5 -11t34 7t37.5 25 t33.5 18t24 -12t13 -23q-3 -23 -46.5 -60.5t-98.5 -37.5t-90 32t-35 91q0 23 2.5 49t17.5 64t48 82t71 61.5t65 17.5z" />
<glyph unicode="f" horiz-adv-x="300" d="M165 14l-8 -98q-3 -30 -10 -37q-6 -4 -27.5 9.5t-32.5 26t-12.5 20.5t1.5 34q5 15 5 42q0 33 14.5 91.5t18.5 86.5q19 63 19 82t14 27q1 8 15 33q42 117 60 149q18 50 29 63q7 17 38 50t55 53q50 26 81.5 26t69.5 -36q14 -15 16 -20t2 -19q-4 -19 -35 -67t-39 -49 q-12 -4 -16 -4q-21 0 -21 21.5t12 46.5q12 16 12 28q0 17 -27 17q-8 -4 -31.5 -28.5t-23.5 -30.5q-5 -13 -19 -30q-18 -25 -18 -34.5t-6 -9.5q-4 -14 -14 -32q-9 -24 -20 -35h1q-19 -45 -18 -49.5t24 -2t45.5 8.5t42.5 1q11 -7 18 -31t3 -30q-4 -11 -64 -22q-12 -3 -39 -9 q-59 -11 -59 -16q-10 0 -10 -13t-4.5 -23.5t-16 -63.5t-11.5 -65q-8 -10 -8 -36q-6 -11 -6 -25z" />
<glyph unicode="g" horiz-adv-x="364" d="M314 292q-1 29 -30.5 24t-68.5 -54q-15 -20 -25 -48q-21 -61 3 -70q32 1 50 11t42 48q33 46 29 89zM244 385q37 18 66 10q24 -3 55 -30q48 -48 56 -68q14 -31 -11 -63q-13 -13 -22.5 -32t-12.5 -36t-19 -66q-18 -52 -37 -127q-22 -76 -51 -117.5t-54 -55.5q-27 -11 -58 3 t-53 46q-11 15 -28 56.5t-11 44.5q6 15 32.5 13.5t29.5 -11.5q9 -26 22 -40q10 -17 23 -23.5t21 -1.5q16 12 24.5 29t23.5 63q35 122 46 139q-6 -4 -20 -15q-28 -23 -46 -30q-6 -8 -30 -9q-51 -2 -74 29q-9 13 -18 33q-16 41 15 123q19 39 60 83t71 53z" />
<glyph unicode="h" horiz-adv-x="473" d="M374 117l6 77q0 22 -11 22q-20 0 -69.5 -36.5t-100.5 -94.5q-32 -47 -61 -47q-18 3 -33 20t-15 40t30 122q3 24 15.5 53t20 56t36.5 107.5t41 113.5t17 48q9 21 15 40q0 8 11.5 15.5t23.5 7.5t27 -21q26 -36 9 -72t-56 -150t-53 -139l-11 -22l-16 -61q0 -3 1 -3 q46 46 81 72t38.5 30.5t27 22t60.5 17.5q18 0 40 -25t22 -58v-15q0 -23 -20 -112q5 0 15 2q20 0 30.5 -8.5t11.5 -8.5q2 -2 2 -6q0 -23 -25 -40t-48 -19q-28 0 -45 21t-17 51z" />
<glyph unicode="i" horiz-adv-x="196" d="M94 96l4 21q-1 6 8 33q22 50 56 163q0 12 16 13q11 4 28 -9.5t28 -30.5q13 -13 -2.5 -47.5t-21.5 -67.5q-12 -27 -16 -39.5t-9 -41t-11 -37.5q-9 -39 -31.5 -48t-39.5 12q-11 11 -13.5 39.5t4.5 39.5zM188 458q0 8 4.5 14t15.5 30q22 43 29 44q12 8 33.5 -1t31.5 -25 q18 -40 -16 -81q-15 -20 -38 -25.5t-35 3t-18.5 21t-6.5 20.5z" />
<glyph unicode="j" horiz-adv-x="213" d="M-64 -76q9 0 24.5 -9t15.5 -19q0 -37 19 -39q23 -8 45 27q16 20 65 149q10 34 24 112.5t18 95t6.5 26t2.5 23t7 27.5q0 12 4.5 34t4.5 23q4 4 22 -2.5t26 -14.5q18 -20 22 -41t-2 -69q0 -30 -15.5 -91.5t-19 -75.5t-6.5 -23.5t-3.5 -14.5t-13 -39.5t-14.5 -48.5t-16 -45 t-43.5 -69t-43.5 -49q-21 -23 -56 -22t-59 26q-22 30 -31.5 60.5t-4 49.5t21.5 19zM206 518q10 63 56 67q23 2 36 -9q24 -40 6 -67q-24 -27 -51.5 -36t-39.5 3q-11 13 -7 42z" />
<glyph unicode="k" horiz-adv-x="374" d="M384 69l35 7q15 0 25 -10t10 -23t-36 -35t-54 -22t-41 18t-68 77q0 6 -12 28t-15 25q0 -3 -1 1q-8 24 -18 25q-5 0 -16 -20t-20.5 -50t-9.5 -49t-9 -31.5t-25 -12.5q-13 3 -34 30.5t-21 43.5q3 6 7.5 21t12 38.5t13.5 42.5q8 13 21 53q9 17 30.5 69.5t38.5 91.5 q83 191 95 220.5t15 44.5v4q0 16 41 16q9 0 23 -17.5t14 -31.5q0 -34 -70.5 -182.5t-70.5 -172.5q0 -3 1 -3q21 8 57 35.5t49 31.5q43 30 54 30t23 -13.5t12 -25.5q0 -34 -111 -93q-40 -22 -43 -25q0 -1 24 -35q9 -16 18.5 -36t14.5 -29.5t11 -18.5q12 -17 30 -17z" />
<glyph unicode="l" horiz-adv-x="178" d="M164 335l10 38q16 31 56 139.5t40 118.5t6 17t14 7q6 6 29 6l16 -16q23 -21 23 -38t-6.5 -34.5t-37.5 -82.5q-4 -11 -11 -25.5t-11 -23t-4 -10.5t-1.5 -6.5t-4.5 -12t-8 -18.5q-40 -88 -40 -97.5t-5 -14.5q-5 0 -5 -8v-3q0 -10 -16 -53q-43 -145 -43 -181.5t-23 -47.5 q-29 -8 -47 30t-6 93q11 29 11 42q3 19 20.5 68.5t22.5 59.5q10 0 10 22t11 31z" />
<glyph unicode="m" horiz-adv-x="569" d="M153 335l-2 22q0 15 14.5 25.5t36.5 10.5t35 -18.5t13 -37t-8 -34.5l-36 -88q0 -3 2 -3q3 -3 26 19t68.5 54.5t65.5 38.5q14 0 34 -18t20 -41q-15 -68 -21 -77q19 23 66 55t69 33q32 0 43.5 -30t14.5 -77.5t10 -64.5q1 -6 11.5 -9t20 -9.5t9.5 -22.5q0 -40 -66 -40 q-29 0 -50.5 30.5t-21.5 72.5q0 17 2.5 34t2.5 20t-3 3q-26 0 -113 -95q-3 -2 -5 -5q-8 -6 -21 -19q-30 -28 -42 -28t-19 6l-11 9q-13 9 -13 26v5l23 67q25 55 25 61t-1 6q-15 0 -56 -45q-44 -48 -59 -63.5t-31.5 -34.5t-28 -32.5t-12.5 -13.5q-22 0 -39.5 17t-17.5 35 t3 33.5t10 44.5t9.5 39.5t4.5 21t2.5 13t4.5 13.5t9.5 23.5t17.5 40.5q4 13 4 27z" />
<glyph unicode="n" horiz-adv-x="459" d="M379 95l5 68v16q-3 20 -13 20q-18 0 -67 -35q-88 -63 -132 -120q-9 -10 -14.5 -11.5t-16 -0.5t-28.5 20t-24 34q0 40 40 118q5 16 27.5 69.5t25.5 82.5l-1 1q0 10 10 10q2 3 20 3t37 -14t19 -39t-26 -77t-26 -54q16 11 61 46q103 83 127 83q13 0 36.5 -14.5t27.5 -26.5 l-4 -46l2 -55q0 -32 -4 -45l3 -6q-4 -4 8 -30t12 -32.5t-14.5 -20t-27.5 -15.5q-63 2 -63 71z" />
<glyph unicode="o" horiz-adv-x="362" d="M317 210.5q4 11.5 7.5 17.5t4 30.5t-7.5 29.5q-11 5 -18 3t-23 -13q-76 -64 -91 -137q-3 -25 5.5 -37.5t28.5 -6.5t36 21.5t21 20.5t8.5 9t7 11.5t5.5 11t5.5 12.5t5 12.5t5.5 15zM198 326q50 43 90 52q60 14 84 -11q39 -17 45 -71q8 -83 -55 -174q-37 -54 -102 -93 q-26 -18 -92 -22q-17 0 -39 19q-45 47 -39 83l2 23q-5 5 -2.5 8t3.5 4q6 0 4 9.5t7 36.5t23 50q34 56 71 86z" />
<glyph unicode="p" horiz-adv-x="378" d="M189 117q14 0 52.5 15.5t55 29.5t25.5 23.5t16 21.5q15 23 -2 50q-29 35 -107 -40q-32 -34 -41 -67t1 -33zM61 -6l7 36q5 27 39 128t58 163q28 65 28 86q0 5 11 17q11 9 26.5 7.5t27.5 -10.5q16 -26 11 -56q0 -20 -22 -52q-2 -3 -1 -2q59 35 101.5 29t65.5 -35.5 t23 -69.5q0 -17 -16 -50.5t-26 -42.5q-6 0 -16 -21q-12 -16 -45.5 -33.5t-45.5 -13.5q-5 -3 -5 -9q0 -7 -33.5 -15.5t-51.5 -8.5t-27 8q-7 -7 -7 -15t-10 -29.5t-16 -21.5q-6 -5 0 -11q0 -21 -6 -31q0 -26 -10 -48q0 -12 -3.5 -23.5t-7.5 -11.5q-6 -2 -6.5 -27.5t-15 -44.5 t-27.5 -19q-19 -2 -24 8q-21 30 -15 60q11 42 11 58l5 32q11 18 11 47q0 12 12 22z" />
<glyph unicode="q" horiz-adv-x="377" d="M347 316q-8 18 -76.5 -34.5t-89.5 -101.5l-11 -29q29 -3 56.5 13t58.5 46t49 62t13 44zM158 72q-20 0 -44 32t-24 52.5t15.5 53t31 55.5t54.5 55t56.5 42.5t39.5 20.5q18 11 26 11q35 8 71 -3q13 -9 30 -32t21 -42q0 -17 -4 -30t-23 -55q-14 -22 -25.5 -45.5t-11.5 -28.5 q-5 -14 -43 -96q-1 -6 -8 -34q-19 -69 -29 -115q-18 -96 0 -122q4 -12 -13 -21q-20 -11 -38 3q-25 19 -27.5 24.5t-4.5 10t-3 9.5q-16 85 46 262q18 32 16 40q-10 -5 -24 -12.5t-21 -11t-16.5 -8.5t-14.5 -7t-11 -4q-14 -4 -22 -4z" />
<glyph unicode="r" horiz-adv-x="360" d="M223 399q22 0 30 -8q22 -19 -31 -122q-17 -34 -11 -34q11 19 53.5 52t53.5 38.5t23.5 10.5t14.5 6q22 11 50 8.5t34 -17.5q0 -10 12 -16l5 -6q0 -8 -14 -20.5t-29 -13.5t-35.5 -10.5t-39.5 -20t-28.5 -16t-24.5 -14.5q-28 -19 -50 -45q-27 -27 -31 -35q-7 -7 -14.5 -36.5 t-7.5 -36.5q-4 -16 -15 -30.5t-21.5 -17.5t-27.5 12q-31 23 -27.5 49.5t20.5 98.5q3 27 31.5 106.5t47.5 107.5q10 10 32 10z" />
<glyph unicode="s" horiz-adv-x="350" d="M303 416q15 7 39 7t31 -4q6 2 8 2q12 0 31 -20t24 -32q0 -73 -12 -73q-5 0 -5 -6q0 -14 -24.5 -31t-44.5 -17q-11 3 -22 13.5t-11 21.5q0 1 20.5 25t20.5 43q0 8 -17 8q-55 -25 -79 -47q-6 -12 -12 -12q0 1 -1.5 1t-11.5 -10t-20.5 -26.5t-12.5 -29.5l-2 -3v-5 q-1 -2 -1 -8q0 -16 42.5 -47.5t59 -48t20.5 -29.5q9 -18 9 -32q0 -34 -35.5 -52.5t-84.5 -18.5t-85 21t-36.5 36.5t10.5 18.5q10 8 28 4q21 -4 52 -8q20 0 37.5 4t17.5 8t-8 11t-17 7q0 4 -39.5 33.5t-39.5 38.5q0 1 1 2v5q-7 0 -13 19t-6 37q0 52 62.5 113.5t126.5 80.5z " />
<glyph unicode="t" horiz-adv-x="331" d="M117.5 365q-4.5 6 -4.5 12.5t8.5 21.5t15 14.5t30 0t31.5 3.5t12 13q4 11 20 37q35 68 49 79t32.5 13t35.5 -9q15 -21 1 -42q-6 -12 -19 -31t-19 -30q-17 -24 -5 -26t59 5.5t53 -34.5q3 -24 -5 -29t-46 -5q-32 -5 -60.5 -5.5t-34.5 -2.5q-12 -3 -19 -19q-3 -2 -7 -11 q-6 -12 -25 -47q-26 -76 -40 -157q-3 -20 2 -28t32 -11q48 -5 105 29l27 16q7 12 22 -13q4 -6 6 -12q0 -39 -42 -63q-41 -26 -86 -33.5t-68 -3t-43 27t-25 38.5l-5 8q-6 5 -4 51.5t7 65.5q6 24 34 101l27 58l-40 11q-7 1 -11.5 7z" />
<glyph unicode="u" horiz-adv-x="370" d="M306 89v15q-10 -25 -22 -34q-23 -23 -46 -34q-66 -42 -103 6q-40 33 -30 81q3 70 43 158q44 88 46 91q16 6 37.5 -0.5t23.5 -19.5q6 -10 -0.5 -38.5t-23.5 -61.5q-40 -98 -41.5 -120.5t11.5 -26.5q11 -7 26.5 -1t41.5 39.5t45.5 80.5t22.5 83q-2 11 6 24t21 21 q4 6 10.5 9.5t9.5 -0.5l16 1q2 0 9 -9.5t10 -11.5q28 -24 -14 -123q-57 -120 -12 -159q16 -11 13 -52q-4 -14 -29.5 -15t-40.5 10q-14 13 -28 68q-2 6 -2 19z" />
<glyph unicode="v" horiz-adv-x="331" d="M130 355q4 3 17.5 4.5t18.5 0.5q22 -8 40 -122q2 -18 4 -34q5 -27 6 -30t3 -14.5t5 -11.5q11 0 72 88q35 50 58 72t34 25q24 4 29.5 -17.5t-14.5 -49.5q-6 -8 -12.5 -21.5t-13 -25.5t-36 -52t-35 -45.5t-13.5 -12.5q-25 -21 -34 -35q-23 -23 -46 -28.5t-34 7.5 q-11 8 -30 68t-25 96.5t-18 72.5q-5 17 3 37t21 28z" />
<glyph unicode="w" horiz-adv-x="517" d="M367 154q0 -23 9 -26q3 -1 12 -1t19.5 8t30.5 28t50 67t30 54.5t9 18.5q29 42 58 13q10 -10 10 -47q-21 -78 -33 -91q-19 -15 -32 -37q-28 -33 -40 -43t-15 -13q-31 -31 -74 -43t-63 4q-31 16 -31 54l-5 21q-15 0 -26.5 -20t-49 -45.5t-56.5 -25.5q-23 0 -43.5 47.5 t-16.5 95.5q0 33 6.5 64t7.5 35q8 61 25 87q17 23 41.5 20t27.5 -25q8 -9 6 -41t-11 -44q-2 -5 -7.5 -50.5t-7.5 -56.5q-5 -29 10 -23q16 7 43 46.5t38 59.5t24 57t23.5 48.5t27 11t30.5 -10.5q29 -29 5 -77q-32 -64 -32 -120z" />
<glyph unicode="x" horiz-adv-x="343" d="M216 121q-96 -101 -110.5 -101t-33 17.5t-18.5 41.5q32 38 69 70l51 52l-11 38q-18 39 -26 63q-12 16 -12.5 21t7.5 17q10 10 28 17t29 0q8 0 25.5 -33.5t17.5 -45.5t2 -16q5 -7 35 13l26 26q61 51 70 55q12 8 31.5 -6.5t19.5 -30.5q0 -33 -34 -52q-25 -18 -44 -36 q-27 -25 -61 -52l16 -27q11 -21 26 -29q8 -11 35 -32t29.5 -21t22.5 -10q12 -12 4.5 -42t-19.5 -30q-16 0 -21 6q-31 0 -82 44.5t-51 56.5q0 4 -0.5 4.5t-4.5 0.5q-6 5 -6 11q0 10 -10 10z" />
<glyph unicode="y" horiz-adv-x="341" d="M-32 -117q15 0 22 -4q38 -26 71.5 -19.5t70.5 57.5q42 67 64 107q-21 12 -40 40.5t-16 39.5v11q-11 0 -14.5 62t-0.5 87.5t7 91.5q-1 26 18 39q36 16 53.5 -16.5t12.5 -105.5q-9 -136 19 -168q9 24 15 30q14 29 15 34.5t5 13t20 39.5q26 75 32 85.5t9.5 18t5.5 11.5 t5 9.5t5 8.5t5 6q4 5 9 7q16 12 36 1q15 -15 21 -24q14 -24 -12 -72q-18 -53 -32 -69q-33 -76 -59.5 -129t-38.5 -84q-64 -102 -90 -133q-66 -60 -100 -66q-52 -11 -98.5 3.5t-53.5 40.5q-6 20 6.5 33.5t27.5 13.5z" />
<glyph unicode="z" horiz-adv-x="315" d="M255 93q72 3 97 3q32 0 41.5 -3.5t14 -25.5t0.5 -28q-2 0 -15 -1q-26 -4 -58 -5.5t-143 -15t-126.5 -11t-27.5 11t-15 19t4 28.5t26 38q38 47 61.5 66t110.5 78q7 6 53 40q-51 5 -75.5 4.5t-34.5 2.5h-15q-9 0 -30 15t-22 25q11 12 16 18q17 11 21 7q42 2 74 4 q83 -1 107.5 -6.5t45.5 -23.5q16 -16 20.5 -36t-6 -32.5t-13.5 -12.5q-38 -26 -63 -41q-42 -25 -45 -30q-20 -10 -31 -21q-13 -16 -36 -32l-45 -43q59 10 109 8z" />
<glyph unicode="{" horiz-adv-x="330" d="M541 699l-43 -5q-29 -7 -65 -39q-17 -21 -21.5 -30.5t-6.5 -27.5q-10 -26 -13 -39q-3 -19 -8.5 -75t-13 -75.5t-10.5 -26.5q-27 -74 -69 -111q-17 -10 -18.5 -14t7.5 -15q0 -1 5 -13t5 -20q7 -17 1 -39.5t-30 -76.5q-19 -38 -19 -55q-8 -11 -17 -49.5t-10.5 -43.5 t-1.5 -7q0 -19 45 -12q19 3 23.5 0.5t12.5 -13.5q12 -9 6.5 -25.5t-26.5 -22.5q-22 -12 -55 -13t-43 7q-9 14 -9 8q-20 19 -29 31.5t-8 44.5v28q6 5 8 26q18 70 47 131q24 45 24 74q0 32 -50 42q-30 0 -20 29q4 12 16.5 19t25.5 3q23 0 53 33q62 67 73 219q4 56 21.5 92.5 t55.5 72.5q16 20 39 29.5t33 13.5t34.5 4.5t30.5 -4.5q7 -3 16 -27.5t4 -27.5z" />
<glyph unicode="|" horiz-adv-x="330" d="M212 325l10 38q17 32 81.5 200t64.5 178t11 18.5t20 8.5q5 5 16 5l16 -16q26 -24 26 -46q0 -18 -6 -31.5t-9 -20.5t-12 -25.5t-14.5 -31t-25 -57.5t-36 -83.5t-16.5 -40.5t-1.5 -6.5t-4.5 -12t-8 -18.5q-40 -88 -40 -97.5t-5 -14.5q-5 0 -5 -8v-3q0 -10 -16 -53 q-83 -279 -83 -311.5t-25 -44.5q-30 -8 -47.5 28.5t-5.5 91.5q11 29 11 42q4 19 41 134t42 124q10 0 10 22t11 31z" />
<glyph unicode="}" horiz-adv-x="330" d="M204 46l2 71q0 15 -2 55.5t-1 56.5t9 32q12 11 9 33q-8 20 -6.5 36.5t10.5 22.5q42 45 61 82q55 87 71 152v10q8 19 -9 43q-8 16 -20 23.5t-32.5 13t-23.5 20.5t7 25q6 12 28.5 18.5t30 -1.5t13.5 -8t34 -24.5t36 -38.5q7 -5 12 -49q5 -18 3.5 -29.5t-21.5 -75t-32 -77.5 q-11 -7 -11 -11.5t-18.5 -35t-31.5 -43.5l-11 -19l-7 -4q-12 -8 3 -45q2 -5 5.5 -11t5.5 -10q0 -14 -5 -14q-19 -10 -24 -33.5t-3 -98.5t-7 -97q-16 -70 -23 -70l-3 -4q0 -21 -37 -43t-68.5 -23.5t-54.5 12.5t-23 26l6 11q5 -4 10 -4t5 4q14 11 37 20q42 7 51 16.5t17 45 t8 40.5z" />
<glyph unicode="~" d="M351 268q13 0 55 18.5t57.5 18.5t26 -10.5t10.5 -24.5t-17 -31l-21 -12q-24 -9 -47 -20t-31 -15q-14 -5 -26.5 -5t-27.5 5q-36 11 -71 38q-30 23 -45 23t-32 -18t-29 -19q-6 -17 -15 -17q-18 0 -29.5 12.5t-11.5 22t8 23t29.5 32.5t50.5 31l25 3q44 -3 59 -14 q53 -41 82 -41z" />
<glyph unicode="&#xa1;" horiz-adv-x="210" d="M295 406q-20 -12 -29.5 -13t-29.5 7q-33 21 -29 46.5t44 45.5q38 15 66 -5q39 -39 -22 -81zM168 35l-13 -35q-18 -30 -52 -113t-35.5 -94.5t-5.5 -17.5t-12 -5q-5 -4 -24 -4q-16 5 -25.5 15.5t-9.5 30.5t2.5 28t4.5 13.5t7.5 16t8.5 16.5q4 9 20 36q29 56 29 57.5 t13 31.5q8 13 16.5 36t8.5 28q5 13 8 16q5 0 5 8v3q0 14 19 53q34 97 37 134t28 49q31 6 44 -23.5t-2 -100.5q-14 -28 -14 -42q-12 -43 -34 -84q-4 0 -8.5 -7t-4.5 -22t-11 -24z" />
<glyph unicode="&#xa2;" horiz-adv-x="450" d="M329 330l15 33q14 21 46 85l-16 9q-12 0 -48 -52q-25 -27 -30.5 -48.5t-8 -36.5t-5 -21.5t0.5 -20t9 -17.5q9 16 10 17q4 0 9 7t6 14q0 24 12 31zM408 195l-16 -4q-5 0 -31 -6.5t-36.5 -11.5t-19.5 -5q-72 -156 -74.5 -180.5t-5 -32t-11.5 -9.5q-27 -6 -31 26t14 87 q15 21 17 44q7 18 36 77q-7 3 -27 21.5t-25 28.5q-31 44 22 176q11 23 36.5 60.5t34.5 42.5q16 5 39 17q8 3 31 8.5t34.5 4.5t33.5 -13q68 140 70 154q6 16 20 13q6 6 16 2l14 -14q17 -29 -6 -73q-4 -7 -17 -28q-45 -76 -54 -91q9 -15 7 -23t-12 -27.5t-16.5 -27t-25.5 -2.5 q-2 -6 -32.5 -58.5t-31.5 -61t-10 -17.5q-3 0 -5 -5q44 11 73 23q13 9 23.5 9t14 -0.5t9.5 -2t7 -1.5q16 -6 8 -30.5t-32 -37.5q-41 -21 -41 -32z" />
<glyph unicode="&#xa3;" horiz-adv-x="450" d="M293 348l78 -1q54 0 76 -22q15 -16 6.5 -32t-30.5 -12l-78 -3q-11 -2 -76 0q-3 -9 -15 -49q-1 -7 -10.5 -61t-11.5 -80l2 -25l36 -12q5 -2 18 -11t26 -11q26 -17 54.5 -17t48 9.5t22.5 17.5q4 0 7.5 4.5t3.5 9.5l30 7q28 0 34 -27q9 -37 -38 -72q-16 -12 -41.5 -24.5 t-66.5 -9t-72 24.5q-12 12 -29 12q-5 3 -25.5 6t-25.5 4q-33 7 -56 0q-40 -13 -88 3t-48 39q0 33 49 38q36 4 43 4.5t10 3t4 2.5t3 5q15 39 24 98.5t20 111.5q-39 0 -53.5 0.5t-29.5 6.5q-24 0 -35 20q-18 25 31 33q42 6 105 8q21 67 43 112q95 194 165 206q26 8 58.5 -1.5 t50.5 -27.5q2 11 20 -15t20 -40l10 -26q3 -2 3 -19q-5 -28 -26 -44q-21 -13 -46.5 -3t-22.5 39q4 49 -22 56q-9 6 -18.5 4.5t-28.5 -16.5q-9 -16 -23 -28q-13 -22 -32 -59t-53 -137z" />
<glyph unicode="&#xa4;" horiz-adv-x="450" d="M416 328q3 44 -46 49q-21 3 -40.5 -6t-28.5 -17.5t-13.5 -16t-16.5 -29.5q-21 -30 -26.5 -56t9.5 -35q12 -18 61 -15q95 51 101 126zM461.5 53q-15.5 0 -32.5 16q-35 26 -58 72q3 11 -9 5q-4 -2 -9 -5q-53 -23 -77 -19q-11 4 -14.5 3.5t-13.5 -10.5q-3 -11 -38 -43 q-6 -16 -12 -22q-11 -11 -9 -17q-5 -5 -29.5 -13.5t-26.5 -1.5q-5 -4 -11.5 3t-8.5 16.5t2 14.5q3 4 6 4q-7 7 3.5 25t20.5 27q0 2 3 6.5t4 10.5q10 7 23 7q0 11 3 14t4 4.5t4.5 3t8 7t2.5 8.5t-4 2q-13 21 -17 23q-6 58 2 83q2 0 3 6q3 20 9 26q-1 3 4 9l10 10q2 3 2 7 q4 8 13 22q3 7 5.5 12.5t3.5 8.5t2 5t0 4q-1 6 -2 11q-20 16 -35 37.5t-11 32.5l-7 11q-16 23 6 48q12 14 17 7q14 0 22 -16q8 -13 17 -22q4 0 10 -12q11 -21 23 -29.5t16 -10t4.5 -2.5t1 -1t1.5 1l2 2q3 6 10 9q5 7 18.5 4t23.5 -2l28 -2l34 46q60 77 76 47q7 -2 13 -17 t4.5 -17t-2.5 -3.5t-2.5 -3.5t-2.5 -4.5t-3 -5.5t-4 -7t-11 -20t-11 -21q-11 -3 -13.5 -10.5t-3.5 -9.5q4 -8 15 -17q12 -5 16 -36q8 -6 12 -26t1 -23l-4 -11q3 -7 -16 -45t-42 -65l-17 -20l13 -14q7 -13 27 -32t28 -19q5 -1 6 -25t-5 -32.5t-21.5 -8.5z" />
<glyph unicode="&#xa5;" horiz-adv-x="450" d="M456 114q-69 0 -137 -4q-20 -65 -23 -73q-18 -68 -31 -93t-27 -20q-6 1 -39 24q-9 9 -9 16t0.5 11.5t1 7.5t2.5 9.5t3 10.5t3 13t4 15q0 34 15 77q-33 -1 -64.5 -1t-46.5 5q-26 0 -37 20q-18 24 32 33q62 9 137 12q10 31 25 70h-79q-20 0 -35 5q-25 0 -36 20 q-19 25 33 34q65 8 102 10q-33 53 -40 107q-15 51 -9 162q0 27 6 45q12 32 21 50q29 25 45 -5t15 -80q6 -202 40 -230q4 -4 11 -1t10 3.5t11 8.5t13 13.5t17 19t32 34t63 70.5q104 123 130 135q11 5 29 10q6 -2 9.5 -14.5t6 -16.5t6.5 -9q10 -12 9.5 -18.5t-42.5 -48.5 q-22 -19 -70 -69t-76 -85q-41 -48 -69 -77h28q55 0 73.5 -18t10.5 -34.5t-30 -12.5l-78 -5l-65 -2l-12 -51l-6 -18h63q57 0 75 -17.5t9.5 -34.5t-30.5 -13z" />
<glyph unicode="&#xa6;" horiz-adv-x="330" d="M254 208q-83 -279 -83 -311.5t-24 -44.5q-29 -8 -44 28.5t-3 91.5q11 29 11 42q3 16 29 97.5t43 130.5q4 9 22.5 5.5t37 -15t13.5 -19.5zM375 751q0 16 16 16q5 5 16 5l16 -16q34 -31 34 -46q0 -18 -6 -31.5t-9 -20.5t-12 -25.5t-14.5 -31t-25 -57.5t-36 -83.5 t-16.5 -40.5t-1.5 -6.5t-4.5 -11.5q-6 -16 -20 -47q-5 -19 -43 -5t-39 29q0 3 16 39.5t72.5 179.5t56.5 153z" />
<glyph unicode="&#xa7;" horiz-adv-x="385" d="M323 303q-17 19 -24 29q-9 -7 -44 -45q-11 -13 -13 -28l18 -5q22 -19 49.5 -11.5t31.5 28.5q-8 2 -18 32zM339.5 429q0.5 -7 0.5 -16t10 -29t18 -21q10 -22 32 -42q68 -112 -49 -140q-49 -12 -89 7q7 -9 10 -11q13 -22 32 -37q67 -115 -57 -139q-39 -9 -73 0.5t-49 35.5 q-7 13 -7 26t7 18q10 0 22 -5t17 -7q23 -14 52.5 -6t33.5 27q0 1 -7.5 13.5t-10.5 21.5q-31 30 -48 66.5t-17 62.5q-6 17 5.5 40.5t28.5 39.5q16 24 63 58q-9 22 -9 40q-5 16 6 45t27 51q44 49 124 87q45 0 62 -5q10 -4 23 -27t16 -41q0 -5 -6.5 -24.5t-8.5 -27.5t-5.5 -16 t-6 -13t-2.5 -7q-1 -10 -12.5 -11.5t-23.5 5t-17 17.5q-8 32 -3 45q17 20 6 20q-3 0 -10.5 -0.5t-28.5 -16t-37 -39.5q-16 -18 -17.5 -28t-1 -17z" />
<glyph unicode="&#xa8;" horiz-adv-x="353" d="M421 548q29 21 54 -24q10 -24 6.5 -38.5t-26.5 -40.5q-34 -46 -65 -16q-9 8 -15 24.5t-4 22.5q8 37 32 57q2 1 5 5q8 10 13 10zM266 548q29 21 54 -24q10 -24 6.5 -38.5t-26.5 -40.5q-34 -46 -65 -16q-9 8 -15 24.5t-4 22.5q8 37 32 57q2 1 5 5q7 10 13 10z" />
<glyph unicode="&#xa9;" horiz-adv-x="496" d="M415 217l-16 -3q-18 0 -45 -11q-12 0 -13 -0.5t-18.5 5.5t-25 7t-22.5 20q-31 47 1 123q8 27 50 76q6 7 17 20q12 7 49 16q24 -1 56 -34.5t27 -47.5q0 -1 -6.5 -8.5t-8.5 -11.5q-4 -9 -23.5 -3.5t-20.5 17.5q-13 18 -26 18q-21 0 -31 -34q-12 -14 -15 -27q-14 -60 -3 -67 q18 -6 30.5 -1t50.5 34q10 7 30 -21q7 -11 11 -12q-1 -16 -17 -32.5t-31 -22.5zM510 409q0 11 -38 64q-66 50 -126 25q-97 -29 -124 -138q-14 -46 -15 -60.5t12 -37.5q-2 -11 2.5 -25t5 -20t22.5 -33t39 -31q16 -14 50 -8t75 29q26 12 57 38.5t30 39.5q-2 5 0 11t6 7 q14 12 18.5 55.5t-5 62.5t-9.5 21zM595 346v-7q6 -8 1 -52t-10 -45q-5 -2 -2.5 -3.5t-3.5 -8.5q-14 -21 -28 -23q-2 -3 3 -4q4 -2 -14.5 -22t-47.5 -43.5t-51 -30.5l-8 -9q-7 -10 -34 -18.5t-47 -6.5q-145 -3 -184 109q-12 20 -16 42t-5.5 26.5t-2 9t-1.5 8t-0.5 24.5 t1.5 25q6 4 2 11q-8 19 20.5 87.5t39.5 75.5q1 0 1 3.5t2 3.5q12 18 104 66q133 65 233 -77q3 -11 13 -27.5t10 -20.5q14 -21 21 -51.5t3 -34.5q1 -2 1 -7z" />
<glyph unicode="&#xaa;" horiz-adv-x="350" d="M369 579q-33 0 -108 -126q-12 -20 -23 -56q22 0 104 76q20 18 38 42l20 32q-15 32 -31 32zM174 338q-12 9 -12 11.5t-4.5 10t-8.5 10.5q-12 15 56 139q5 5 13.5 18.5t10.5 15.5q0 9 10 9l6 14q4 8 35.5 38.5t49.5 41.5t37.5 10.5t27.5 -7.5t17.5 -15t21.5 -18 q14 -12 54 -47l-15 -44q-21 -60 10 -108q10 -19 31 -22.5t21 -19.5q0 -37 -23 -41q-69 -10 -105 56q-12 17 -16 39q-6 -9 -20 -23q-121 -122 -182 -83q-3 6 -15 15z" />
<glyph unicode="&#xab;" horiz-adv-x="646" d="M624 427q-3 -29 -11.5 -36.5t-26.5 -20.5q-36 -29 -86.5 -74t-59 -58.5t-5.5 -32.5q25 -56 128 -114q40 -20 57 -55.5t-4 -41.5q-39 -4 -78 14q-21 12 -30 16t-17 8.5t-12 7.5t-9 7q-10 7 -18 17q-54 31 -88 93l-31 42l-7 38q9 2 15.5 16t11 19t17 16t42 35t55.5 46 q34 25 74 65q20 22 26 22q9 3 20 -4.5t19 -10.5q16 -6 18 -14zM414 427q-3 -29 -11.5 -36.5t-26.5 -20.5q-36 -29 -86.5 -74t-59.5 -58.5t-6 -32.5q25 -56 129 -114q40 -20 57 -55.5t-4 -41.5q-39 -4 -78 14q-21 12 -30 16t-17 8.5t-12 7.5t-9 7q-10 7 -18 17q-54 31 -88 93 l-32 42l-7 38q10 2 19 23q6 11 21.5 24.5t45.5 38.5t55 46q34 25 74 65q20 22 26 22q9 3 20 -4.5t20 -10.5q16 -6 18 -14z" />
<glyph unicode="&#xac;" horiz-adv-x="465" d="M427 313q44 0 62 -17q20 -21 8 -33q3 -33 3 -71.5t-18.5 -58.5t-39.5 -15t-17 27l-8 95q-101 -7 -222 -7q-20 0 -35 5q-14 0 -18 7t-7 14t-6.5 11.5t-4 9.5t4.5 8q10 7 46 11q63 14 252 14z" />
<glyph unicode="&#xad;" horiz-adv-x="326" d="M137 230q95 17 143.5 17t67 -18t10.5 -34.5t-30 -12.5q-126 -10 -148.5 -10t-37.5 5q-26 0 -37 20q-18 24 32 33z" />
<glyph unicode="&#xae;" horiz-adv-x="496" d="M402 378v9q4 8 -3 13q-9 10 -17 12q-3 -3 -6 -5.5t-7 -6.5q-1 -14 -6 -16q-21 -67 -13 -69q10 3 15 8t8.5 16t4.5 12q6 3 13.5 13t8.5 10q2 2 2 4zM316 450q0 7 18.5 13t40 4t26.5 -6q12 -1 30 -11t18 -13q14 -13 18 -49q0 -21 -14 -40q-14 -27 -42 -46l-12 -13 q1 -5 15 -15t23 -14q9 4 13 0t1 -20q-8 -17 -21.5 -26t-25.5 0q-15 3 -23.5 11.5t-16.5 18t-19 19.5q0 1 -14 2l-8 -21q0 -12 -6 -33q-10 -21 -25 -18t-28 19.5t-9.5 33t17.5 52.5q0 22 4 22q7 44 35 81q0 11 1 15q2 7 -4.5 15t8.5 19zM510 409q0 11 -38 64q-66 50 -126 25 q-97 -29 -124 -138q-14 -46 -15 -60.5t12 -37.5q-2 -11 2.5 -25t5 -20t22.5 -33t39 -31q16 -14 50 -8t75 29q26 12 57 38.5t30 39.5q-2 5 0 11t6 7q14 12 18.5 55.5t-5 62.5t-9.5 21zM595 346v-7q6 -8 1 -52t-10 -45q-5 -2 -2.5 -3.5t-3.5 -8.5q-14 -21 -28 -23q-2 -3 3 -4 q4 -2 -14.5 -22t-47.5 -43.5t-51 -30.5l-8 -9q-7 -10 -34 -18.5t-47 -6.5q-145 -3 -184 109q-12 20 -16 42t-5.5 26.5t-2 9t-1.5 8t-0.5 24.5t1.5 25q6 4 2 11q-8 19 20.5 87.5t39.5 75.5q1 0 1 3.5t2 3.5q12 18 104 66q133 65 233 -77q3 -11 13 -27.5t10 -20.5 q14 -21 21 -51.5t3 -34.5q1 -2 1 -7z" />
<glyph unicode="&#xaf;" horiz-adv-x="353" d="M278 513q63 14 116.5 14t76.5 -20q15 -15 7 -31.5t-30 -13.5l-150 -9q-20 0 -35 5q-25 0 -36 19q-10 15 2 23.5t49 12.5z" />
<glyph unicode="&#xb0;" horiz-adv-x="283" d="M302.5 635.5q-21.5 -30.5 -21.5 -83t44 -62.5q25 0 54.5 28t28.5 74q-1 68 -50 72q-34 2 -55.5 -28.5zM343 740q57 0 103.5 -39.5t46.5 -98.5q0 -33 -9 -58t-17.5 -35.5t-25 -30t-29.5 -31.5t-35.5 -26.5t-40.5 -14.5q-99 0 -126 80q-8 14 -13 41.5t-5 36.5t12 44 q19 54 46 79q12 12 29 23.5t21 15.5q31 14 43 14z" />
<glyph unicode="&#xb1;" d="M402 82q57 0 75 -17.5t9.5 -34.5t-30.5 -13q-156 -10 -286 -10q-20 0 -35 5q-25 0 -36 20q-19 25 33 34l18 2q63 14 252 14zM328 245l1 -51q0 -19 -5 -33q0 -24 -20 -35q-15 -10 -23.5 2t-12.5 47q-6 25 -9 68q-38 -1 -73.5 -1t-50.5 5q-25 0 -36 20q-19 25 33 34l18 2 q34 7 105 10q-1 17 -1 59.5t17.5 59.5t34.5 9.5t13 -28.5l6 -97q32 1 82.5 1t69 -18t10 -34.5t-30.5 -12.5q-109 -7 -128 -7z" />
<glyph unicode="&#xb2;" horiz-adv-x="320" d="M201 419q21 25 21 30l14 10h-2l21 21h-1q17 26 19 30t8 11q42 42 44 51q6 8 12 11l19 17q2 5 23 26q12 29 13.5 31.5t-1.5 3.5q-17 6 -38.5 6t-43.5 -15q-11 -2 -22 -8t-20 -4l-24 31l-12 28l37 16q75 46 109 32l22 -4q12 -2 33.5 -18t32.5 -36t11 -43t-29 -64 q-7 -9 -44 -50.5t-46 -50.5q-15 -10 -36.5 -32.5t-19.5 -22.5l3 -2q68 23 90 16q21 6 66 -9q8 -3 11 -8.5t8.5 -10.5t10.5 -11.5t8 -14.5t-2 -12q-14 -11 -59 -5l-58 -6h-6q-21 3 -46 -6t-67 -16.5t-48.5 -5t-18 15t-15.5 20.5q0 6 9.5 27t13.5 21z" />
<glyph unicode="&#xb3;" horiz-adv-x="320" d="M386 446v10q0 18 -49 37q-26 10 -43 12q-2 -1 -4 -1t-4 0.5t-3.5 1t-4 2t-4 2.5t-5 3.5t-6 4.5t-5 8t-4.5 12t-7 14q-2 15 80 65q75 45 86 56h-1q4 6 7.5 10t-0.5 5q-37 4 -41 -1q-6 2 -28.5 -2.5t-23.5 -7.5t-23.5 -6.5t-27.5 -2.5t-13.5 22.5t-8.5 30.5q4 6 24.5 21 t33.5 21q38 10 101 7h1q35 -4 62 -25t33 -49q5 -31 -37 -73q-15 -10 -24 -15q-23 -11 -44 -30l-7 -5l-32 -14l50 -18q24 -13 44 -46q6 -11 8 -14q10 -27 10 -49t-19 -50q-52 -77 -163 -84q-46 0 -69.5 15.5t-22 33.5t13 29t31.5 9q86 -21 122 21q17 19 17 40z" />
<glyph unicode="&#xb4;" horiz-adv-x="353" d="M329 478l1 10q2 9 43 53t55 49q8 4 15 6q13 0 25.5 -14t12.5 -37q0 -14 -43.5 -49.5t-53.5 -50.5t-25 -15q-30 0 -30 48z" />
<glyph unicode="&#xb5;" horiz-adv-x="370" d="M225 377q36 0 36 -33q0 -25 -31 -103.5t-32 -98.5q0 -30 27 -30q45 0 104 143q9 34 9 46.5t17 38.5t32 26q2 0 6 -2l19 -2q3 3 9 -9l11 -26q1 -5 1 -16q0 -40 -28 -102.5t-28 -96t28 -55.5q13 -11 13 -33q-6 -16 -23.5 -28t-32 -12t-28 19t-18.5 37.5t-5 35.5v19 q-6 -13 -44.5 -46t-64 -33t-41.5 19q-60 -196 -75 -215l-4 -3q-9 -9 -17 -9q-16 0 -27 23t-11 35.5t16 62.5q53 166 64.5 226.5t41.5 125.5q39 77 49 87q7 9 27 9z" />
<glyph unicode="&#xb6;" horiz-adv-x="424" d="M398 264q0 2 1 6t2 10.5t3 11t6 12.5q5 12 10 26l11 16q-5 0 5.5 21t12 27t3 14.5t3.5 15.5q29 61 38 76q12 38 12 47q-42 9 -47 -9l-24 -41q-5 -13 -19 -44t-17 -41q-17 -34 -28 -63q-17 -34 -23 -57q-2 -4 -28 -68t-40 -86q-2 -6 -4.5 -19t-3.5 -16t-52 -143 q-8 -12 -14 -15t-24 0q-43 37 -31 53q0 1 11 32q24 85 51 128q2 6 6 22q10 36 30 63l15 48q-5 1 -21 1t-38 4q-65 24 -53 113q1 3 5.5 18t6 19.5t6.5 17.5t8.5 19.5t9.5 16.5q11 18 28 30q74 53 152 84q40 0 89 7q160 -13 152 -52q-4 -19 -7.5 -24t-17 -36.5t-25.5 -54 t-31 -75.5q-13 -24 -27 -64q-7 -12 -13 -23q-4 -26 -31 -78q-30 -71 -34 -94q-3 -6 -14.5 -34t-19.5 -42l-12 -42h-46q-2 1 -7 3q-12 5 -17 11q-3 11 2 39q17 32 19 33q4 3 5.5 17t16.5 37l8 26q0 6 11.5 28t15.5 38q11 30 14 30z" />
<glyph unicode="&#xb7;" horiz-adv-x="187" d="M176 353q12 8 31 2.5t29 -21.5q18 -39 -17 -81q-15 -20 -37.5 -26t-35.5 6q-5 4 -10 19q-11 31 -5 37q8 1 22 21t13.5 30.5t9.5 12.5z" />
<glyph unicode="&#xb8;" horiz-adv-x="353" d="M176 60l56 -30q-56 -27 -56 -47q6 -9 20 -25q29 -35 33 -52q9 -34 -14 -63.5t-56 -36t-113 20.5q-15 5 -21.5 23t4 30.5t37.5 4.5q65 -22 79 -15q7 4 11 12q8 14 -15 41q-5 5 -11 12t-25 25q-10 14 -11 25.5t18 32t64 42.5z" />
<glyph unicode="&#xb9;" horiz-adv-x="320" d="M357.5 721.5q3.5 2.5 21 16.5t49 29.5t36.5 14t21 -16t18.5 -24t-11.5 -48t-34.5 -109.5t-22.5 -75t-2 -9q-8 -22 -14 -51q-17 -41 -25 -89q-16 -46 -20 -50q-8 -29 -48 -7q-13 9 -15 13q-10 24 -2 51l18 77q5 2 23 66t28 88q5 13 22 65q-6 -4 -20.5 -18.5t-25.5 -23.5 q-26 -17 -35 -24q-27 -24 -30 -26q-35 -32 -52 -20q-13 11 -21.5 29t-3.5 27q3 1 34.5 26.5t34.5 26.5t22 17h-1q8 8 27 22.5t22 17t6.5 5z" />
<glyph unicode="&#xba;" horiz-adv-x="283" d="M376 509q5 13 5 35t-5 25h1q-19 12 -47.5 -16t-63.5 -114q-7 -30 -7 -35q0 -25 15 -25q24 0 54 36q31 40 48 94zM179 416q2 2 2 3l6 2q-2 5 -3 8q1 12 10 41.5t30 67t56 71.5t84 47q19 7 28 5.5t21 -14.5q18 -10 33 -34t17 -47q6 -69 -42 -148q-31 -48 -89 -89h1 q-36 -28 -76 -31q-22 0 -61 39q-13 15 -16 25.5t0 28.5v18l2 -1q-5 5 -1 9z" />
<glyph unicode="&#xbb;" horiz-adv-x="708" d="M392 19q3 14 13.5 23t93.5 84t91.5 89.5t6.5 26.5q-27 60 -136 121q-44 22 -62.5 52t1.5 35q58 5 96 -12q21 -12 30 -16t17 -8.5t12 -7.5t9 -7q10 -7 18 -17q54 -31 88 -93l24 -42l7 -30q-10 -2 -16.5 -19t-7.5 -17q-17 -21 -120 -109q-34 -25 -74 -65q-20 -22 -26 -22 q-4 -2 -21 9.5t-25 13.5q-18 4 -19 11zM171 19q3 14 13.5 23t22.5 20q14 13 83.5 76t78 77.5t6.5 26.5q-27 60 -136 121q-44 22 -62 52t2 35q57 5 95 -12q21 -12 30 -16t17 -8.5t12 -7.5t9 -7q10 -7 18 -17q54 -31 88 -93l24 -42l7 -30q-10 -2 -16.5 -19t-7.5 -17 q-19 -23 -119 -109q-34 -25 -74 -65q-20 -22 -26 -22q-4 -2 -21 9.5t-25 13.5q-18 4 -19 11z" />
<glyph unicode="&#xbc;" horiz-adv-x="800" d="M851 393h6q18 0 20 -19v6q28 -28 22 -45q-1 -4 -43 -103.5t-57.5 -151t-18.5 -65.5t2 -29q1 -26 -27 -41q-29 -16 -41 4q-20 15 -10 67q3 24 8.5 47.5t6.5 28.5l13 37q-7 -2 -22 -8q-21 -5 -36.5 -5t-33.5 8q-27 12 -36 52q-6 22 0 29q21 53 22 55.5t1 6.5q7 16 43 71 q37 59 47 69q9 6 25.5 11t23.5 0q10 -9 13.5 -25.5t0.5 -20.5q-1 -4 -17 -30l-10 -9h1q-43 -67 -65 -114q-10 -28 -9 -29q10 -1 26 4q23 7 30 7t13 4q12 0 12 5h4q0 2 1 15l7 19l12 22q16 35 20 42q26 69 28 72.5t4.5 6t4.5 3.5q3 3 9 3zM279.5 621.5q3.5 2.5 21 16.5 t49 29.5t36.5 14t21 -16t18.5 -24t-11.5 -48t-34.5 -109.5t-22.5 -75t-2 -9q-8 -22 -14 -51q-17 -41 -25 -89q-16 -46 -20 -50q-8 -29 -48 -7q-13 9 -15 13q-10 24 -2 51l18 77q5 2 23 66.5t28 87.5q5 15 22 65q-6 -4 -20.5 -18.5t-25.5 -23.5q-26 -17 -35 -24 q-27 -24 -30 -26q-35 -32 -52 -20q-13 11 -21.5 29t-3.5 27q3 1 34.5 26.5t34.5 26.5t22 17h-1q8 8 27 22.5t22 17t6.5 5zM810 677q7 4 16 0q15 -17 24 -31q12 -18 -5 -44q-11 -16 -21 -24q-35 -28 -115.5 -106t-80.5 -80q-10 -8 -21 -22q-70 -62 -72 -70q-7 -9 -12 -11 l-7 -6q0 -9 -33 -40q-163 -197 -172 -218.5t-21.5 -32.5t-21.5 -13q-33 3 -38.5 31t30.5 82q20 22 23 30q18 25 160 185q4 -1 9 3.5t10 17.5t18 15q1 3 6 8.5t5.5 8t4.5 6t5 6.5q26 22 155 154.5t134 142.5q4 13 20 8z" />
<glyph unicode="&#xbd;" horiz-adv-x="800" d="M545 69q21 25 21 30l14 10h-2l21 21h-1q17 26 19 30t8 11q42 42 44 51q6 8 12 11l19 17q2 5 23 26q12 29 13.5 31.5t-1.5 3.5q-17 6 -38.5 6t-43.5 -15q-11 -2 -22 -8t-20 -4l-24 31l-12 28l37 16q75 46 109 32l22 -4q12 -2 33.5 -18t32.5 -36t11 -43t-29 -64 q-7 -9 -44 -50.5t-46 -50.5q-15 -10 -36.5 -32.5t-19.5 -22.5l3 -2q6 6 43 12.5t47 3.5q21 6 66 -9q8 -3 11 -8.5t8.5 -10.5t10.5 -11.5t8 -14.5t-2 -12q-14 -11 -59 -5l-58 -6h-6q-21 3 -46 -6t-67 -16.5t-48.5 -5t-18 15t-15.5 20.5q0 6 9.5 27t13.5 21zM279.5 621.5 q3.5 2.5 21 16.5t49 29.5t36.5 14t21 -16t18.5 -24t-11.5 -48t-34.5 -109.5t-22.5 -75t-2 -9q-8 -22 -14 -51q-17 -41 -25 -89q-16 -46 -20 -50q-8 -29 -48 -7q-13 9 -15 13q-10 24 -2 51l18 77q5 2 23 66.5t28 87.5q5 15 22 65q-6 -4 -20.5 -18.5t-25.5 -23.5 q-26 -17 -35 -24q-27 -24 -30 -26q-35 -32 -52 -20q-13 11 -21.5 29t-3.5 27q3 1 34.5 26.5t34.5 26.5t22 17h-1q8 8 27 22.5t22 17t6.5 5zM780 677q7 4 16 0q15 -17 24 -31q12 -18 -5 -44q-11 -16 -21 -24q-35 -28 -115.5 -106t-80.5 -80q-10 -8 -21 -22q-70 -62 -72 -70 q-7 -9 -12 -11l-7 -6q0 -9 -33 -40q-163 -197 -172 -218.5t-21.5 -32.5t-21.5 -13q-33 3 -38.5 31t30.5 82q20 22 23 30q18 25 160 185q4 -1 9 3.5t10 17.5t18 15q1 3 6 8.5t5.5 8t4.5 6t5 6.5q26 22 155 154.5t134 142.5q4 13 20 8z" />
<glyph unicode="&#xbe;" horiz-adv-x="800" d="M821 393h6q17 0 20 -18v5q28 -28 22 -45q-1 -4 -43 -103.5t-57.5 -151t-18.5 -65.5t2 -29q1 -26 -27 -41q-29 -16 -41 4q-20 15 -10 67q3 24 8.5 47.5t6.5 28.5l13 37q-7 -2 -22 -8q-21 -5 -36.5 -5t-33.5 8q-27 12 -36 52q-6 22 0 29q21 53 22 55.5t1 6.5q7 16 43 71 q37 59 47 69q9 6 25.5 11t23.5 0q10 -9 13.5 -25.5t0.5 -20.5q-1 -4 -17 -30l-10 -9h1q-43 -67 -65 -114q-10 -28 -9 -29q10 -1 26 4q23 7 30 7t13 4q12 0 12 5h4q0 2 1 15l7 19l12 22q16 35 20 42q26 69 28 72.5t4.5 6t4.5 3.5q3 3 9 3zM820 677q7 4 16 0q15 -17 24 -31 q12 -18 -5 -44q-11 -16 -21 -24q-35 -28 -115.5 -106t-80.5 -80q-10 -8 -21 -22q-70 -62 -72 -70q-7 -9 -12 -11l-7 -6q0 -9 -33 -40q-163 -197 -172 -218.5t-21.5 -32.5t-21.5 -13q-33 3 -38.5 31t30.5 82q20 22 23 30q18 25 160 185q4 -1 9 3.5t10 17.5t18 15q1 3 6 8.5 t5.5 8t4.5 6t5 6.5q26 22 155 154.5t134 142.5q4 13 20 8zM305 347v11q0 17 -49 36q-26 10 -43 12q-2 -1 -4 -1t-4 0.5t-3.5 1t-4 2t-4 2.5t-5 3.5t-6 4.5t-5 8t-4.5 13q-2 5 -7 13q-2 15 80 65q75 45 86 56h-1q4 6 7.5 10t-0.5 4q-37 5 -41 0q-6 2 -28.5 -2.5t-23.5 -7.5 t-23.5 -6.5t-27.5 -2.5t-13.5 22.5t-8.5 30.5q4 6 24.5 21t33.5 21q38 10 101 7h1q35 -4 62 -25t32 -50q6 -30 -36 -72q-15 -10 -24 -15q-23 -11 -44 -30l-7 -5l-32 -14l50 -18q24 -13 43 -46q7 -11 9 -14q10 -27 10 -49t-19 -50q-52 -77 -163 -84q-46 0 -69.5 15.5 t-22 33.5t13 29t31.5 9q86 -21 122 21q17 19 17 40z" />
<glyph unicode="&#xbf;" horiz-adv-x="374" d="M374 413q-19 -13 -29 -13.5t-29 7.5q-34 21 -30 46.5t44 45.5q39 15 66 -6q40 -39 -22 -80zM244 -37l-5 35q1 0 8 2.5t13 3.5t15 2q17 0 32 -12q19 -25 20.5 -30.5t2 -8.5t0 -10.5t-0.5 -12.5q-32 -97 -94 -129l-57 -30q-9 0 -33 -3q-4 1 -9 0q-12 -1 -12 4h-29 q-18 5 -45 22.5t-38 29.5q-15 45 4 124t58 122q1 1 36 33t48 46q32 18 58.5 54.5t40.5 76.5q19 40 50 40q15 -1 22.5 -12t7.5 -25q5 -27 1 -37t-9.5 -22t-8.5 -21q-11 -19 -33.5 -44.5t-39.5 -37.5l-17 -12q0 -4 -14 -15t-24 -16q-23 -16 -33 -25q-31 -32 -41 -58t-23 -91 q-1 -32 3 -41.5t17 -19.5q83 -15 125 79q8 24 4 39z" />
<glyph unicode="&#xc0;" horiz-adv-x="502" d="M506 864q19 -7 42.5 -60.5t24 -62.5t-6 -18.5t-14.5 -11.5q-12 -8 -16.5 -5t-10.5 21q-4 8 -23 37q-43 64 -29 81q24 21 33 19zM450 323h2q3 9 16 101t14 124l-3 50q-9 0 -41 -47.5t-62 -107.5q-23 -41 -32 -41q-7 -7 -30 -47t-18 -44q40 8 65 9q64 17 80 10q5 -7 9 -7z M411 663q22 30 48.5 30t58.5 -24q42 -30 46 -59q1 -6 1 -17t-0.5 -22t-2 -28t-2.5 -29.5t-3 -33.5t-3 -37t-12 -121q-22 -216 -17 -307q1 -7 0 -18t-1 -12q-9 -10 -46 -4t-40 20q-5 4 -5 9l9 233l-13 -1q-20 0 -84.5 -8t-81.5 -13q-21 0 -45 -43q-6 -15 -15.5 -31.5 t-9.5 -18.5l-16 -19q0 -11 -19.5 -56.5t-38.5 -74.5l-27 -38l-35 27q-16 8 -19 17.5t5.5 30t27 56t27.5 53.5q43 82 43 121q-4 15 15 24q1 1 12 9q28 21 39 40q21 49 102 186q48 88 102 159z" />
<glyph unicode="&#xc1;" horiz-adv-x="502" d="M568 855q17 10 41 -28q4 -10 -14 -28t-44.5 -39.5t-34.5 -32.5q-10 -17 -15.5 -19t-17.5 6q-7 6 -10.5 19.5t-2 21t42.5 51.5t55 49zM450 323h2q3 9 16 101t14 124l-3 50q-9 0 -41 -47.5t-62 -107.5q-23 -41 -32 -41q-7 -7 -30 -47t-18 -44q40 8 65 9q64 17 80 10 q5 -7 9 -7zM411 663q22 30 48.5 30t58.5 -24q42 -30 46 -59q1 -6 1 -17t-0.5 -22t-2 -28t-2.5 -29.5t-3 -33.5t-3 -37t-12 -121q-22 -216 -17 -307q1 -7 0 -18t-1 -12q-9 -10 -46 -4t-40 20q-5 4 -5 9l9 233l-13 -1q-20 0 -84.5 -8t-81.5 -13q-21 0 -45 -43 q-6 -15 -15.5 -31.5t-9.5 -18.5l-16 -19q0 -11 -19.5 -56.5t-38.5 -74.5l-27 -38l-35 27q-16 8 -19 17.5t5.5 30t27 56t27.5 53.5q43 82 43 121q-4 15 15 24q1 1 12 9q28 21 39 40q21 49 102 186q48 88 102 159z" />
<glyph unicode="&#xc2;" horiz-adv-x="502" d="M388 740q2 9 9 18t40.5 38t52.5 39q19 16 31 -2q16 -13 44.5 -42t37.5 -41t-4 -30q-14 -20 -41 13q-20 24 -54 53q-17 -10 -49.5 -38t-41.5 -31t-14.5 0t-9 8.5t-1.5 14.5zM450 323h2q3 9 16 101t14 124l-3 50q-9 0 -41 -47.5t-62 -107.5q-23 -41 -32 -41q-7 -7 -30 -47 t-18 -44q40 8 65 9q64 17 80 10q5 -7 9 -7zM411 663q22 30 48.5 30t58.5 -24q42 -30 46 -59q1 -6 1 -17t-0.5 -22t-2 -28t-2.5 -29.5t-3 -33.5t-3 -37t-12 -121q-22 -216 -17 -307q1 -7 0 -18t-1 -12q-9 -10 -46 -4t-40 20q-5 4 -5 9l9 233l-13 -1q-20 0 -84.5 -8t-81.5 -13 q-21 0 -45 -43q-6 -15 -15.5 -31.5t-9.5 -18.5l-16 -19q0 -11 -19.5 -56.5t-38.5 -74.5l-27 -38l-35 27q-16 8 -19 17.5t5.5 30t27 56t27.5 53.5q43 82 43 121q-4 15 15 24q1 1 12 9q28 21 39 40q21 49 102 186q48 88 102 159z" />
<glyph unicode="&#xc3;" horiz-adv-x="502" d="M650 766q-66 -37 -76 -37t-16 1t-9.5 2t-10.5 5t-9 5t-11 7.5t-10.5 7.5t-21.5 18t-30.5 17t-23 -17t-22.5 -18q-2 -13 -10 -16q-10 2 -17 9.5t-6 17t17 31.5t46 37q13 5 34 -0.5t31.5 -14.5t19 -17.5t11.5 -11t9.5 -7t10.5 -5.5q16 -2 47.5 16t43 22.5t19.5 -4.5 t7 -16.5t-8 -17.5t-15 -14zM450 323h2q3 9 16 101t14 124l-3 50q-9 0 -41 -47.5t-62 -107.5q-23 -41 -32 -41q-7 -7 -30 -47t-18 -44q40 8 65 9q64 17 80 10q5 -7 9 -7zM411 663q22 30 48.5 30t58.5 -24q42 -30 46 -59q1 -6 1 -17t-0.5 -22t-2 -28t-2.5 -29.5t-3 -33.5 t-3 -37t-12 -121q-22 -216 -17 -307q1 -7 0 -18t-1 -12q-9 -10 -46 -4t-40 20q-5 4 -5 9l9 233l-13 -1q-20 0 -84.5 -8t-81.5 -13q-21 0 -45 -43q-6 -15 -15.5 -31.5t-9.5 -18.5l-16 -19q0 -11 -19.5 -56.5t-38.5 -74.5l-27 -38l-35 27q-16 8 -19 17.5t5.5 30t27 56 t27.5 53.5q43 82 43 121q-4 15 15 24q1 1 12 9q28 21 39 40q21 49 102 186q48 88 102 159z" />
<glyph unicode="&#xc4;" horiz-adv-x="502" d="M457 828q16 16 28.5 9.5t17.5 -22.5q8 -15 6 -24.5t-16 -27.5q-34 -46 -59 4q-5 10 -3 15q9 31 20 40zM585 828q16 16 28.5 9.5t17.5 -22.5q8 -15 6 -24.5t-16 -27.5q-34 -46 -59 4q-5 10 -3 15q9 31 20 40zM450 323h2q3 9 16 101t14 124l-3 50q-9 0 -41 -47.5 t-62 -107.5q-23 -41 -32 -41q-7 -7 -30 -47t-18 -44q40 8 65 9q64 17 80 10q5 -7 9 -7zM411 663q22 30 48.5 30t58.5 -24q42 -30 46 -59q1 -6 1 -17t-0.5 -22t-2 -28t-2.5 -29.5t-3 -33.5t-3 -37t-12 -121q-22 -216 -17 -307q1 -7 0 -18t-1 -12q-9 -10 -46 -4t-40 20 q-5 4 -5 9l9 233l-13 -1q-20 0 -84.5 -8t-81.5 -13q-21 0 -45 -43q-6 -15 -15.5 -31.5t-9.5 -18.5l-16 -19q0 -11 -19.5 -56.5t-38.5 -74.5l-27 -38l-35 27q-16 8 -19 17.5t5.5 30t27 56t27.5 53.5q43 82 43 121q-4 15 15 24q1 1 12 9q28 21 39 40q21 49 102 186 q48 88 102 159z" />
<glyph unicode="&#xc5;" horiz-adv-x="502" d="M537 814q-38 0 -38 -50q0 -11 8.5 -22.5t16.5 -11.5q40 0 38.5 42t-25.5 42zM480.5 823.5q19.5 31.5 51.5 31.5t53 -15t21 -49t-21.5 -67.5t-56.5 -33.5q-60 0 -67 70q0 32 19.5 63.5zM450 323h2q3 9 16 101t14 124l-3 50q-9 0 -41 -47.5t-62 -107.5q-23 -41 -32 -41 q-7 -7 -30 -47t-18 -44q40 8 65 9q64 17 80 10q5 -7 9 -7zM411 663q22 30 48.5 30t58.5 -24q42 -30 46 -59q1 -6 1 -17t-0.5 -22t-2 -28t-2.5 -29.5t-3 -33.5t-3 -37t-12 -121q-22 -216 -17 -307q1 -7 0 -18t-1 -12q-9 -10 -46 -4t-40 20q-5 4 -5 9l9 233l-13 -1 q-20 0 -84.5 -8t-81.5 -13q-21 0 -45 -43q-6 -15 -15.5 -31.5t-9.5 -18.5l-16 -19q0 -11 -19.5 -56.5t-38.5 -74.5l-27 -38l-35 27q-16 8 -19 17.5t5.5 30t27 56t27.5 53.5q43 82 43 121q-4 15 15 24q1 1 12 9q28 21 39 40q21 49 102 186q48 88 102 159z" />
<glyph unicode="&#xc6;" horiz-adv-x="784" d="M513 419q49 88 58 106q-11 11 -67 7q-3 5 -27 -20t-32.5 -36t-15.5 -22q-21 -31 -39 -57q-76 -100 -58 -110q107 6 123 5q1 4 5.5 8t12.5 28q0 11 6 25q15 25 15 33q15 22 19 33zM717 81l30 9q8 11 15.5 11t16.5 -8.5t18 -23.5t9 -30t-117 -61q-42 -18 -58.5 -23t-56 -5 t-69 5.5t-52.5 23.5q-71 53 -37 181q5 25 11 44h-2q-19 -3 -154 5l-16 -21q-21 -25 -47 -74.5t-50 -77.5q-35 -54 -52.5 -54t-27.5 9q-47 22 -2 76l16 21q1 6 38 63.5t46 61.5q21 20 2 38q-5 5 -6.5 17.5t11 25t34.5 11.5q21 10 21.5 14.5t21 35.5t35.5 47q9 18 34 56 q7 7 20.5 27t19.5 28q11 9 53 58q4 7 41 51q43 42 161 2q55 23 122 28q9 6 49 7.5t75 -1.5q23 0 61 -18q1 -1 5.5 -5t7 -6.5t6 -7.5t5 -8.5t1.5 -8.5q0 -8 -13 -15q-7 -7 -66 -7t-94 -6t-38 -6q-16 -6 -43 -6h-9q-4 0 -23 -37.5t-19.5 -47.5t-18.5 -36q-34 -47 -16 -58 q90 14 135 14q25 7 44 -4q17 -4 16 -22t-12 -23q-13 -14 -113 -37.5t-113 -20.5q-9 20 -21 -20l-10 -39q-18 -40 -22 -52.5t-12 -57.5q-16 -58 42 -85q41 -8 106 9q4 2 61 34z" />
<glyph unicode="&#xc7;" horiz-adv-x="482" d="M269.5 26q5.5 0 14 3t15 5t17.5 6t17 7t19 9q70 29 94 51q26 19 42 19q13 4 20.5 -8t7.5 -29.5t-19 -37t-45 -34.5q-11 -11 -49 -26q-69 -51 -138 -58q-12 -10 -12 -22q6 -9 19 -25q30 -35 34 -52q9 -34 -14 -63.5t-56 -36t-113 20.5q-15 5 -21.5 23t4 30.5t37.5 4.5 q65 -22 79 -15q7 4 11 12q8 14 -15 41q-5 5 -10.5 12t-25.5 25q-23 33 12 63q-49 29 -65.5 72.5t-14.5 117.5q0 89 31 169q1 2 14 33.5t18 41.5q17 39 60 101q56 85 86.5 116.5t98.5 78.5q23 17 56.5 21t67.5 -12.5t49 -53.5q22 -40 -2 -118.5t-66 -117.5q-30 -19 -70 17 q-12 22 -10 23t4 1q9 11 26.5 42.5t21.5 45.5t6.5 25t3.5 17t2 12.5t1.5 9.5t-0.5 7q0 5 -7 12t-35 -8q-49 -21 -117 -113q-87 -114 -108 -178l-11 -26q3 -16 -12 -46q-17 -70 -12 -129q5 -73 36 -85q5 -2 11.5 -1.5t12 0.5z" />
<glyph unicode="&#xc8;" horiz-adv-x="548" d="M528 864q19 -7 42.5 -60.5t24 -62.5t-6 -18.5t-14.5 -11.5q-12 -8 -16.5 -5t-10.5 21q-4 8 -23 37q-43 64 -29 81q24 21 33 19zM264 52l40 -3q24 0 42 8q78 13 110 36q5 2 9.5 7t8.5 5q-1 -2 -1 -2.5t19 16t41.5 21.5t36 1.5t14.5 -8.5q9 -16 -22 -55q-92 -114 -304 -117 q-29 3 -52 17t-29 18t-20.5 14t-17.5 12q-30 30 -41 88q-6 26 5 79t25 83q22 53 97 170l6 8q0 7 29 62q25 27 14 42q-7 9 38 47q20 17 42 29q23 18 46.5 20.5t26.5 -9.5q9 -3 33.5 2.5t32.5 6.5q7 9 67 16l70 2q7 2 20.5 -9t21 -28.5t-11.5 -31t-70 -19.5t-91.5 -14.5 t-56 -11.5t-20 -4t-14.5 -4.5t-15 -7.5q-16 -15 -27 -32q-9 -6 -40 -68q-7 -10 -31.5 -42.5t-19.5 -38.5q27 -6 32 -6q8 4 48 11q136 35 156 38q13 10 27.5 -1t23 -34.5t-9.5 -34.5t-85.5 -26.5t-104.5 -25.5t-58 -15t-38 -6t-25 3t-7 14q-11 5 -25 -25q-25 -53 -25 -108 q0 -15 3 -23q17 -49 77 -66z" />
<glyph unicode="&#xc9;" horiz-adv-x="548" d="M590 855q17 10 41 -28q4 -10 -14 -28t-44.5 -39.5t-34.5 -32.5q-10 -17 -15.5 -19t-17.5 6q-7 6 -10.5 19.5t-2 21t42.5 51.5t55 49zM264 52l40 -3q24 0 42 8q78 13 110 36q5 2 9.5 7t8.5 5q-1 -2 -1 -2.5t19 16t41.5 21.5t36 1.5t14.5 -8.5q9 -16 -22 -55 q-92 -114 -304 -117q-29 3 -52 17t-29 18t-20.5 14t-17.5 12q-30 30 -41 88q-6 26 5 79t25 83q22 53 97 170l6 8q0 7 29 62q25 27 14 42q-7 9 38 47q20 17 42 29q23 18 46.5 20.5t26.5 -9.5q9 -3 33.5 2.5t32.5 6.5q7 9 67 16l70 2q7 2 20.5 -9t21 -28.5t-11.5 -31 t-70 -19.5t-91.5 -14.5t-56 -11.5t-20 -4t-14.5 -4.5t-15 -7.5q-16 -15 -27 -32q-9 -6 -40 -68q-7 -10 -31.5 -42.5t-19.5 -38.5q27 -6 32 -6q8 4 48 11q136 35 156 38q13 10 27.5 -1t23 -34.5t-9.5 -34.5t-85.5 -26.5t-104.5 -25.5t-58 -15t-38 -6t-25 3t-7 14 q-11 5 -25 -25q-25 -53 -25 -108q0 -15 3 -23q17 -49 77 -66z" />
<glyph unicode="&#xca;" horiz-adv-x="548" d="M450 740q2 9 9 18t40.5 38t52.5 39q19 16 31 -2q16 -13 44.5 -42t37.5 -41t-4 -30q-14 -20 -41 13q-20 24 -54 53q-17 -10 -49.5 -38t-41.5 -31t-14.5 0t-9 8.5t-1.5 14.5zM264 52l40 -3q24 0 42 8q78 13 110 36q5 2 9.5 7t8.5 5q-1 -2 -1 -2.5t19 16t41.5 21.5t36 1.5 t14.5 -8.5q9 -16 -22 -55q-92 -114 -304 -117q-29 3 -52 17t-29 18t-20.5 14t-17.5 12q-30 30 -41 88q-6 26 5 79t25 83q22 53 97 170l6 8q0 7 29 62q25 27 14 42q-7 9 38 47q20 17 42 29q23 18 46.5 20.5t26.5 -9.5q9 -3 33.5 2.5t32.5 6.5q7 9 67 16l70 2q7 2 20.5 -9 t21 -28.5t-11.5 -31t-70 -19.5t-91.5 -14.5t-56 -11.5t-20 -4t-14.5 -4.5t-15 -7.5q-16 -15 -27 -32q-9 -6 -40 -68q-7 -10 -31.5 -42.5t-19.5 -38.5q27 -6 32 -6q8 4 48 11q136 35 156 38q13 10 27.5 -1t23 -34.5t-9.5 -34.5t-85.5 -26.5t-104.5 -25.5t-58 -15t-38 -6 t-25 3t-7 14q-11 5 -25 -25q-25 -53 -25 -108q0 -15 3 -23q17 -49 77 -66z" />
<glyph unicode="&#xcb;" horiz-adv-x="548" d="M479 828q16 16 28.5 9.5t17.5 -22.5q8 -15 6 -24.5t-16 -27.5q-34 -46 -59 4q-5 10 -3 15q9 31 20 40zM607 828q16 16 28.5 9.5t17.5 -22.5q8 -15 6 -24.5t-16 -27.5q-34 -46 -59 4q-5 10 -3 15q9 31 20 40zM264 52l40 -3q24 0 42 8q78 13 110 36q5 2 9.5 7t8.5 5 q-1 -2 -1 -2.5t19 16t41.5 21.5t36 1.5t14.5 -8.5q9 -16 -22 -55q-92 -114 -304 -117q-29 3 -52 17t-29 18t-20.5 14t-17.5 12q-30 30 -41 88q-6 26 5 79t25 83q22 53 97 170l6 8q0 7 29 62q25 27 14 42q-7 9 38 47q20 17 42 29q23 18 46.5 20.5t26.5 -9.5q9 -3 33.5 2.5 t32.5 6.5q7 9 67 16l70 2q7 2 20.5 -9t21 -28.5t-11.5 -31t-70 -19.5t-91.5 -14.5t-56 -11.5t-20 -4t-14.5 -4.5t-15 -7.5q-16 -15 -27 -32q-9 -6 -40 -68q-7 -10 -31.5 -42.5t-19.5 -38.5q27 -6 32 -6q8 4 48 11q136 35 156 38q13 10 27.5 -1t23 -34.5t-9.5 -34.5 t-85.5 -26.5t-104.5 -25.5t-58 -15t-38 -6t-25 3t-7 14q-11 5 -25 -25q-25 -53 -25 -108q0 -15 3 -23q17 -49 77 -66z" />
<glyph unicode="&#xcc;" horiz-adv-x="400" d="M426 864q20 -7 43.5 -60.5t24 -62.5t-6 -18.5t-14.5 -11.5q-12 -8 -16.5 -5t-10.5 21q-4 8 -24 37q-42 64 -28 81q24 21 32 19zM235 -37q0 -10 -9 -16t-23.5 -3t-25.5 15q-13 18 -76 15q-21 -3 -42.5 7t-17.5 23q1 13 29.5 26.5t68.5 14.5l42 1q13 25 17.5 45t8 32.5 t17.5 56.5q33 102 37 122q15 32 33 107q46 140 38 143q-10 1 -53 -3.5t-48 -7.5q-5 -7 -17 2t-15 20q-4 22 6 28q10 9 51.5 20t80 15.5t58.5 21.5q21 7 35 6q12 -8 69 -4q92 9 108 -26q5 -19 -2 -31.5t-24 -11.5q-18 -5 -67 -6q-66 -6 -71 -14q-3 -3 -7 -9t-6 -8 q1 -9 -10.5 -43t-23.5 -73q-32 -98 -39 -112q-1 -4 -76 -269q25 2 81.5 7.5t60.5 2.5t8 -14q20 -27 -3 -45t-78 -17q-79 -3 -97 -5.5t-18 -12.5z" />
<glyph unicode="&#xcd;" horiz-adv-x="400" d="M489 855q17 10 41 -28q4 -10 -14 -28t-44.5 -39.5t-34.5 -32.5q-10 -17 -15.5 -19t-17.5 6q-7 6 -10.5 19.5t-2 21t42.5 51.5t55 49zM235 -37q0 -10 -9 -16t-23.5 -3t-25.5 15q-13 18 -76 15q-21 -3 -42.5 7t-17.5 23q1 13 29.5 26.5t68.5 14.5l42 1q13 25 17.5 45 t8 32.5t17.5 56.5q33 102 37 122q15 32 33 107q46 140 38 143q-10 1 -53 -3.5t-48 -7.5q-5 -7 -17 2t-15 20q-4 22 6 28q10 9 51.5 20t80 15.5t58.5 21.5q21 7 35 6q12 -8 69 -4q92 9 108 -26q5 -19 -2 -31.5t-24 -11.5q-18 -5 -67 -6q-66 -6 -71 -14q-3 -3 -7 -9t-6 -8 q1 -9 -10.5 -43t-23.5 -73q-32 -98 -39 -112q-1 -4 -76 -269q25 2 81.5 7.5t60.5 2.5t8 -14q20 -27 -3 -45t-78 -17q-79 -3 -97 -5.5t-18 -12.5z" />
<glyph unicode="&#xce;" horiz-adv-x="400" d="M349 740q2 9 9 18t40.5 38t52.5 39q19 16 31 -2q16 -13 44.5 -42t37.5 -41t-4 -30q-14 -20 -41 13q-20 24 -54 53q-17 -10 -49.5 -38t-41.5 -31t-14.5 0t-9 8.5t-1.5 14.5zM235 -37q0 -10 -9 -16t-23.5 -3t-25.5 15q-13 18 -76 15q-21 -3 -42.5 7t-17.5 23 q1 13 29.5 26.5t68.5 14.5l42 1q13 25 17.5 45t8 32.5t17.5 56.5q33 102 37 122q15 32 33 107q46 140 38 143q-10 1 -53 -3.5t-48 -7.5q-5 -7 -17 2t-15 20q-4 22 6 28q10 9 51.5 20t80 15.5t58.5 21.5q21 7 35 6q12 -8 69 -4q92 9 108 -26q5 -19 -2 -31.5t-24 -11.5 q-18 -5 -67 -6q-66 -6 -71 -14q-3 -3 -7 -9t-6 -8q1 -9 -10.5 -43t-23.5 -73q-32 -98 -39 -112q-1 -4 -76 -269q25 2 81.5 7.5t60.5 2.5t8 -14q20 -27 -3 -45t-78 -17q-79 -3 -97 -5.5t-18 -12.5z" />
<glyph unicode="&#xcf;" horiz-adv-x="400" d="M378 828q16 16 28.5 9.5t17.5 -22.5q8 -15 6 -24.5t-16 -27.5q-34 -46 -59 4q-5 10 -3 15q9 31 20 40zM506 828q16 16 28.5 9.5t17.5 -22.5q8 -15 6 -24.5t-16 -27.5q-34 -46 -59 4q-5 10 -3 15q9 31 20 40zM235 -37q0 -10 -9 -16t-23.5 -3t-25.5 15q-13 18 -76 15 q-21 -3 -42.5 7t-17.5 23q1 13 29.5 26.5t68.5 14.5l42 1q13 25 17.5 45t8 32.5t17.5 56.5q33 102 37 122q15 32 33 107q46 140 38 143q-10 1 -53 -3.5t-48 -7.5q-5 -7 -17 2t-15 20q-4 22 6 28q10 9 51.5 20t80 15.5t58.5 21.5q21 7 35 6q12 -8 69 -4q92 9 108 -26 q5 -19 -2 -31.5t-24 -11.5q-18 -5 -67 -6q-66 -6 -71 -14q-3 -3 -7 -9t-6 -8q1 -9 -10.5 -43t-23.5 -73q-32 -98 -39 -112q-1 -4 -76 -269q25 2 81.5 7.5t60.5 2.5t8 -14q20 -27 -3 -45t-78 -17q-79 -3 -97 -5.5t-18 -12.5z" />
<glyph unicode="&#xd0;" horiz-adv-x="578" d="M177 -6q-1 -4 -1 -9q18 -8 31 -6t36 3q53 2 69 15q55 36 105 79q2 5 21 12q5 5 30.5 31.5t29.5 29.5q1 5 3.5 13.5t2.5 12.5q12 13 36 62.5t33 85.5q36 157 -65 244q-21 18 -68.5 39t-52.5 19.5t-11.5 -17t-17.5 -45t-21.5 -58.5t-26 -73t-25.5 -72q42 -1 65 -20 q15 -15 7 -31.5t-30 -13.5l-65 -4q-21 -65 -21 -67q-29 -45 -43 -152q-2 -9 -4.5 -19t-4 -17l-3 -14t-3 -12t-2.5 -9q-2 -7 -4 -7zM157 346l35 7q28 95 44 125q2 5 7 23q12 44 29 87l7 33l-11 5q-18 -6 -27 0q-9 -3 -24.5 10t-17.5 23l-3 17q2 12 60.5 25.5t109 9 t126.5 -31.5q52 -20 107 -76t70 -118q6 -22 8.5 -56t-4.5 -47.5t2 -16.5q-2 -4 -8.5 -26t-9.5 -30q-3 -36 -23.5 -88.5t-38.5 -83.5q-6 -1 -7 -4q0 -5 -11 -19q-3 -2 -12.5 -14.5t-13.5 -15.5q-1 -7 -6 -11.5t-9 -4.5q0 -3 -3 -4q-18 -26 -71.5 -71.5t-90.5 -60.5 q-5 -4 -42 -21q-6 -6 -58.5 -10.5t-62.5 -6.5q-38 -6 -104 12q-15 3 -22 11t-8.5 9.5t-6 8t-7.5 9.5q-17 22 -12.5 52t30.5 34q7 1 19 -4q0 28 5.5 49.5t68.5 210.5q-15 0 -29 5q-25 0 -36 19q-10 15 2 23.5t49 12.5z" />
<glyph unicode="&#xd1;" horiz-adv-x="566" d="M625 766q-66 -37 -76 -37t-16 1t-9.5 2t-10.5 5t-9 5t-11 7.5t-10.5 7.5t-21.5 18t-30.5 17t-23 -17t-22.5 -18q-2 -13 -10 -16q-10 2 -17 9.5t-6 17t17 31.5t46 37q13 5 34 -0.5t31.5 -14.5t19 -17.5t11.5 -11t9.5 -7t9.5 -5.5q17 -2 48.5 16t43 22.5t19.5 -4.5t7 -16.5 t-8 -17.5t-15 -14zM459 63q27 0 98 287q17 57 26 132q32 121 32 134v22q4 0 8.5 13t4.5 33t14 34q16 27 45 18t33 -31.5t-27 -154.5q0 -12 -12.5 -66.5t-16.5 -77.5q-10 -65 -18 -63q-41 -176 -105 -322q-25 -57 -61.5 -71t-69.5 26q-30 39 -44 79.5t-23 116.5 q-21 133 -19 229t-8 97q-9 0 -26.5 -51t-43 -114.5t-26.5 -67.5q-18 -36 -27 -73q-40 -106 -58 -174.5t-25 -87t-15 -23.5t-34 8.5t-30.5 40.5t5.5 55q7 27 26 72.5t27 86.5q34 79 55 145q1 5 50 112q38 108 96 196q18 30 55 26t47 -34q20 -46 22 -198q0 -43 1 -62t3 -49 q2 -49 13 -91q2 -14 7 -57q12 -95 21 -95z" />
<glyph unicode="&#xd2;" horiz-adv-x="496" d="M500 864q20 -7 43.5 -60.5t24 -62.5t-6 -18.5t-14.5 -11.5q-12 -8 -16.5 -5t-10.5 21q-4 8 -24 37q-42 64 -28 81q24 21 32 19zM230 38q19 -10 42.5 -6.5t40.5 16t68.5 71.5t71.5 93.5t40.5 109t21.5 85.5t0 81q-2 48 -17 65q-33 35 -76 21q-29 -12 -85 -77t-55 -84 q0 -8 -5 -15q-26 -28 -53 -118q-34 -116 -30 -184q1 -40 36 -58zM397 649q47 28 65 21q123 -27 147 -156q17 -82 3.5 -149t-77.5 -172q-78 -154 -182.5 -215.5t-169.5 -12.5q-79 58 -82 96q-6 55 14 155q6 6 5 15.5t2 19.5t9 29.5t10 39.5q45 136 111 223q68 70 145 106z " />
<glyph unicode="&#xd3;" horiz-adv-x="496" d="M563 855q17 10 41 -28q4 -10 -14 -28t-44.5 -39.5t-34.5 -32.5q-10 -17 -15.5 -19t-17.5 6q-7 6 -10.5 19.5t-2 21t42.5 51.5t55 49zM230 38q19 -10 42.5 -6.5t40.5 16t68.5 71.5t71.5 93.5t40.5 109t21.5 85.5t0 81q-2 48 -17 65q-33 35 -76 21q-29 -12 -85 -77t-55 -84 q0 -8 -5 -15q-26 -28 -53 -118q-34 -116 -30 -184q1 -40 36 -58zM397 649q47 28 65 21q123 -27 147 -156q17 -82 3.5 -149t-77.5 -172q-78 -154 -182.5 -215.5t-169.5 -12.5q-79 58 -82 96q-6 55 14 155q6 6 5 15.5t2 19.5t9 29.5t10 39.5q45 136 111 223q68 70 145 106z " />
<glyph unicode="&#xd4;" horiz-adv-x="496" d="M423 740q2 9 9 18t40.5 38t52.5 39q19 16 31 -2q16 -13 44.5 -42t37.5 -41t-4 -30q-14 -20 -41 13q-20 24 -54 53q-17 -10 -49.5 -38t-41.5 -31t-14.5 0t-9 8.5t-1.5 14.5zM230 38q19 -10 42.5 -6.5t40.5 16t68.5 71.5t71.5 93.5t40.5 109t21.5 85.5t0 81q-2 48 -17 65 q-33 35 -76 21q-29 -12 -85 -77t-55 -84q0 -8 -5 -15q-26 -28 -53 -118q-34 -116 -30 -184q1 -40 36 -58zM397 649q47 28 65 21q123 -27 147 -156q17 -82 3.5 -149t-77.5 -172q-78 -154 -182.5 -215.5t-169.5 -12.5q-79 58 -82 96q-6 55 14 155q6 6 5 15.5t2 19.5t9 29.5 t10 39.5q45 136 111 223q68 70 145 106z" />
<glyph unicode="&#xd5;" horiz-adv-x="496" d="M645 766q-66 -37 -76 -37t-16 1t-9.5 2t-10.5 5t-9 5t-11 7.5t-10.5 7.5t-21.5 18t-30.5 17t-23 -17t-22.5 -18q-2 -13 -10 -16q-10 2 -17 9.5t-6 17t17 31.5t46 37q13 5 34 -0.5t31.5 -14.5t19 -17.5t11.5 -11t9.5 -7t9.5 -5.5q17 -2 48.5 16t43 22.5t19.5 -4.5t7 -16.5 t-8 -17.5t-15 -14zM230 38q19 -10 42.5 -6.5t40.5 16t68.5 71.5t71.5 93.5t40.5 109t21.5 85.5t0 81q-2 48 -17 65q-33 35 -76 21q-29 -12 -85 -77t-55 -84q0 -8 -5 -15q-26 -28 -53 -118q-34 -116 -30 -184q1 -40 36 -58zM397 649q47 28 65 21q123 -27 147 -156 q17 -82 3.5 -149t-77.5 -172q-78 -154 -182.5 -215.5t-169.5 -12.5q-79 58 -82 96q-6 55 14 155q6 6 5 15.5t2 19.5t9 29.5t10 39.5q45 136 111 223q68 70 145 106z" />
<glyph unicode="&#xd6;" horiz-adv-x="496" d="M452 828q16 16 28.5 9.5t17.5 -22.5q8 -15 6 -24.5t-16 -27.5q-34 -46 -59 4q-5 10 -3 15q9 31 20 40zM580 828q16 16 28.5 9.5t17.5 -22.5q8 -15 6 -24.5t-16 -27.5q-34 -46 -59 4q-5 10 -3 15q9 31 20 40zM230 38q19 -10 42.5 -6.5t40.5 16t68.5 71.5t71.5 93.5 t40.5 109t21.5 85.5t0 81q-2 48 -17 65q-33 35 -76 21q-29 -12 -85 -77t-55 -84q0 -8 -5 -15q-26 -28 -53 -118q-34 -116 -30 -184q1 -40 36 -58zM397 649q47 28 65 21q123 -27 147 -156q17 -82 3.5 -149t-77.5 -172q-78 -154 -182.5 -215.5t-169.5 -12.5q-79 58 -82 96 q-6 55 14 155q6 6 5 15.5t2 19.5t9 29.5t10 39.5q45 136 111 223q68 70 145 106z" />
<glyph unicode="&#xd7;" d="M288 258q23 25 60 62t62.5 37t31.5 -17t-12 -30l-52 -60l-39 -41q43 -40 67 -64q12 -10 21 -28q19 -17 12 -40q-4 -35 -62 11q-18 12 -85 71l-65 -66q-10 -12 -28 -21q-17 -18 -40 -11q-35 4 11 61q14 22 70 85l-58 56q-39 39 -39.5 65t17 32t30.5 -12q15 -15 59 -52 q1 -2 6 -7q17 -15 33 -31z" />
<glyph unicode="&#xd8;" horiz-adv-x="496" d="M271 398q-25 -26 -50 -107.5t-32 -150.5q148 230 165 247q4 -1 9 4.5t10 20.5t17 18q1 3 6 10t5.5 9.5t4.5 7t5 7.5q23 23 76 93q-29 32 -71 17q-29 -12 -85 -77t-55 -84q0 -8 -5 -15zM428 369q-4 2 -7 -7l-1 -2q0 -8 -31 -46q-101 -148 -179 -268q25 -19 52.5 -15 t44.5 16.5t68.5 71.5t71.5 93.5t46 125.5q2 6 9.5 34.5t7.5 45t-0.5 30.5t-0.5 25q-13 -13 -41 -50t-29 -39.5t-3 -5.5q-3 -8 -8 -9zM122 -101q-45 2 -38 51q4 29 30 71q-17 20 -19 40q-6 55 14 155q6 6 5 15.5t2 19.5t9 29.5t10 39.5q45 136 111 223q68 70 145 106 q47 28 65 21q49 -11 85 -41q39 55 41 61q4 15 21 9q3 2 17 2t19 -1q2 -6 12 -22.5t-3 -45.5q-6 -17 -15 -24q-30 -28 -45 -43q9 -23 15 -51q17 -82 3.5 -149t-77.5 -172q-78 -154 -182.5 -215.5t-169.5 -12.5l-12 9q-18 -30 -21 -38q-10 -35 -22 -37z" />
<glyph unicode="&#xd9;" horiz-adv-x="482" d="M486 864q19 -7 42.5 -60.5t24 -62.5t-6 -18.5t-14.5 -11.5q-12 -8 -16.5 -5t-10.5 21q-4 8 -23 37q-43 64 -29 81q24 21 33 19zM384.5 135q29.5 42 29.5 49t13 22q18 18 88 165q61 195 67 224.5t17 61.5q13 11 26 5.5t20 -9t14.5 -8t9.5 -5.5q9 -11 4 -33 q-26 -123 -43 -169.5t-29.5 -76.5t-19 -45.5t-22 -50.5t-21.5 -49v-6q-12 -7 -22 -25.5t-14 -20.5l-9 -23q-1 -6 -12 -12.5t-13.5 -13.5t-3.5 -9q-34 -51 -87 -98t-87.5 -60.5t-60.5 -7.5q-79 20 -101 99t10 236q15 73 51.5 174.5t76 171t73 63.5t44 -35t-14.5 -45 q-12 -13 -34 -56t-30 -58q-62 -178 -78 -268q-18 -83 -20.5 -98.5t-2.5 -42.5q2 -4 5.5 -10t5 -9.5t4.5 -7.5q3 -5 11 -8q36 -17 73 4q6 11 21 18q3 -4 4.5 -2.5t3.5 6.5q-1 5 9 15q15 6 44.5 48z" />
<glyph unicode="&#xda;" horiz-adv-x="482" d="M548 855q17 10 41 -28q4 -10 -14 -28t-44.5 -39.5t-34.5 -32.5q-10 -17 -15.5 -19t-17.5 6q-7 6 -10.5 19.5t-2 21t42.5 51.5t55 49zM384.5 135q29.5 42 29.5 49t13 22q18 18 88 165q61 195 67 224.5t17 61.5q13 11 26 5.5t20 -9t14.5 -8t9.5 -5.5q9 -11 4 -33 q-26 -123 -43 -169.5t-29.5 -76.5t-19 -45.5t-22 -50.5t-21.5 -49v-6q-12 -7 -22 -25.5t-14 -20.5l-9 -23q-1 -6 -12 -12.5t-13.5 -13.5t-3.5 -9q-34 -51 -87 -98t-87.5 -60.5t-60.5 -7.5q-79 20 -101 99t10 236q15 73 51.5 174.5t76 171t73 63.5t44 -35t-14.5 -45 q-12 -13 -34 -56t-30 -58q-62 -178 -78 -268q-18 -83 -20.5 -98.5t-2.5 -42.5q2 -4 5.5 -10t5 -9.5t4.5 -7.5q3 -5 11 -8q36 -17 73 4q6 11 21 18q3 -4 4.5 -2.5t3.5 6.5q-1 5 9 15q15 6 44.5 48z" />
<glyph unicode="&#xdb;" horiz-adv-x="482" d="M408 740q2 9 9 18t40.5 38t52.5 39q19 16 31 -2q16 -13 44.5 -42t37.5 -41t-4 -30q-14 -20 -41 13q-20 24 -54 53q-17 -10 -49.5 -38t-41.5 -31t-14.5 0t-9 8.5t-1.5 14.5zM384.5 135q29.5 42 29.5 49t13 22q18 18 88 165q61 195 67 224.5t17 61.5q13 11 26 5.5t20 -9 t14.5 -8t9.5 -5.5q9 -11 4 -33q-26 -123 -43 -169.5t-29.5 -76.5t-19 -45.5t-22 -50.5t-21.5 -49v-6q-12 -7 -22 -25.5t-14 -20.5l-9 -23q-1 -6 -12 -12.5t-13.5 -13.5t-3.5 -9q-34 -51 -87 -98t-87.5 -60.5t-60.5 -7.5q-79 20 -101 99t10 236q15 73 51.5 174.5t76 171 t73 63.5t44 -35t-14.5 -45q-12 -13 -34 -56t-30 -58q-62 -178 -78 -268q-18 -83 -20.5 -98.5t-2.5 -42.5q2 -4 5.5 -10t5 -9.5t4.5 -7.5q3 -5 11 -8q36 -17 73 4q6 11 21 18q3 -4 4.5 -2.5t3.5 6.5q-1 5 9 15q15 6 44.5 48z" />
<glyph unicode="&#xdc;" horiz-adv-x="482" d="M565 828q16 16 28.5 9.5t17.5 -22.5q8 -15 6 -24.5t-16 -27.5q-34 -46 -59 4q-5 10 -3 15q9 31 20 40zM437 828q16 16 28.5 9.5t17.5 -22.5q8 -15 6 -24.5t-16 -27.5q-34 -46 -59 4q-5 10 -3 15q9 31 20 40zM384.5 135q29.5 42 29.5 49t13 22q18 18 88 165 q61 195 67 224.5t17 61.5q13 11 26 5.5t20 -9t14.5 -8t9.5 -5.5q9 -11 4 -33q-26 -123 -43 -169.5t-29.5 -76.5t-19 -45.5t-22 -50.5t-21.5 -49v-6q-12 -7 -22 -25.5t-14 -20.5l-9 -23q-1 -6 -12 -12.5t-13.5 -13.5t-3.5 -9q-34 -51 -87 -98t-87.5 -60.5t-60.5 -7.5 q-79 20 -101 99t10 236q15 73 51.5 174.5t76 171t73 63.5t44 -35t-14.5 -45q-12 -13 -34 -56t-30 -58q-62 -178 -78 -268q-18 -83 -20.5 -98.5t-2.5 -42.5q2 -4 5.5 -10t5 -9.5t4.5 -7.5q3 -5 11 -8q36 -17 73 4q6 11 21 18q3 -4 4.5 -2.5t3.5 6.5q-1 5 9 15q15 6 44.5 48z " />
<glyph unicode="&#xdd;" horiz-adv-x="504" d="M545 856q17 10 41 -28q4 -10 -14 -28t-44.5 -39.5t-34.5 -32.5q-10 -17 -15.5 -19t-17.5 6q-7 6 -10.5 19.5t-2 21t42.5 51.5t55 49zM210.5 -24.5q0.5 4.5 1 7.5t2.5 9.5t3 10.5t3 13t4 15q2 60 30 111q0 31 31 105l11 34q-57 74 -66 142q-15 51 -9 162q0 27 7 45 q11 32 20 50q29 25 45 -5t15 -80q6 -202 40 -230q4 -4 11 -1t10 3.5t11 8.5t13 13.5t17 19t32 34t62 70.5q105 123 131 135q11 5 29 10q6 -2 9.5 -14.5t6 -16.5t6.5 -9q10 -12 9.5 -18.5t-42.5 -48.5q-22 -19 -70 -69t-76 -85q-91 -105 -121 -132q0 -2 -5 -2q-7 -23 -16 -66 q-6 -20 -17 -56q-15 -52 -32 -104q-18 -68 -31 -93t-27 -20q-6 1 -39 24q-9 9 -9 16t0.5 11.5z" />
<glyph unicode="&#xde;" horiz-adv-x="472" d="M483 416.5q6 40.5 -4 53.5t-31 17q-40 8 -82 -16q-15 -6 -67.5 -126.5t-47.5 -135.5q45 -1 76 14q59 29 130 126q20 27 26 67.5zM232 414q0 7 13 25q0 18 11 26q6 25 2 28q-9 26 16 27q5 0 10.5 10.5t7.5 11.5q52 136 52 147t13.5 15.5t24.5 4.5q5 5 16 5l16 -16 q11 -10 11 -26v-20q0 -11 -5.5 -23t-8.5 -17q-7 -17 -19 -41l33 6q40 0 72 -7q34 -16 57 -47t26 -56.5t-19.5 -93t-40.5 -81.5q10 1 -14 -23t-33 -27q-10 -23 -27 -32q-38 -24 -47 -38q0 11 -18 -4q-6 -5 -8 -6q-45 -27 -87 -35q-7 -6 -36 -6l-34 5l-16 -42 q-5 -21 -15.5 -56.5t-14 -53.5t-13 -34t-20 -23.5t-15.5 -3.5q-1 0 -7 3t-9.5 4.5t-10 5t-10.5 6.5q-9 8 -9 16q-6 11 17 91q52 178 57 177q5 27 16 41q2 15 11 38.5t18 31.5q0 11 17 49t20 38z" />
<glyph unicode="&#xdf;" horiz-adv-x="398" d="M405 341q-6 0 -14 -16.5t-4 -24.5l-5 -6q-6 0 -4.5 -7t3 -12t4.5 -11.5t5.5 -11.5t6 -11t4.5 -9q11 -1 29 -49q1 -17 3.5 -36.5t3.5 -32.5q-4 -43 -37 -72q-40 -35 -98 -35q-12 0 -29.5 5.5t-21.5 6.5q-28 10 -43 34.5t-4 43.5q3 5 9 5l11 1q41 0 49 -4t11 -4q5 0 12 9 l26 3q1 0 0.5 5t1 5.5t5.5 1.5t9 6.5t3 11.5q-2 31 -19 53q-14 36 -32 60.5t-22 29.5q-8 8 10 41q0 2 42 52.5t45 56.5q17 10 33 25t16 20q-5 14 14 38q15 26 17.5 33.5t-1.5 23.5q-38 23 -84 -31q-29 -36 -33 -37q-23 -30 -54 -89.5t-48 -109.5q4 -7 -2 -22.5t-16 -22.5 v-37l-6 -17q-7 0 -7 -1q-3 -22 -16.5 -56.5t-17 -49t-9.5 -59.5q-39 -116 -29 -146q-11 -39 -11 -81.5t-32 -39.5q-17 4 -35.5 20.5t-21.5 32.5v37q7 12 5 63q9 22 9 44q26 107 37 141q10 48 41 128q-2 13 10 46t27 55q6 36 26 76q-3 4 -1 25q15 9 17 22q0 3 37 52t57 73 q58 56 89 63t72 7q8 1 36 -16.5t35 -33.5q15 -35 7 -82q-9 -60 -53 -109q-16 -18 -21 -18q-15 -12 -22 -30q-5 -5 -14 -15.5t-11 -10.5z" />
<glyph unicode="&#xe0;" horiz-adv-x="437" d="M418 466.5q0 -10.5 -19 -28.5q-22 -20 -32 -20t-15 30q-3 11 -28.5 55t-25.5 59.5t17.5 29t28.5 13.5q21 0 47.5 -64t26.5 -74.5zM324 310q-37 0 -122 -143q-15 -24 -27 -63q16 -2 62 36q9 8 24.5 21t22.5 19t18 16q19 19 34 41l22 36q-17 37 -34 37zM89 49q0 9 -13 25 q-15 15 62 156q6 6 15.5 21t12.5 17q0 4 3 7.5t7 3.5l8 16q4 9 39 43t56 47t43 12t38 -14q2 -3 13 -11q19 -15 85 -74l-17 -50q-23 -66 12 -122q10 -21 34 -25t24 -22q0 -41 -27 -47q-78 -11 -117 64q-14 19 -18 44q-7 -10 -23 -26q-136 -138 -206 -93q-3 6 -17 16t-14 12z " />
<glyph unicode="&#xe1;" horiz-adv-x="437" d="M371 478l1 10q2 9 43 53t55 49q8 4 15 6q13 0 25.5 -14t12.5 -37q0 -14 -43.5 -49.5t-53.5 -50.5t-25 -15q-30 0 -30 48zM324 310q-37 0 -122 -143q-15 -24 -27 -63q16 -2 62 36q9 8 24.5 21t22.5 19t18 16q19 19 34 41l22 36q-17 37 -34 37zM89 49q0 9 -13 25 q-15 15 62 156q6 6 15.5 21t12.5 17q0 4 3 7.5t7 3.5l8 16q4 9 39 43t56 47t43 12t38 -14q2 -3 13 -11q19 -15 85 -74l-17 -50q-23 -66 12 -122q10 -21 34 -25t24 -22q0 -41 -27 -47q-78 -11 -117 64q-14 19 -18 44q-7 -10 -23 -26q-136 -138 -206 -93q-3 6 -17 16t-14 12z " />
<glyph unicode="&#xe2;" horiz-adv-x="437" d="M258 483q8 10 45 43q64 55 86 52q13 -2 20 -12q16 -13 44.5 -42t34.5 -36q14 -15 7 -35t-24 -24t-36 15q-20 24 -54 53q-41 -23 -80 -56q-24 -24 -42.5 -2t-0.5 44zM324 310q-37 0 -122 -143q-15 -24 -27 -63q16 -2 62 36q9 8 24.5 21t22.5 19t18 16q19 19 34 41l22 36 q-17 37 -34 37zM89 49q0 9 -13 25q-15 15 62 156q6 6 15.5 21t12.5 17q0 4 3 7.5t7 3.5l8 16q4 9 39 43t56 47t43 12t38 -14q2 -3 13 -11q19 -15 85 -74l-17 -50q-23 -66 12 -122q10 -21 34 -25t24 -22q0 -41 -27 -47q-78 -11 -117 64q-14 19 -18 44q-7 -10 -23 -26 q-136 -138 -206 -93q-3 6 -17 16t-14 12z" />
<glyph unicode="&#xe3;" horiz-adv-x="437" d="M511 457q-74 -41 -80.5 -41t-12.5 1t-9.5 2t-10.5 5t-9 5t-11 7.5t-10.5 7.5t-21.5 18t-30.5 17t-23 -17t-22.5 -18q-2 -13 -10 -16q-2 0 -3 1q-30 5 -30 35q0 13 17.5 38.5t47.5 40.5q41 15 69.5 -10.5t43.5 -33.5t33 0q11 3 36 15.5t36 17t21 -10.5t8 -25 q0 -24 -28 -39zM324 310q-37 0 -122 -143q-15 -24 -27 -63q16 -2 62 36q9 8 24.5 21t22.5 19t18 16q19 19 34 41l22 36q-17 37 -34 37zM89 49q0 9 -13 25q-15 15 62 156q6 6 15.5 21t12.5 17q0 4 3 7.5t7 3.5l8 16q4 9 39 43t56 47t43 12t38 -14q2 -3 13 -11q19 -15 85 -74 l-17 -50q-23 -66 12 -122q10 -21 34 -25t24 -22q0 -41 -27 -47q-78 -11 -117 64q-14 19 -18 44q-7 -10 -23 -26q-136 -138 -206 -93q-3 6 -17 16t-14 12z" />
<glyph unicode="&#xe4;" horiz-adv-x="437" d="M465 548q29 21 54 -24q10 -24 6.5 -38.5t-26.5 -40.5q-34 -46 -65 -16q-9 8 -15 24.5t-4 22.5q8 37 32 57q2 1 5 5q8 10 13 10zM310 548q29 21 54 -24q10 -24 6.5 -38.5t-26.5 -40.5q-34 -46 -65 -16q-9 8 -15 24.5t-4 22.5q8 37 32 57q2 1 5 5q7 10 13 10zM324 310 q-37 0 -122 -143q-15 -24 -27 -63q16 -2 62 36q9 8 24.5 21t22.5 19t18 16q19 19 34 41l22 36q-17 37 -34 37zM89 49q0 9 -13 25q-15 15 62 156q6 6 15.5 21t12.5 17q0 4 3 7.5t7 3.5l8 16q4 9 39 43t56 47t43 12t38 -14q2 -3 13 -11q19 -15 85 -74l-17 -50q-23 -66 12 -122 q10 -21 34 -25t24 -22q0 -41 -27 -47q-78 -11 -117 64q-14 19 -18 44q-7 -10 -23 -26q-136 -138 -206 -93q-3 6 -17 16t-14 12z" />
<glyph unicode="&#xe5;" horiz-adv-x="437" d="M416 529q-33 0 -33 -42q0 -9 7.5 -19t13.5 -10q34 0 34 40q-2 31 -22 31zM350.5 552.5q22.5 36.5 59 36.5t60.5 -17.5t24 -56.5t-25 -77t-64 -38q-68 0 -77 79q0 37 22.5 73.5zM324 310q-37 0 -122 -143q-15 -24 -27 -63q16 -2 62 36q9 8 24.5 21t22.5 19t18 16 q19 19 34 41l22 36q-17 37 -34 37zM89 49q0 9 -13 25q-15 15 62 156q6 6 15.5 21t12.5 17q0 4 3 7.5t7 3.5l8 16q4 9 39 43t56 47t43 12t38 -14q2 -3 13 -11q19 -15 85 -74l-17 -50q-23 -66 12 -122q10 -21 34 -25t24 -22q0 -41 -27 -47q-78 -11 -117 64q-14 19 -18 44 q-7 -10 -23 -26q-136 -138 -206 -93q-3 6 -17 16t-14 12z" />
<glyph unicode="&#xe6;" horiz-adv-x="574" d="M538 324q-13 0 -37.5 -21.5t-42.5 -49.5q2 -12 33 -12t39.5 4.5t29.5 25t22 28.5q0 22 -33 25h-11zM319 310q-23 0 -67 -56.5t-83 -149.5q26 -1 69 41q14 14 34 31q41 34 58 61l22 36q-17 37 -33 37zM545 397q58 0 85.5 -27.5t27.5 -53.5v-9q-2 -14 -2 -21 q-16 -40 -52.5 -77t-93.5 -37q-19 0 -38.5 4.5t-24.5 4.5q-24 0 -24 -38q0 -60 46 -60q44 0 83 37q13 13 23.5 13t22.5 -12.5t13 -22.5q-3 -23 -46 -60.5t-98.5 -37.5t-90.5 32.5t-35 91.5v13q-116 -127 -188 -127q-20 0 -35 9q-2 4 -11 11q-24 17 -24 19q0 5 -7 17.5 t-7 15.5q0 29 53 128l16 26q8 8 14 19.5t9.5 17.5t8.5 6l10 19q15 28 63.5 63t70.5 35.5t40 -13.5l63 -55q33 38 67 53.5t61 15.5z" />
<glyph unicode="&#xe7;" horiz-adv-x="355" d="M372.5 245q-11.5 -18 -21 -18t-9.5 -5.5t-10.5 -6t-22 4.5t-13.5 12q0 5 7 36.5t1.5 41t-24.5 1.5q-37 -21 -55.5 -54.5t-32 -85t-12.5 -63.5q2 -19 9 -23q30 -8 53 4t61 41q2 1 8.5 11t12.5 13q8 13 24 13h21q18 -6 29 -24q4 -9 0 -12l-5 -5q4 -8 -35 -47.5t-50 -39.5 t-11 -6q0 -4 -30.5 -18.5t-49.5 -18.5h-4q-4 -5 -4 -13q6 -9 19 -25q30 -35 34 -52q9 -34 -14 -63.5t-56 -36t-113 20.5q-15 5 -21.5 23t4 30.5t37.5 4.5q65 -22 79 -15q7 4 11 12q8 14 -15 41q-5 5 -11 12t-25 25q-19 27 0 51q-44 27 -44 77q-5 46 16.5 115t55.5 111 q51 61 79 72.5t60 11.5q55 -13 55 -34l5 -5q9 0 20 -31t3 -46q-4 -19 -15.5 -37z" />
<glyph unicode="&#xe8;" horiz-adv-x="325" d="M289 324q-13 0 -37.5 -21.5t-42.5 -49.5q2 -12 33 -12t39.5 4.5t29 25t21.5 28.5q0 22 -32 25h-11zM360 466.5q0 -10.5 -19 -28.5q-22 -20 -32 -20t-15 30q-3 11 -28.5 55t-25.5 59.5t17.5 29t28.5 13.5q21 0 47.5 -64t26.5 -74.5zM296 397q59 0 86 -28.5t27 -53.5v-8 q0 -21 -28 -69q-14 -25 -43 -44.5t-58 -20.5t-55.5 3.5t-32.5 4.5t-11 -7q-7 -11 -7 -41q3 -28 15.5 -39t30.5 -11t34 7t37.5 25t33.5 18t24 -12t13 -23q-3 -23 -46.5 -60.5t-98.5 -37.5t-90 32t-35 91q0 23 2.5 49t17.5 64t48 82t71 61.5t65 17.5z" />
<glyph unicode="&#xe9;" horiz-adv-x="325" d="M289 324q-13 0 -37.5 -21.5t-42.5 -49.5q2 -12 33 -12t39.5 4.5t29 25t21.5 28.5q0 22 -32 25h-11zM313 478l1 10q2 9 43 53t55 49q8 4 15 6q13 0 25.5 -14t12.5 -37q0 -14 -43.5 -49.5t-53.5 -50.5t-25 -15q-30 0 -30 48zM296 397q59 0 86 -28.5t27 -53.5v-8 q0 -21 -28 -69q-14 -25 -43 -44.5t-58 -20.5t-55.5 3.5t-32.5 4.5t-11 -7q-7 -11 -7 -41q3 -28 15.5 -39t30.5 -11t34 7t37.5 25t33.5 18t24 -12t13 -23q-3 -23 -46.5 -60.5t-98.5 -37.5t-90 32t-35 91q0 23 2.5 49t17.5 64t48 82t71 61.5t65 17.5z" />
<glyph unicode="&#xea;" horiz-adv-x="325" d="M289 324q-13 0 -37.5 -21.5t-42.5 -49.5q2 -12 33 -12t39.5 4.5t29 25t21.5 28.5q0 22 -32 25h-11zM200 483q8 10 45 43q64 55 86 52q13 -2 20 -12q16 -13 44.5 -42t34.5 -36q14 -15 7 -35t-24 -24t-36 15q-20 24 -54 53q-41 -23 -80 -56q-24 -24 -42.5 -2t-0.5 44z M296 397q59 0 86 -28.5t27 -53.5v-8q0 -21 -28 -69q-14 -25 -43 -44.5t-58 -20.5t-55.5 3.5t-32.5 4.5t-11 -7q-7 -11 -7 -41q3 -28 15.5 -39t30.5 -11t34 7t37.5 25t33.5 18t24 -12t13 -23q-3 -23 -46.5 -60.5t-98.5 -37.5t-90 32t-35 91q0 23 2.5 49t17.5 64t48 82 t71 61.5t65 17.5z" />
<glyph unicode="&#xeb;" horiz-adv-x="325" d="M289 324q-13 0 -37.5 -21.5t-42.5 -49.5q2 -12 33 -12t39.5 4.5t29 25t21.5 28.5q0 22 -32 25h-11zM252 548q29 21 54 -24q10 -24 6.5 -38.5t-26.5 -40.5q-34 -46 -65 -16q-9 8 -15 24.5t-4 22.5q8 37 32 57q2 1 5 5q7 10 13 10zM407 548q29 21 54 -24q10 -24 6.5 -38.5 t-26.5 -40.5q-34 -46 -65 -16q-9 8 -15 24.5t-4 22.5q8 37 32 57q2 1 5 5q7 10 13 10zM296 397q59 0 86 -28.5t27 -53.5v-8q0 -21 -28 -69q-14 -25 -43 -44.5t-58 -20.5t-55.5 3.5t-32.5 4.5t-11 -7q-7 -11 -7 -41q3 -28 15.5 -39t30.5 -11t34 7t37.5 25t33.5 18t24 -12 t13 -23q-3 -23 -46.5 -60.5t-98.5 -37.5t-90 32t-35 91q0 23 2.5 49t17.5 64t48 82t71 61.5t65 17.5z" />
<glyph unicode="&#xec;" horiz-adv-x="187" d="M91 96l4 21q-1 6 8 33q22 50 56 163q0 12 16 13q11 4 28 -9.5t28 -30.5q13 -13 -2.5 -47.5t-21.5 -67.5q-12 -27 -16 -39.5t-9 -41t-11 -37.5q-9 -39 -31.5 -48t-39.5 12q-11 11 -13.5 39.5t4.5 39.5zM279 466.5q0 -10.5 -19 -28.5q-22 -20 -32 -20t-15 30 q-3 11 -28.5 55t-25.5 59.5t17.5 29t27.5 13.5q22 0 48.5 -64t26.5 -74.5z" />
<glyph unicode="&#xed;" horiz-adv-x="187" d="M91 96l4 21q-1 6 8 33q22 50 56 163q0 12 16 13q11 4 28 -9.5t28 -30.5q13 -13 -2.5 -47.5t-21.5 -67.5q-12 -27 -16 -39.5t-9 -41t-11 -37.5q-9 -39 -31.5 -48t-39.5 12q-11 11 -13.5 39.5t4.5 39.5zM222 478l1 10q2 9 43 53t55 49q7 4 15 6q13 0 25.5 -14t12.5 -37 q0 -14 -43.5 -49.5t-53.5 -50.5t-25 -15q-30 0 -30 48z" />
<glyph unicode="&#xee;" horiz-adv-x="187" d="M129 483q8 10 45 43q64 55 86 52q13 -2 20 -12q16 -13 44.5 -42t34.5 -36q14 -15 7 -35t-24 -24t-36 15q-20 24 -54 53q-41 -23 -80 -56q-24 -24 -42.5 -2t-0.5 44zM91 96l4 21q-1 6 8 33q22 50 56 163q0 12 16 13q11 4 28 -9.5t28 -30.5q13 -13 -2.5 -47.5t-21.5 -67.5 q-12 -27 -16 -39.5t-9 -41t-11 -37.5q-9 -39 -31.5 -48t-39.5 12q-11 11 -13.5 39.5t4.5 39.5z" />
<glyph unicode="&#xef;" horiz-adv-x="187" d="M91 96l4 21q-1 6 8 33q22 50 56 163q0 12 16 13q11 4 28 -9.5t28 -30.5q13 -13 -2.5 -47.5t-21.5 -67.5q-12 -27 -16 -39.5t-9 -41t-11 -37.5q-9 -39 -31.5 -48t-39.5 12q-11 11 -13.5 39.5t4.5 39.5zM326 548q29 21 54 -24q10 -24 6.5 -38.5t-26.5 -40.5 q-34 -46 -65 -16q-9 8 -15 24.5t-4 22.5q8 37 32 57q2 1 5 5q7 10 13 10zM171 548q29 21 54 -24q10 -24 6.5 -38.5t-26.5 -40.5q-34 -46 -65 -16q-9 8 -15 24.5t-4 22.5q8 37 32 57q2 1 5 5q7 10 13 10z" />
<glyph unicode="&#xf0;" horiz-adv-x="349" d="M323 226q13 69 1 75q-32 18 -66 -18q-28 -26 -43.5 -56t-39.5 -91q-15 -42 11 -51t70 39q7 10 24 30q30 36 43 72zM317 458q-39 -12 -65 -9q-23 -6 -40 11q-26 24 43 46l34 15l-23 35q-7 7 -18 16q-21 20 -27 32q-1 4 20 22t29 19q6 4 22.5 -6t21.5 -16q4 4 22 -19 q31 -42 40 -58q59 14 81.5 0t17.5 -31.5t-28 -18.5l-44 -13q25 -82 15.5 -177.5t-50.5 -167.5q-32 -55 -94 -99.5t-94 -46.5q-17 -3 -39 16q-23 22 -40.5 48.5t-14.5 37.5q3 15 -1 28q-5 5 -2.5 8t3.5 4q6 1 3.5 10.5t6.5 40.5q15 46 43.5 87t45.5 55q42 42 96 60 q21 6 27 4.5t14.5 -9t10.5 -7.5q-7 54 -16 83z" />
<glyph unicode="&#xf1;" horiz-adv-x="450" d="M517 457q-74 -41 -80.5 -41t-12.5 1t-9.5 2t-10.5 5t-9 5t-11 7.5t-10.5 7.5t-21.5 18t-30.5 17t-23 -17t-22.5 -18q-2 -13 -10 -16q-2 0 -3 1q-30 5 -30 35q0 13 17.5 38.5t47.5 40.5q41 15 69.5 -10.5t43.5 -33.5t33 0q11 3 36 15.5t36 17t21 -10.5t8 -25 q0 -24 -28 -39zM375 95l5 68v16q-3 20 -13 20q-18 0 -67 -35q-88 -63 -132 -120q-9 -10 -14.5 -11.5t-16 -0.5t-28.5 20t-24 34q0 40 40 118q5 16 27.5 69.5t25.5 82.5l-1 1q0 10 10 10q2 3 20 3t37 -14t19 -39t-26 -77t-26 -54q16 11 61 46q103 83 127 83q13 0 36.5 -14.5 t27.5 -26.5l-4 -46l2 -55q0 -32 -4 -45l3 -6q-4 -4 8 -30t12 -32.5t-14.5 -20t-27.5 -15.5q-63 2 -63 71z" />
<glyph unicode="&#xf2;" horiz-adv-x="353" d="M375 466.5q0 -10.5 -19 -28.5q-22 -20 -32 -20t-15 30q-3 11 -28.5 55t-25.5 59.5t17.5 29t27.5 13.5q22 0 48.5 -64t26.5 -74.5zM313 210.5q4 11.5 7.5 17.5t4 30.5t-7.5 29.5q-11 5 -18 3t-23 -13q-76 -64 -91 -137q-3 -25 5.5 -37.5t28.5 -6.5t36 21.5t21 20.5t8.5 9 t7 11.5t5.5 11t5.5 12.5t5 12.5t5.5 15zM194 326q50 43 90 52q60 14 84 -11q39 -17 45 -71q8 -83 -55 -174q-37 -54 -102 -93q-26 -18 -92 -22q-17 0 -39 19q-45 47 -39 83l2 23q-5 5 -2.5 8t3.5 4q6 0 4 9.5t7 36.5t23 50q34 56 71 86z" />
<glyph unicode="&#xf3;" horiz-adv-x="353" d="M328 478l1 10q2 9 43 53t55 49q7 4 15 6q13 0 25.5 -14t12.5 -37q0 -14 -43.5 -49.5t-53.5 -50.5t-25 -15q-30 0 -30 48zM313 210.5q4 11.5 7.5 17.5t4 30.5t-7.5 29.5q-11 5 -18 3t-23 -13q-76 -64 -91 -137q-3 -25 5.5 -37.5t28.5 -6.5t36 21.5t21 20.5t8.5 9t7 11.5 t5.5 11t5.5 12.5t5 12.5t5.5 15zM194 326q50 43 90 52q60 14 84 -11q39 -17 45 -71q8 -83 -55 -174q-37 -54 -102 -93q-26 -18 -92 -22q-17 0 -39 19q-45 47 -39 83l2 23q-5 5 -2.5 8t3.5 4q6 0 4 9.5t7 36.5t23 50q34 56 71 86z" />
<glyph unicode="&#xf4;" horiz-adv-x="353" d="M215 483q8 10 45 43q64 55 86 52q13 -2 20 -12q16 -13 44.5 -42t34.5 -36q14 -15 7 -35t-24 -24t-36 15q-20 24 -54 53q-41 -23 -80 -56q-24 -24 -42.5 -2t-0.5 44zM313 210.5q4 11.5 7.5 17.5t4 30.5t-7.5 29.5q-11 5 -18 3t-23 -13q-76 -64 -91 -137q-3 -25 5.5 -37.5 t28.5 -6.5t36 21.5t21 20.5t8.5 9t7 11.5t5.5 11t5.5 12.5t5 12.5t5.5 15zM194 326q50 43 90 52q60 14 84 -11q39 -17 45 -71q8 -83 -55 -174q-37 -54 -102 -93q-26 -18 -92 -22q-17 0 -39 19q-45 47 -39 83l2 23q-5 5 -2.5 8t3.5 4q6 0 4 9.5t7 36.5t23 50q34 56 71 86z " />
<glyph unicode="&#xf5;" horiz-adv-x="353" d="M468 457q-74 -41 -80.5 -41t-12.5 1t-9.5 2t-10.5 5t-9 5t-11 7.5t-10.5 7.5t-21.5 18t-30.5 17t-23 -17t-22.5 -18q-2 -13 -7 -15.5t-6 0.5q-30 5 -30 35q0 13 17.5 38.5t47.5 40.5q41 15 69.5 -10.5t43.5 -33.5t33 0q11 3 36 15.5t36 17t21 -10.5t8 -25q0 -24 -28 -39z M313 210.5q4 11.5 7.5 17.5t4 30.5t-7.5 29.5q-11 5 -18 3t-23 -13q-76 -64 -91 -137q-3 -25 5.5 -37.5t28.5 -6.5t36 21.5t21 20.5t8.5 9t7 11.5t5.5 11t5.5 12.5t5 12.5t5.5 15zM194 326q50 43 90 52q60 14 84 -11q39 -17 45 -71q8 -83 -55 -174q-37 -54 -102 -93 q-26 -18 -92 -22q-17 0 -39 19q-45 47 -39 83l2 23q-5 5 -2.5 8t3.5 4q6 0 4 9.5t7 36.5t23 50q34 56 71 86z" />
<glyph unicode="&#xf6;" horiz-adv-x="353" d="M422 548q29 21 54 -24q10 -24 6.5 -38.5t-26.5 -40.5q-34 -46 -65 -16q-9 8 -15 24.5t-4 22.5q8 37 32 57q2 1 5 5q7 10 13 10zM267 548q29 21 54 -24q10 -24 6.5 -38.5t-26.5 -40.5q-34 -46 -65 -16q-9 8 -15 24.5t-4 22.5q8 37 32 57q2 1 5 5q8 10 13 10zM313 210.5 q4 11.5 7.5 17.5t4 30.5t-7.5 29.5q-11 5 -18 3t-23 -13q-76 -64 -91 -137q-3 -25 5.5 -37.5t28.5 -6.5t36 21.5t21 20.5t8.5 9t7 11.5t5.5 11t5.5 12.5t5 12.5t5.5 15zM194 326q50 43 90 52q60 14 84 -11q39 -17 45 -71q8 -83 -55 -174q-37 -54 -102 -93q-26 -18 -92 -22 q-17 0 -39 19q-45 47 -39 83l2 23q-5 5 -2.5 8t3.5 4q6 0 4 9.5t7 36.5t23 50q34 56 71 86z" />
<glyph unicode="&#xf7;" d="M281 355q0 8 1 11q11 12 20.5 34t15.5 32q12 25 44 10q22 -9 32 -25q18 -40 -16 -81q-15 -20 -37.5 -25.5t-34.5 3.5t-18.5 21t-6.5 20zM189 27q0 8 4.5 13.5t15.5 29t16 30.5q5 13 13 15q12 8 33.5 -1t31.5 -25q18 -40 -16 -81q-15 -20 -38 -25.5t-35 3t-18.5 21 t-6.5 20.5zM402 247q56 0 74.5 -18t10 -34.5t-30.5 -12.5q-156 -10 -286 -10q-20 0 -35 5q-25 0 -36 20q-19 25 33 34l18 2q63 14 252 14z" />
<glyph unicode="&#xf8;" horiz-adv-x="353" d="M313 272q8 4 30 21q-1 3 -4 6q-28 16 -68 -18q-27 -23 -41.5 -44.5t-32.5 -64.5q63 63 116 100zM341 249q-79 -62 -164 -147q1 -33 29.5 -27t69.5 51q55 61 65 123zM108 99q0 5 -2 12q-6 5 -3.5 8t2.5 4q8 2 2 11q-3 8 3.5 36.5t15.5 50.5q28 64 60 98q47 53 79 65 q44 18 77 -7q40 -12 58 -38q39 34 43 39q5 11 14 6t13 -16.5t-7 -22.5q-6 -12 -15 -18.5l-18 -13t-16 -11.5q13 -68 -32 -157q-34 -68 -77 -104.5t-107 -49.5q-17 -2 -41 13q-20 15 -36 41q-31 -31 -36 -39q-11 -21 -16 -21q-19 5 -15.5 25t29.5 46l24 24v8q1 6 1 11z" />
<glyph unicode="&#xf9;" horiz-adv-x="370" d="M364 468.5q0 -10.5 -19 -28.5q-22 -20 -32 -20t-15 30q-3 11 -28.5 55t-25.5 59.5t17.5 29t28.5 13.5q21 0 47.5 -64t26.5 -74.5zM306 89v15q-10 -25 -22 -34q-23 -23 -46 -34q-66 -42 -103 6q-40 33 -30 81q3 70 43 158q44 88 46 91q16 6 37.5 -0.5t23.5 -19.5 q6 -10 -0.5 -38.5t-23.5 -61.5q-40 -98 -41.5 -120.5t11.5 -26.5q11 -7 26.5 -1t41.5 39.5t45.5 80.5t22.5 83q-2 11 6 24t21 21q4 6 10.5 9.5t9.5 -0.5l16 1q2 0 9 -9.5t10 -11.5q28 -24 -14 -123q-57 -120 -12 -159q16 -11 13 -52q-4 -14 -29.5 -15t-40.5 10 q-14 13 -28 68q-2 6 -2 19z" />
<glyph unicode="&#xfa;" horiz-adv-x="370" d="M293 475l1 10q2 9 43 53t55 49q8 5 15 6q13 0 25.5 -14t12.5 -37q0 -14 -43.5 -49.5t-53.5 -50.5t-25 -15q-30 0 -30 48zM306 89v15q-10 -25 -22 -34q-23 -23 -46 -34q-66 -42 -103 6q-40 33 -30 81q3 70 43 158q44 88 46 91q16 6 37.5 -0.5t23.5 -19.5q6 -10 -0.5 -38.5 t-23.5 -61.5q-40 -98 -41.5 -120.5t11.5 -26.5q11 -7 26.5 -1t41.5 39.5t45.5 80.5t22.5 83q-2 11 6 24t21 21q4 6 10.5 9.5t9.5 -0.5l16 1q2 0 9 -9.5t10 -11.5q28 -24 -14 -123q-57 -120 -12 -159q16 -11 13 -52q-4 -14 -29.5 -15t-40.5 10q-14 13 -28 68q-2 6 -2 19z" />
<glyph unicode="&#xfb;" horiz-adv-x="370" d="M225 483q8 10 45 43q64 55 86 52q13 -2 20 -12q16 -13 44.5 -42t34.5 -36q14 -15 7 -35t-24 -24t-36 15q-20 24 -54 53q-41 -23 -80 -56q-24 -24 -42.5 -2t-0.5 44zM306 89v15q-10 -25 -22 -34q-23 -23 -46 -34q-66 -42 -103 6q-40 33 -30 81q3 70 43 158q44 88 46 91 q16 6 37.5 -0.5t23.5 -19.5q6 -10 -0.5 -38.5t-23.5 -61.5q-40 -98 -41.5 -120.5t11.5 -26.5q11 -7 26.5 -1t41.5 39.5t45.5 80.5t22.5 83q-2 11 6 24t21 21q4 6 10.5 9.5t9.5 -0.5l16 1q2 0 9 -9.5t10 -11.5q28 -24 -14 -123q-57 -120 -12 -159q16 -11 13 -52 q-4 -14 -29.5 -15t-40.5 10q-14 13 -28 68q-2 6 -2 19z" />
<glyph unicode="&#xfc;" horiz-adv-x="370" d="M432 548q29 21 54 -24q10 -24 6.5 -38.5t-26.5 -40.5q-34 -46 -65 -16q-9 8 -15 24.5t-4 22.5q8 37 32 57q2 1 5 5q7 10 13 10zM277 548q29 21 54 -24q10 -24 6.5 -38.5t-26.5 -40.5q-34 -46 -65 -16q-9 8 -15 24.5t-4 22.5q8 37 32 57q2 1 5 5q8 10 13 10zM306 89v15 q-10 -25 -22 -34q-23 -23 -46 -34q-66 -42 -103 6q-40 33 -30 81q3 70 43 158q44 88 46 91q16 6 37.5 -0.5t23.5 -19.5q6 -10 -0.5 -38.5t-23.5 -61.5q-40 -98 -41.5 -120.5t11.5 -26.5q11 -7 26.5 -1t41.5 39.5t45.5 80.5t22.5 83q-2 11 6 24t21 21q4 6 10.5 9.5t9.5 -0.5 l16 1q2 0 9 -9.5t10 -11.5q28 -24 -14 -123q-57 -120 -12 -159q16 -11 13 -52q-4 -14 -29.5 -15t-40.5 10q-14 13 -28 68q-2 6 -2 19z" />
<glyph unicode="&#xfd;" horiz-adv-x="341" d="M287 478l1 10q2 9 43 53t55 49q8 4 15 6q13 0 25.5 -14t12.5 -37q0 -14 -43.5 -49.5t-53.5 -50.5t-25 -15q-30 0 -30 48zM-32 -117q15 0 22 -4q38 -26 71.5 -19.5t70.5 57.5q42 67 64 107q-21 12 -40 40.5t-16 39.5v11q-11 0 -14.5 62t-0.5 87.5t7 91.5q-1 26 18 39 q36 16 53.5 -16.5t12.5 -105.5q-9 -136 19 -168q9 24 15 30q14 29 15 34.5t5 13t20 39.5q26 75 32 85.5t9.5 18t5.5 11.5t5 9.5t5 8.5t5 6q4 5 9 7q16 12 36 1q15 -15 21 -24q14 -24 -12 -72q-18 -53 -32 -69q-33 -76 -59.5 -129t-38.5 -84q-64 -102 -90 -133 q-66 -60 -100 -66q-52 -11 -98.5 3.5t-53.5 40.5q-6 20 6.5 33.5t27.5 13.5z" />
<glyph unicode="&#xfe;" horiz-adv-x="378" d="M199 117q14 0 52.5 15.5t55 29.5t25.5 23.5t16 21.5q15 23 -2 50q-29 35 -107 -40q-32 -34 -41 -67t1 -33zM71 -6l7 36q5 27 39 128t53 148.5t67 177t48 136.5t11 19q11 9 26.5 7.5t27.5 -10.5q16 -26 11 -56q0 -21 -53.5 -145.5t-51.5 -123.5q59 35 101.5 29t65.5 -35.5 t23 -69.5q0 -17 -16 -50.5t-26 -42.5q-6 0 -16 -21q-12 -16 -45.5 -33.5t-45.5 -13.5q-5 -3 -5 -9q0 -7 -33.5 -15.5t-51.5 -8.5t-27 8q-7 -7 -7 -15t-10 -29.5t-16 -21.5q-6 -5 0 -11q0 -21 -6 -31q0 -26 -10 -48q0 -12 -3.5 -23.5t-7.5 -11.5q-6 -2 -6.5 -27.5t-15 -44.5 t-27.5 -19q-19 -2 -24 8q-21 30 -15 60q11 42 11 58l5 32q11 18 11 47q0 12 12 22z" />
<glyph unicode="&#xff;" horiz-adv-x="341" d="M226 548q29 21 54 -24q10 -24 6.5 -38.5t-26.5 -40.5q-34 -46 -65 -16q-9 8 -15 24.5t-4 22.5q8 37 32 57q2 1 5 5q7 10 13 10zM381 548q29 21 54 -24q10 -24 6.5 -38.5t-26.5 -40.5q-34 -46 -65 -16q-9 8 -15 24.5t-4 22.5q8 37 32 57q2 1 5 5q8 10 13 10zM-32 -117 q15 0 22 -4q38 -26 71.5 -19.5t70.5 57.5q42 67 64 107q-21 12 -40 40.5t-16 39.5v11q-11 0 -14.5 62t-0.5 87.5t7 91.5q-1 26 18 39q36 16 53.5 -16.5t12.5 -105.5q-9 -136 19 -168q9 24 15 30q14 29 15 34.5t5 13t20 39.5q26 75 32 85.5t9.5 18t5.5 11.5t5 9.5t5 8.5t5 6 q4 5 9 7q16 12 36 1q15 -15 21 -24q14 -24 -12 -72q-18 -53 -32 -69q-33 -76 -59.5 -129t-38.5 -84q-64 -102 -90 -133q-66 -60 -100 -66q-52 -11 -98.5 3.5t-53.5 40.5q-6 20 6.5 33.5t27.5 13.5z" />
<glyph unicode="&#x152;" horiz-adv-x="784" d="M502 554q-5 2 -10 2t-15 -2q-4 4 -8 4q-8 0 -23 -6t-24 -13t-12.5 -10.5t-16 -17.5t-18.5 -20q-8 -27 -33 -47q-4 -3 -12 -14.5t-12 -15.5l-6 -12q-32 -53 -70 -153t-38 -125t18.5 -42t42.5 -19q43 0 57.5 1t40.5 13.5t51 41.5q10 18 16 24q6 13 16 26q11 54 21 54 q13 69 19.5 75t14.5 30q0 11 6 25q15 25 15 33l27 47q-5 5 -5 6t3 4q10 10 -25 95q-1 1 -6 5.5t-7 6.5t-7 4zM553 633q0 -6 5 -6h1q7 1 24.5 -19t31.5 -44q13 40 19 46q-2 3 6.5 8.5t24 10.5t34.5 10q41 11 75 13q9 6 49 7.5t75 -1.5q23 0 61 -18q1 -1 5.5 -5t7 -6.5t6 -7.5 t5 -8.5t1.5 -8.5q0 -8 -13 -15q-7 -7 -66 -7t-94 -6t-38 -6q-16 -6 -43 -6h-9q-4 0 -23 -37.5t-19.5 -47.5t-18.5 -36q-34 -47 -16 -58q90 14 135 14q25 7 44 -4q17 -4 16 -22t-12 -23q-13 -14 -113 -37.5t-113 -20.5q-9 20 -21 -20l-10 -39q-18 -40 -22 -52.5t-12 -57.5 q-16 -58 42 -85q41 -8 106 9q4 2 61 34l30 9q8 11 15.5 11t16.5 -8.5t18 -23.5t9 -30t-117 -61q-42 -18 -58.5 -23t-56 -5t-69 5.5t-56.5 27t-38 57.5q-10 -9 -49 -40q-70 -26 -126 -28q-26 0 -76 26t-62 52l-2 4q-19 32 -19 61t9 63t9 51q30 41 30 48v15q0 7 5.5 15 t17.5 16q2 -1 3.5 -1t7.5 12q17 36 33 80q50 92 112 153.5t110 82.5q4 2 17 2.5t19 1.5q19 -1 46 -9t29 -12z" />
<glyph unicode="&#x153;" horiz-adv-x="541" d="M543.5 318q-10.5 7 -26 7t-40.5 -19t-46 -53q2 -12 33.5 -12t37.5 5q10 5 30.5 25t21 30t-10 17zM257 143.5q24 35.5 31 66t7 50t-3.5 28.5t-7.5 10.5t-11 1.5q-29 0 -57 -41.5t-46 -111.5q-5 -18 -5 -31q0 -36 21 -36q10 0 28.5 14t42.5 49.5zM81 130l-2 13 q0 33 20.5 85.5t59.5 91.5q34 40 58.5 56.5t50.5 16.5t46 -13q53 -18 67 -60q32 42 71.5 60t62.5 18q57 0 86.5 -27t29.5 -55v-5l-3 -24q-14 -40 -51 -77.5t-94 -37.5q-20 0 -64 10q-23 0 -23 -34.5t12.5 -49.5t32.5 -15t36 7q14 8 29 20t24.5 18t19.5 6t22.5 -11.5 t12.5 -22.5q-5 -25 -46.5 -62t-97.5 -37q-103 0 -123 87q-19 -26 -42 -46l-18 -13q-42 -30 -93 -36q-33 0 -59 35t-26 62v8q0 12 -3.5 15.5t-3.5 4.5t4 5t4 7z" />
<glyph unicode="&#x178;" horiz-adv-x="504" d="M535 828q16 16 28.5 9.5t17.5 -22.5q8 -15 6 -24.5t-16 -27.5q-34 -46 -59 4q-5 10 -3 15q9 31 20 40zM407 828q16 16 28.5 9.5t17.5 -22.5q8 -15 6 -24.5t-16 -27.5q-34 -46 -59 4q-5 10 -3 15q9 31 20 40zM210.5 -24.5q0.5 4.5 1 7.5t2.5 9.5t3 10.5t3 13t4 15 q2 60 30 111q0 31 31 105l11 34q-57 74 -66 142q-15 51 -9 162q0 27 7 45q11 32 20 50q29 25 45 -5t15 -80q6 -202 40 -230q4 -4 11 -1t10 3.5t11 8.5t13 13.5t17 19t32 34t62 70.5q105 123 131 135q11 5 29 10q6 -2 9.5 -14.5t6 -16.5t6.5 -9q10 -12 9.5 -18.5t-42.5 -48.5 q-22 -19 -70 -69t-76 -85q-91 -105 -121 -132q0 -2 -5 -2q-7 -23 -16 -66q-6 -20 -17 -56q-15 -52 -32 -104q-18 -68 -31 -93t-27 -20q-6 1 -39 24q-9 9 -9 16t0.5 11.5z" />
<glyph unicode="&#x2c6;" horiz-adv-x="353" d="M216 483q8 10 45 43q64 55 86 52q13 -2 20 -12q16 -13 44.5 -42t34.5 -36q14 -15 7 -35t-24 -24t-36 15q-20 24 -54 53q-41 -23 -80 -56q-24 -24 -42.5 -2t-0.5 44z" />
<glyph unicode="&#x2dc;" horiz-adv-x="353" d="M467 457q-74 -41 -80.5 -41t-12.5 1t-9.5 2t-10.5 5t-9 5t-11 7.5t-10.5 7.5t-21.5 18t-30.5 17t-23 -17t-22.5 -18q-2 -13 -7 -15.5t-6 0.5q-30 5 -30 35q0 13 17.5 38.5t47.5 40.5q41 15 69.5 -10.5t43.5 -33.5t33 0q11 3 36 15.5t36 17t21 -10.5t8 -25q0 -24 -28 -39z " />
<glyph unicode="&#x2000;" horiz-adv-x="432" />
<glyph unicode="&#x2001;" horiz-adv-x="864" />
<glyph unicode="&#x2002;" horiz-adv-x="432" />
<glyph unicode="&#x2003;" horiz-adv-x="864" />
<glyph unicode="&#x2004;" horiz-adv-x="288" />
<glyph unicode="&#x2005;" horiz-adv-x="216" />
<glyph unicode="&#x2006;" horiz-adv-x="144" />
<glyph unicode="&#x2007;" horiz-adv-x="144" />
<glyph unicode="&#x2008;" horiz-adv-x="108" />
<glyph unicode="&#x2009;" horiz-adv-x="172" />
<glyph unicode="&#x200a;" horiz-adv-x="48" />
<glyph unicode="&#x2010;" horiz-adv-x="326" d="M356.5 229q18.5 -18 10 -34.5t-30.5 -12.5q-140 -10 -163 -10t-38 5q-25 0 -36 20q-19 25 33 34l18 2q63 14 125.5 14t81 -18z" />
<glyph unicode="&#x2011;" horiz-adv-x="326" d="M356.5 229q18.5 -18 10 -34.5t-30.5 -12.5q-140 -10 -163 -10t-38 5q-25 0 -36 20q-19 25 33 34l18 2q63 14 125.5 14t81 -18z" />
<glyph unicode="&#x2012;" horiz-adv-x="326" d="M356.5 229q18.5 -18 10 -34.5t-30.5 -12.5q-140 -10 -163 -10t-38 5q-25 0 -36 20q-19 25 33 34l18 2q63 14 125.5 14t81 -18z" />
<glyph unicode="&#x2013;" d="M402 247q56 0 74.5 -18t10 -34.5t-30.5 -12.5q-156 -10 -286 -10q-20 0 -35 5q-25 0 -36 20q-19 25 33 34l18 2q63 14 252 14z" />
<glyph unicode="&#x2014;" horiz-adv-x="566" d="M519 245q50 0 59.5 -3.5t23 -17t5 -29.5t-30.5 -12l-55 -5q-75 -5 -351 -5q-20 0 -35 5q-25 0 -36 19q-17 23 26 31q50 9 197 13t197 4z" />
<glyph unicode="&#x2018;" horiz-adv-x="117" d="M297 491.5q-8 -29.5 -37.5 -48.5t-65.5 -4q-17 11 -27.5 30.5t-6.5 32.5q4 27 13 51.5t11 30.5q9 35 60 92q0 4 9.5 6t14.5 4q8 0 16.5 1t16.5 -4q21 -13 0 -42q-44 -71 -46 -79t-3 -11q17 3 35 -12q18 -18 10 -47.5z" />
<glyph unicode="&#x2019;" horiz-adv-x="117" d="M188.5 628.5q7.5 29.5 37 48.5t65.5 4q17 -11 27.5 -31t6.5 -33q-4 -27 -13 -51.5t-11 -30.5q-9 -33 -60 -91q0 -4 -9.5 -6t-14.5 -4q-8 0 -16.5 -1t-15.5 4q-20 13 0 42q44 71 46 79t3 11q-17 -3 -35 12q-18 18 -10.5 47.5z" />
<glyph unicode="&#x201a;" horiz-adv-x="117" d="M16.5 82q7.5 30 37 49t65.5 4q17 -11 27.5 -31t6.5 -33q-4 -27 -13 -51.5t-11 -30.5q-9 -33 -60 -91q0 -4 -9.5 -6t-14.5 -4q-8 0 -16.5 -1t-16.5 4q-19 13 1 42q45 73 46.5 79.5t2.5 9.5q-17 -3 -35 12q-18 18 -10.5 48z" />
<glyph unicode="&#x201c;" horiz-adv-x="267" d="M295.5 493q-7.5 -30 -37 -49t-65.5 -4q-17 11 -27.5 31t-6.5 33q4 27 13 51.5t11 30.5q9 33 60 91q0 4 9.5 6t14.5 4q8 0 16.5 1t16.5 -4q19 -13 -1 -42q-45 -73 -46.5 -79.5t-2.5 -9.5q17 3 35 -12q18 -18 10.5 -48zM474 493q-8 -30 -37.5 -49t-65.5 -4q-17 11 -27.5 31 t-6.5 33q4 27 13 51.5t11 30.5q9 33 60 91q0 4 9.5 6t17 4.5t22.5 -0.5t18 -19q2 -9 -26.5 -54t-30 -51.5t-2.5 -9.5q17 3 35 -12q18 -18 10 -48z" />
<glyph unicode="&#x201d;" horiz-adv-x="267" d="M354.5 618q7.5 30 37 49t65.5 4q17 -11 27.5 -31t6.5 -33q-4 -27 -13 -51.5t-11 -30.5q-9 -33 -60 -91q0 -4 -9.5 -6t-14.5 -4q-8 0 -16.5 -1t-16.5 4q-19 13 1 42q45 73 46.5 79.5t2.5 9.5q-17 -3 -35 12q-18 18 -10.5 48zM176 618q8 30 37.5 49t65.5 4q17 -11 27.5 -31 t6.5 -33q-4 -27 -13 -51.5t-11 -30.5q-9 -33 -60 -91q0 -4 -9.5 -6t-17 -4.5t-22.5 0.5t-18 19q-2 9 26.5 54t30 51.5t2.5 9.5q-17 -3 -35 12q-18 18 -10 48z" />
<glyph unicode="&#x201e;" horiz-adv-x="267" d="M197.5 82q7.5 30 37 49t65.5 4q17 -11 27.5 -31t6.5 -33q-4 -27 -13 -51.5t-11 -30.5q-9 -33 -60 -91q0 -4 -9.5 -6t-14.5 -4q-8 0 -16.5 -1t-15.5 4q-20 13 0 42q45 73 46.5 79.5t2.5 9.5q-17 -3 -35 12q-18 18 -10.5 48zM19 82q8 30 37.5 49t65.5 4q17 -11 27.5 -31 t6.5 -33q-4 -27 -13 -51.5t-11 -30.5q-9 -33 -60 -91q0 -4 -9.5 -6t-17 -4.5t-22.5 0.5t-18 19q-2 9 26.5 54t30 51.5t2.5 9.5q-17 -3 -35 12q-18 18 -10 48z" />
<glyph unicode="&#x2022;" horiz-adv-x="187" d="M192 376q17 9 44.5 2t39.5 -24q18 -66 -37 -127q-33 -41 -96 -7q-8 7 -9.5 35t4 42.5t21.5 40.5t33 38z" />
<glyph unicode="&#x2026;" horiz-adv-x="594" d="M510 130q18 11 26.5 12t26.5 -7q30 -19 26.5 -42t-40.5 -41q-34 -14 -59 5q-36 35 20 73zM312 130q18 11 26.5 12t26.5 -7q30 -19 26.5 -42t-40.5 -41q-34 -14 -59 5q-36 35 20 73zM114 130q18 11 26.5 12t26.5 -7q30 -19 26.5 -42t-40.5 -41q-34 -14 -59 5q-36 35 20 73 z" />
<glyph unicode="&#x202f;" horiz-adv-x="172" />
<glyph unicode="&#x2039;" d="M414 427q-3 -29 -11.5 -36.5t-26.5 -20.5q-36 -29 -86.5 -74t-59.5 -58.5t-6 -32.5q25 -56 129 -114q40 -20 57 -55.5t-4 -41.5q-39 -4 -78 14q-21 12 -30 16t-17 8.5t-12 7.5t-9 7q-10 7 -18 17q-54 31 -88 93l-32 42l-7 38q10 2 19 23q6 11 21.5 24.5t45.5 38.5t55 46 q34 25 74 65q20 22 26 22q9 3 20 -4.5t20 -10.5q16 -6 18 -14z" />
<glyph unicode="&#x203a;" d="M178 19q3 14 13.5 23t93.5 84t91.5 89.5t6.5 26.5q-27 60 -136 121q-44 22 -62.5 52t1.5 35q57 5 95 -12q21 -12 30 -16t17 -8.5t12 -7.5t10 -7q9 -7 17 -17q54 -31 88 -93l24 -42l7 -30q-9 -2 -15.5 -19t-7.5 -17q-17 -21 -120 -109q-34 -25 -74 -65q-20 -22 -26 -22 q-4 -2 -21 9.5t-25 13.5q-18 4 -19 11z" />
<glyph unicode="&#x205f;" horiz-adv-x="216" />
<glyph unicode="&#x20ac;" horiz-adv-x="450" d="M206 246l115 -1q54 -2 77 -23q15 -16 6 -32t-31 -12q-5 0 -48 0.5t-53 -0.5t-87 -1q-6 -24 -12 -63q5 -28 -1 -28q4 -28 21 -43q9 -9 30 -6q17 -2 56 6.5t49 15.5q17 6 29 6q4 2 24.5 11.5t29.5 15.5q64 25 81 20q25 -4 -2 -42q-7 -9 -35 -29t-37.5 -21t-34.5 -17 q-66 -37 -116 -38q-28 -8 -72 7.5t-75 40.5q-9 13 -26 51t-14 42q7 10 4 21q-6 13 5 52q-11 0 -25 6q-27 0 -36 20q-11 15 2 23.5t50 11.5l30 3q25 59 34 80q-19 0 -32 6q-27 1 -36 21q-22 29 52 34q12 2 48 4q38 73 112.5 152.5t117.5 97.5q45 16 68 12q54 -7 90 -52 q14 -27 22 -74q8 -55 -5 -78q-2 -4 -2.5 -5.5t-2 -4t-2 -3.5t-2 -2.5l-2.5 -2.5q-7 -3 -13 -3q-16 -6 -64 30q1 16 6 31q31 78 -14 90q-59 2 -120 -70q-54 -62 -89 -116l93 -1q54 -2 77 -23q15 -15 6 -31.5t-31 -12.5q-22 -4 -186 -1q-21 -49 -29 -75z" />
<glyph unicode="&#x2122;" horiz-adv-x="660" d="M376 627q-20 -59 -23 -63q2 -5 -21 -67l-38 -110q-15 -28 -25 -80l-7 -26q-9 -25 -39 -19q-8 2 -20 12.5t-11.5 20.5t9.5 47l23 80q9 15 13.5 37.5t37.5 122.5q7 11 10 24q5 2 5 12q1 1 1.5 2.5t1.5 1.5l-9 1q-2 -1 -1.5 -3.5t-1.5 -2.5q-50 0 -63 -4q-18 -1 -28 7.5 t-8 19.5t9.5 21.5t18.5 11.5q126 16 178 19q55 0 83 -20q13 -9 14.5 -17.5t-1 -21t-7.5 -15.5q-34 -10 -55 -1q-8 8 -40 11zM809 529q-13 -57 -18 -70.5t-10 -40t-5 -36.5q-7 -15 -7 -63q-2 -12 -2 -17l-1 -10q-1 -8 -13 -17.5t-21 -10.5q-1 -5 -10 -6q-23 -1 -34 16 q-5 17 -3 50v6q4 21 42 192q12 44 15 63q-69 -128 -71.5 -131.5t-11.5 -20.5q-9 -16 -33 -50q0 -4 -12.5 -22.5t-30 -37t-30.5 -22t-31 13.5q-17 18 -17 44t3 45l11 66l4 34q-2 -4 -6.5 -12.5t-7.5 -14.5t-9 -19q-50 -113 -59 -130.5t-12 -23.5q-12 -27 -30 -45 q-10 0 -28 11.5t-25 20.5q-4 9 10.5 42.5t28.5 46.5q3 13 4 18q6 3 24 41l55 100v-1l7 12q38 69 47.5 78t9.5 20t14.5 27.5t22.5 16.5q20 0 29 -13q20 -30 17 -56q-4 -33 -5 -35q-2 -4 -2 -14q-33 -102 -33 -156q0 1 3 4q2 3 9 20l25 44q29 43 80 137l18 30q12 22 45 47 q17 12 46.5 -7t31 -50.5t-23.5 -113.5z" />
<glyph unicode="&#x25fc;" horiz-adv-x="360" d="M0 360h360v-360h-360v360z" />
<glyph unicode="&#xf01e7;" horiz-adv-x="410" d="M180 124q0 -35 36 -14q23 14 36 30q17 23 44 63q30 40 36 67q-11 34 -25 37q-28 0 -76 -66q-26 -31 -38.5 -70t-12.5 -47zM431.5 49q-24.5 -16 -43.5 -16t-34 18q-18 20 -31 70l-36 -33q-7 -8 -17 -18q-21 -19 -24 -24q-7 -13 -57 -32q-13 -4 -33 -1t-20 7.5t-0.5 5 t-4.5 0.5q-19 16 -31 21q-11 16 -12 32t12 66q1 58 57.5 132.5t107.5 104.5q14 14 37.5 15t39 -8t35 -35t29.5 -47q0 -1 5 -19.5t3.5 -20.5t-1.5 -36q-12 -41 -12 -74q-2 -19 4.5 -27t23 0t33 -6t5.5 -36.5t-35.5 -38.5z" />
<glyph unicode="&#xf01e8;" horiz-adv-x="444" d="M220 90q36 0 60 18q66 34 97.5 79.5t28.5 83.5q-5 47 -94 -41q-18 -17 -71 -76q-4 -6 -10 -14q-11 -13 -11 -18q-7 -32 0 -32zM90 70.5q2 6.5 7.5 6.5t10 3t10 13t6.5 22.5t5 25.5t4 14.5t1 8.5q2 18 7 32q16 71 42 145q2 18 21 55q19 51 62.5 145t53.5 107q8 8 26 6 t24 -8.5t10 -11t5.5 -6.5t4.5 -6.5t3.5 -7.5t0.5 -6q1 -6 -6 -16l-27 -43q-7 -19 -31.5 -71t-35 -80.5t-16.5 -43.5q-20 -55 -27 -70t-10 -33q16 15 36 35q80 86 127 87q20 1 46 -15.5t34 -35.5q13 -25 6 -75t-33 -83q-21 -37 -53 -62q-27 -25 -42.5 -36t-35.5 -18 q-30 -21 -131 -34q-18 -4 -53.5 12.5t-44.5 27t-7 17z" />
<glyph unicode="&#xf01e9;" horiz-adv-x="444" d="M416 284q0 9 -5 9t-35 -12t-37 -19q0 -5 -12 -9q-55 -41 -72 -63q-33 -45 -45 -63q-10 -20 -22 -35q5 -1 17 -0.5t33 0.5q33 1 61 18q32 27 54.5 56.5t25.5 33.5q37 47 37 84zM154 51l-2 23q-35 0 -37 8q1 30 7 41q0 7 7 25.5t8 23t6 30.5q10 55 25 89q26 92 43 131 q15 61 26 86t26 56t18 37.5t15 42.5q9 16 25.5 20t28.5 -8q19 -19 20 -24t1.5 -11t-1 -12t-3.5 -15q-4 -16 -16 -45q-6 -7 -31 -75q-23 -55 -35 -94t-38 -107l27 29q39 34 91.5 54t73.5 13t37.5 -27.5t22.5 -47.5q11 -25 -28 -97.5t-83 -112.5q-16 -8 -36 -32 q-43 -37 -113 -35.5t-85 34.5z" />
<glyph unicode="&#xf01ea;" horiz-adv-x="334" d="M210 245q4 2 8.5 2t12.5 -12t22 -12q28 0 46.5 24t18.5 41q0 36 -20 36q-17 0 -38 -16t-37 -42zM284 399q112 0 112 -93q0 -48 -44.5 -102t-90 -54t-76.5 29q-17 -34 -17 -55t0.5 -27t3.5 -17q5 -18 24.5 -18t31.5 3.5t17.5 6.5t17 11.5t20 13.5t16.5 10t11 7q7 4 11 5 q15 0 28 -9t13 -20.5t-18 -34t-37 -31.5l-11 -6q-9 -12 -18 -12h-8q-4 -8 -26.5 -16t-42.5 -8q-114 0 -114 130q0 73 50 163q69 124 147 124z" />
<glyph unicode="&#xf01eb;" horiz-adv-x="364" d="M356 278v2q0 2 -4.5 11.5t-15 20t-22.5 10.5q-17 -3 -81.5 -70.5t-64.5 -90.5q0 -11 16.5 -11t55 15.5t47.5 28.5q3 3 11 15q23 31 41 43q17 8 17 26zM419 222q-14 0 -21 -6.5t-14 -24t-14 -27.5q-3 -14 -16 -74.5t-19.5 -87t-19.5 -59.5q-8 -54 -49 -95t-81 -43 q-44 0 -84.5 33t-40.5 66t28 33q14 0 42 -28.5t41 -28.5t23.5 6.5t19.5 21.5t15 27t13 37t10 36q23 99 24 101t1 3h-1q-1 0 -2 1q-16 -12 -63 -27t-72.5 -15t-40 20t-14.5 52v6q-84 -149 7 18q37 95 47 96q3 0 9.5 11.5t6.5 15.5q1 3 54 45q72 64 115 68q31 -3 52.5 -11 t44.5 -43t25 -61q-2 -23 -10 -44.5t-16 -21.5z" />
<glyph unicode="&#xf01ec;" horiz-adv-x="463" d="M278 645q11 25 19.5 25t28.5 -12q37 -22 28 -66q-5 -24 -33.5 -79.5t-47 -109t-35.5 -112.5t-17 -70t9 -7t15 12q3 6 14.5 16.5t23.5 25.5t39 41t41 26q36 0 54 -45q2 -2 5.5 -7.5t5.5 -7.5t4 -15q3 -33 -16 -91q-9 -39 -10.5 -55t6.5 -18q17 9 34 20t30 12t18.5 -5 t5.5 -13.5t-6.5 -21.5t-6.5 -16v-5q0 -4 -27 -26q-46 -38 -88 -34q-23 2 -38.5 25.5t-15.5 65.5q0 70 28 116q1 2 -1 4q-5 0 -18 -13q-49 -44 -81.5 -91.5t-32.5 -73.5q0 -14 -15 -20.5t-26 0.5q-52 31 -47.5 97t15 118.5t40.5 149.5q51 142 54 147q7 7 20.5 43.5t13.5 44.5 t10 25z" />
<glyph unicode="&#xf01ed;" horiz-adv-x="463" d="M364 150q5 23 5 46t-9 23q-29 5 -157 -140q-36 -51 -40 -51q-27 -1 -46 12.5t-22 33.5q-1 11 84 263q5 14 25 64.5t22.5 57t16.5 42.5q33 84 42 112q-1 17 7 28l14 1q0 2 13.5 -4t27 -15t13.5 -14q8 -25 -20 -95q-9 -12 -24 -53.5t-18 -48.5q-33 -60 -63 -166 q-11 -26 -7 -32t24 18q37 39 54.5 56.5t42 33.5t40.5 15q14 -3 38.5 -24.5t30.5 -37.5q6 -22 6 -43t-5 -90q-9 -51 -8.5 -61t14 -21.5t11.5 -28t-17 -24.5q-55 -15 -75 5q-7 7 -15 22q-14 29 -9.5 69.5t4.5 46.5z" />
<glyph unicode="&#xf01ee;" horiz-adv-x="196" d="M161 331q6 15 27 7.5t36 -30.5q10 -11 7.5 -32.5t-22.5 -92t-18 -104.5q-4 -45 -8 -62t-12 -16q-24 0 -41.5 25t-21.5 62q4 38 6 54q35 159 47 189zM237 551q11 0 46 -14q45 -94 -20 -121q-7 -5 -19 3q-10 1 -26.5 17t-16.5 21q-2 22 7 57.5t29 36.5z" />
<glyph unicode="&#xf01ef;" horiz-adv-x="196" d="M101 45l-5 20q-24 12 -17 33q14 24 50.5 110.5t40.5 99.5q0 22 14 31q19 14 40 -10t21 -62q0 -12 -22.5 -68.5t-44.5 -101t-29.5 -54.5t-17.5 -10zM231 551q17 0 37 -10q5 -12 26 -39t21 -43q0 -43 -48 -43q-20 0 -45.5 24t-25.5 51q0 5 17.5 31.5t17.5 28.5z" />
<glyph unicode="&#xf01f0;" horiz-adv-x="178" d="M92 64q0 32 12 76q6 49 19 71q41 139 44 153q9 26 25 68.5t21.5 58.5t17 57t19.5 54q15 23 20 33q1 6 20 9t25 -3q5 2 17.5 -16.5t12 -29t-5 -17t-20.5 -36.5q-13 -48 -22 -68t-11.5 -28t-14.5 -39t-27.5 -82t-23 -63.5t-16.5 -63.5q-15 -45 -15 -53q-3 -10 -8 -39.5 t-11 -41.5q-2 -18 -15 -33.5t-29 -6.5q-34 19 -34 40z" />
<glyph unicode="&#xf01f1;" horiz-adv-x="178" d="M85 106q25 121 37 149q6 19 11 35q30 97 56 131q1 2 3 7.5t3 7.5q0 16 7 28q12 18 18 35l28 57q10 29 32 38l-1 1q5 8 18.5 14t23.5 6q29 0 29 -30q0 -26 -8 -36h1q-12 -34 -17.5 -40t-44.5 -81q-46 -89 -54 -120q-2 -4 -7.5 -17t-6.5 -15l-16 -62l-4 -21 q-16 -44 -18 -54q-5 -14 -5.5 -18t-7.5 -24q-15 -49 -17 -83l-1 -4q-3 -22 -12.5 -33t-24.5 -7q-29 10 -30.5 47.5t8.5 88.5z" />
<glyph unicode="&#xf01f2;" horiz-adv-x="612" d="M579 36l-22 -5q-13 -4 -32.5 3.5t-24.5 27.5q-19 44 -16 62t4 30q4 29 6 32q0 26 -3 26q-8 0 -41.5 -37t-48 -58t-20.5 -32t-9 -19q-9 -19 -27.5 -12t-23.5 15.5t-10 11.5t-7 7q-4 9 13 63l28 89q0 7 -50 -36q-55 -64 -91 -113.5t-50.5 -59t-25.5 5.5q-1 1 -12 9 t-11 13.5t-5 5.5q-6 6 20.5 65.5t47.5 91.5q7 7 6 14q10 18 14 22q17 33 14 53q-3 3 -6 3t-33 -12q-23 -17 -34 -16t-20.5 24.5t5.5 36.5q4 4 36 25q38 21 55 24q53 15 71 -28q30 -38 -10 -98q-4 -8 -2 -10t13.5 12.5t19.5 14.5q5 0 5 9l10 9q5 0 24.5 15t28.5 15 q22 7 37 -14.5t15 -57.5l-21 -54l36 44q9 11 24 24q2 9 8 9h2q4 0 4 4q2 2 6 5q12 7 13 10q17 8 41 2.5t34 -25.5q2 -4 6.5 -10.5t6.5 -10.5q6 -12 6 -27q-8 -48 -9 -56q-5 -11 -5 -27.5t1 -20.5q0 -8 8 -8q21 5 45 27q16 12 26.5 5t14 -17.5t-10 -36.5t-20.5 -26 q-2 0 -12.5 -8.5t-13.5 -10.5q-17 -19 -28 -19z" />
<glyph unicode="&#xf01f3;" horiz-adv-x="459" d="M377 318l25 8q15 0 31.5 -10.5t16.5 -21.5q0 -3 6 -8q18 -19 18 -44t-15.5 -89.5t-16 -79.5t4 -27t4.5 -17.5t-9 -15t-28.5 -9.5t-37.5 21.5t-18 54t22 114.5q1 6 2 10.5t1.5 7t1 4.5t0.5 5.5t-4 3.5t-12.5 -5t-16 -11t-21 -17.5t-23.5 -18.5t-42 -34q-82 -71 -89.5 -71 t-30 14t-22.5 30.5t18 70.5t43 106q3 6 7 37q8 48 29 48t38.5 -20t17.5 -40.5t-9.5 -48t-13.5 -32.5q2 1 6 5q10 10 32 24q31 23 52 36z" />
<glyph unicode="&#xf01f4;" horiz-adv-x="378" d="M347 258q9 19 -3 31q-17 3 -44.5 -15t-45.5 -41t-26 -46t-4 -35t16 -12q76 39 85 56l3 6q1 10 8 27t11 29zM226 386q2 2 8 -9q19 -30 19 -44q-2 -4 -2 -4.5t4 -0.5q43 21 51 30q10 4 15 9q20 7 43 2.5t38 -17.5q49 -63 27 -134l-27 -47q-40 -62 -110 -102 q-15 -10 -43.5 -18t-33.5 -5q-11 8 -20 34q-13 -31 -15.5 -44.5t-6.5 -16.5q0 -5 -8 -16q-31 -89 -32 -95q-3 -31 -14 -59t-28 -34q-22 -7 -41.5 20t-9.5 56q6 11 9.5 32.5t13.5 50.5t18.5 43t8.5 39q7 22 13 30q7 22 15 34q6 27 9 28q9 43 33 104.5t2 70.5q-13 5 -11 33 t12.5 32t24.5 6q33 3 33 -2t5 -6z" />
<glyph unicode="&#xf01f5;" horiz-adv-x="378" d="M341 267q-10 17 -32 15t-64 -25q-27 -10 -31 -21q-9 -22 -19.5 -46t-8.5 -34q8 -6 33.5 -1t56.5 22.5t35 34.5q33 37 34.5 43.5t-4.5 11.5zM21.5 -215.5q-23.5 23.5 -23.5 35.5t20 95.5t29.5 110t15.5 41.5q17 43 28 80t39 106t33.5 85t12.5 36q16 41 20 48q4 12 44 23 q18 5 31 -15q9 -16 -8 -58l-7 -20l36 8q70 -4 78 -6q22 -1 31.5 -8t18.5 -22q18 -18 20 -30q8 -32 -21 -85t-61 -74l-26 -13q-3 -8 -43.5 -29t-70 -24.5t-37.5 1.5q-19 4 -19 -2q-5 -12 -9.5 -21.5t-9.5 -22.5q-69 -216 -75 -235q-8 -27 -11 -32q-12 4 -35.5 27.5z" />
<glyph unicode="&#xf01f6;" horiz-adv-x="360" d="M386 382q10 0 26 -10t21 -19q26 -45 8 -68q-34 -41 -73 -33q-5 1 -12 14t-8 20q0 5 -23 -19.5t-27 -28.5q-23 -28 -54.5 -91.5t-39.5 -83.5t-13.5 -30t-10.5 -12t-22.5 2.5t-20.5 8.5q-38 33 -2 86q7 14 27 72.5t23 65.5q2 17 -2 24.5t-17 8.5q-21 0 -21 32q3 29 23 42 q15 8 41 8.5t38 -8.5t21 -65q7 6 24 24.5t24 25.5q48 34 70 34z" />
<glyph unicode="&#xf01f7;" horiz-adv-x="350" d="M426 370q12 -25 12 -37q0 -13 -24 -50q-13 -26 -13.5 -28.5t-2 -5.5t-2 -3.5t-2 -2.5t-2.5 -2t-2.5 -1t-3 0t-11.5 0.5t-24 14.5t-14 30t9 29t9 16.5t-9 2.5q-24 0 -66.5 -29t-42.5 -64.5t18 -64.5q8 -8 23.5 -47.5t15.5 -68.5t-26.5 -47t-73 -18t-82 30t-35.5 62 q0 17 14 17q4 -1 28 -15.5t40 -14.5q40 0 44 22q0 14 -14 42q-35 52 -39 138q0 35 69 85t115 55q55 0 67.5 -10t24.5 -35z" />
<glyph unicode="&#xf01f9;" horiz-adv-x="331" d="M122 306q-4 0 -4 15v5q0 3 -4.5 6t-7 6.5t5.5 14.5t14.5 12t22 3t27.5 4q33 6 46 22q38 98 55 117q43 22 63 -10q2 -3 6.5 -7.5t4.5 -6.5t-2 -11t-43 -88q12 -2 32 0q28 6 47 3q42 0 46 -46q5 -27 -45 -27q-103 -4 -104 -9q-5 -3 -16 -31t-18 -53q-27 -125 1 -155 q15 -15 62 23q17 14 31.5 9t16 -21.5t-9.5 -35.5q-18 -27 -56 -43t-61.5 -9t-58.5 38q-16 21 -19.5 38t-3.5 42v29q0 23 31 147q3 11 -9.5 14.5t-29.5 3t-20 1.5z" />
<glyph unicode="&#xf01fa;" horiz-adv-x="331" d="M373 450q0 -10 15 -10q33 2 43 4t13 2q9 2 18 -2q8 -10 4.5 -34t-13.5 -28q-1 0 -21 -6q-16 -4 -91 -11q-26 -50 -30.5 -59.5t-4.5 -11.5l-42 -88q-4 0 -4 -6q4 -12 -1 -16q-8 -7 -14 -16q5 -5 -5 -23q0 -17 -14 -51q1 -18 2 -23t5 -4q4 -1 27 1q15 7 -14 -70 q-15 -23 -31.5 -40.5t-21.5 -17.5q-84 1 -70 94q3 9 5 22q6 28 11 32q4 5 0 9q0 13 18 59q-6 8 5 17.5t7.5 14.5t3.5 19t16.5 32t11.5 24q-1 3 16.5 41t22.5 47q8 4 -6.5 6.5t-57.5 2.5t-62 11q-12 13 -3 33t32 21l128 11l3 17q4 6 7.5 11.5t4.5 7t2 4.5q2 4 4 19 q17 27 20 51q18 28 24 42q30 62 73 34q30 -20 27 -38q-1 -10 -7 -20.5t-14 -34.5q-21 -26 -26 -54q-13 -24 -16 -25z" />
<glyph unicode="&#xf01fb;" horiz-adv-x="370" d="M175 118q23 0 57.5 34t72.5 95.5t42 70.5t9.5 20t8 15.5t6.5 10.5q7 9 14 11h23q6 -1 14 -9q25 -12 25 -23q-3 -7 -13 -30.5t-12 -27.5q-53 -115 -60 -160q-11 -65 21 -94q16 -11 -26 -31q-11 -6 -14 -6q-16 -8 -41 24q-14 22 -13.5 57.5t-2.5 36.5t-40 -34 q-62 -60 -84 -59q-11 0 -31 19.5t-27 37.5q-9 38 10 112.5t49 132t50 55.5q31 -4 49 -48q7 -13 -5 -24q-15 -20 -38 -65t-37 -83t-7 -38z" />
<glyph unicode="&#xf01fc;" horiz-adv-x="370" d="M194 355q32 40 69 24q11 -13 11.5 -35.5t-11.5 -41.5q-42 -56 -54 -140q-13 -46 8 -51q28 -7 59 29.5t55 99.5q4 10 9 32.5t8 28.5q7 27 30 40t35 3q30 -13 27 -45q0 -34 -19 -69.5t-29 -59.5t-46 -66.5t-62 -53.5q-56 -35 -114 -15q-17 16 -24 24q-22 23 -27.5 64 t21.5 123t54 109z" />
<glyph unicode="&#xf01fd;" horiz-adv-x="331" d="M400 326q10 -8 10 -15.5t-12 -43.5t-19 -39l-10 -10q-3 -13 -39 -64t-61 -83.5t-49 -44.5q-27 -20 -50 3q-47 45 -47 217q5 54 5 115q24 12 57 -3q14 -8 18 -29.5t4 -98.5q-6 -86 -3.5 -90t3.5 -7.5t7.5 3t10.5 11.5t16 27q16 28 32.5 49.5t18.5 25t10 13t14.5 21 t18.5 24.5t16 13q3 -2 16 2t14 4q7 7 19 0z" />
<glyph unicode="&#xf01fe;" horiz-adv-x="331" d="M136 345q15 16 36 24t32 -4q14 -7 17.5 -30t-5.5 -42q0 -2 -6 -29q-8 -14 -8.5 -21.5t0.5 -18.5q4 -22 -3 -32q-8 -41 2 -56q2 -24 28 -2q24 23 47 58t20 41.5t-1 10t10 9t10 8t5 11.5t5 13q5 5 8 14q-2 5 5.5 13.5t8.5 10.5q4 21 23 28t35 -3t14.5 -30.5t-18.5 -61 t-29 -57.5t-18 -27q-20 -40 -52 -72q-6 -6 -11 -11.5t-10 -9.5q-54 -61 -77 -62q-9 -2 -30.5 9t-33.5 23q-11 15 -18 61.5t-6 96.5t20 138z" />
<glyph unicode="&#xf01ff;" horiz-adv-x="517" d="M204 202l-5 -24q-4 -4 -4 -10t-3 -18t-4.5 -25t3 -17t13.5 1q2 3 9.5 15.5t12.5 19.5q4 12 11.5 18.5t7.5 12.5t30 48q32 57 42.5 71t15.5 26q15 30 28 30t16 -2t6 -13q8 -8 16.5 -22.5t8.5 -21.5l-5 -15q0 -17 -14 -47q-13 -54 -18 -97.5t3 -50.5q4 -2 7.5 2t9 13.5 t7.5 13.5q8 10 16 24q37 52 38 57t12.5 30t11.5 30.5t4 12.5q17 26 28 51q15 39 45.5 41.5t35.5 -16.5q1 -4 0 -9q-8 -48 -39.5 -119t-67.5 -127q-8 -6 -14 -16t-6 -13t-8 -14q-23 -31 -46 -46q-28 -23 -66 -5q-27 15 -35 28t-8 59l-2 40q-13 -11 -32 -40q-32 -59 -68 -71 q-11 -4 -49.5 12t-42.5 26.5t-0.5 62t11.5 66.5l2 10q0 2 -2 4q43 142 53 166l5 30q0 9 10 19q26 30 55 6q12 -12 17 -20q14 -22 -4 -64q-39 -86 -48 -123z" />
<glyph unicode="&#xf0200;" horiz-adv-x="343" d="M148 328.5q0 2.5 6 8.5t8 10l2 1q9 11 26 19.5t28 5.5q21 -15 45 -85l2 -8l41 45q77 81 104 45q8 -5 8 -29q6 -18 -72 -96q-43 -30 -57 -53l21 -75q2 -6 9.5 -18.5t10.5 -21.5q19 -46 23.5 -48t6.5 -5q5 -11 7 -13q4 -10 -11.5 -28t-27.5 -19.5t-18 0t-19 12.5 q-16 13 -37 56q-24 47 -33 84q-27 -30 -46.5 -53.5t-48.5 -45t-47.5 -20t-23 21t14.5 43.5q16 16 119 139q-27 100 -38 115q-3 10 -3 12.5z" />
<glyph unicode="&#xf0201;" horiz-adv-x="343" d="M291 304q3 0 38 35q12 14 27.5 21t21.5 7q19 1 30 -13.5t12 -31.5q0 -8 -18 -28t-42 -37.5t-44 -34.5t-35 -29q26 -60 38.5 -74.5t19.5 -21.5q13 -13 31 -41q4 1 8.5 -5t3.5 -13q7 -23 -16 -33q-10 -4 -13 -5t-10 2t-10.5 1.5t-21 10.5t-27.5 23t-24 31q-32 44 -38 54 q-5 -4 -46 -49q-77 -76 -89 -76.5t-24.5 18t-13.5 31.5q0 10 105 119l32 38q-45 113 -45 133q-4 10 0.5 25t8.5 21q-1 8 15.5 12t24.5 -3q11 -4 24.5 -28.5t15.5 -37.5q5 -25 21 -63q40 40 40 42z" />
<glyph unicode="&#xf0202;" horiz-adv-x="341" d="M215.5 52q-4.5 0 -4.5 -4.5t-26 -13t-34.5 -8.5t-20 11t-15.5 18.5t-16 18.5q-29 29 -23 56q12 45 44.5 138.5t47.5 116.5q9 12 31.5 14t33.5 -13t11.5 -26.5t-8 -30t-12.5 -28t-7 -16t-3.5 -8t-3.5 -13.5q-6 -32 -11 -32q-5 -5 -11 -33q-16 -68 -7 -77q53 0 104 61 q6 32 23 95t23 98q6 14 8.5 16.5t14 2.5t26 -7t21.5 -17q10 -18 9 -44.5t-13 -44.5q-18 -24 -32 -117q-9 -38 -22 -117q-16 -42 -20 -60.5t-23 -57.5q-45 -91 -106.5 -137t-125.5 -50q-25 -2 -30 -1t-22 10q-20 14 -23 20q-22 46 41 46q7 -4 23.5 -4t25.5 7t30 11 q33 16 50.5 32t38.5 51q25 38 33 69q12 29 31 98q-8 -8 -27 -19t-23.5 -11z" />
<glyph unicode="&#xf0203;" horiz-adv-x="315" d="M283 308v1q-1 2 -45 7q-52 -4 -69 -8q-37 -2 -46 9q-18 31 -7 38q4 30 68 38q3 -1 32.5 -1.5t73 -6t64.5 -12.5t26 -26q22 -57 -82 -122q-39 -27 -57.5 -43.5t-33.5 -34t-29 -32t-11 -17.5q15 -13 43 -9q40 0 44.5 -1.5t20 3t19.5 5.5q53 4 63 7.5t45 3.5q12 -7 6 -33.5 t-30 -31.5q-47 -17 -58 -16q-41 -11 -114.5 -10t-77.5 1q-40 28 -43 79q-4 25 31 70t89 85q28 18 52.5 32.5t27 17t0.5 5z" />
<glyph unicode="&#xf0204;" horiz-adv-x="315" d="M354.5 366q22.5 -14 22.5 -29.5t-7 -35t-20.5 -33.5t-54.5 -54t-76 -76.5t-37 -50.5q3 -5 7 -5.5t28.5 4.5t53.5 10q57 18 82 2q9 -5 11 -15q-14 -53 -42 -53q-42 -10 -90.5 -22.5t-71 -13t-44.5 10.5t-31 21t-10 27t11 40q28 51 108.5 131.5t80.5 94.5q-47 1 -89.5 -2.5 t-55 5.5t-16.5 27q-11 15 9.5 30t37.5 15q8 5 69 1.5t81.5 -9.5t43 -20z" />
<glyph unicode="&#xf0205;" horiz-adv-x="213" d="M289 292q-5 -6 -11 -6t-20 7q-11 0 -27 -41.5t-21.5 -62t-10.5 -38.5q-16 -57 -17 -63q-16 -93 -37 -149q-31 -95 -75 -133.5t-85.5 -38.5t-70.5 37.5t-29 85.5q0 18 8 29q11 15 27 15q5 0 17 -15t12 -29t15 -27t29.5 -13t24.5 9.5t25 41.5q18 29 20.5 39t6 26t9 34 t18 93t25.5 95q11 65 33 116t27.5 56t29.5 5t53 -18.5t29 -39.5q0 -9 -5 -15zM289 592q38 0 41 -41q0 -26 -17 -54.5t-41 -28.5t-38.5 13.5t-14.5 26t11 37t11 33.5q25 14 48 14z" />
<glyph unicode="&#xf0206;" horiz-adv-x="300" d="M122 -83q8 29 8.5 53t4.5 73q7 90 27 174q3 34 0 42t-15 9q-42 3 -51 31q-18 16 10 29q18 8 41 7q32 2 39.5 9.5t14.5 32.5l23 59q9 7 9.5 23t53.5 99q74 96 138 107q3 2 40.5 1.5t57.5 -38.5q7 -15 3.5 -38t-11.5 -35.5t-35 -35.5t-32 -23t-15 7.5t-11.5 12.5t-2 8t2 9 t3.5 9q8 12 12 16q11 18 11 21t-2.5 7.5t-3.5 6.5q-5 1 -21 -4q-20 -11 -36 -29q-24 -22 -39.5 -59t-30 -68.5t-19.5 -44t-10 -22t-7.5 -14t-4 -8.5t5 -5t26.5 1q83 10 92 -23q15 -22 -6.5 -33t-57.5 -16t-45 -5.5t-13.5 -1t-6.5 -0.5h-3q-9 0 -15 -23q0 -7 -3 -21.5 t-4 -24.5q-3 -8 -6 -24.5t-6 -23.5q-3 -32 -7.5 -97t-10 -96t-16.5 -47q-9 -9 -22.5 -16.5t-19.5 -2.5q-14 0 -24 13t-10 19z" />
<glyph unicode="&#xf0207;" horiz-adv-x="300" d="M405 672q30 0 63.5 -26.5t33.5 -54.5q0 -16 -7 -31q-10 -42 -43 -90q-35 -26 -54 -14q-6 4 -2 9q0 3 7 38q9 24 9 32q13 47 6 55q-2 3 -9 3.5t-16.5 -6t-9.5 -13.5v-4q-5 1 -33.5 -36t-46.5 -67q-32 -68 -52 -128l16 -2q8 -1 39 4.5t45 1t19 -12.5q31 -41 0 -52 q-22 -9 -99 -13q-37 3 -43 -3q-6 -3 -18 -43q-30 -94 -30 -160.5t7 -93.5q9 -35 -38 -52q-20 -2 -38 36t-18 86q-8 70 40 238q14 50 53 140t47 97q4 -1 5 1.5t1 5.5t3.5 9.5t9.5 17t10 18.5q21 30 55.5 62.5t53.5 40t34 7.5z" />
<glyph unicode="&#xf0208;" horiz-adv-x="521" d="M487 537v8q-11 28 -52 32.5t-92 -15.5q-14 -6 -17 -20q-2 -7 -3 -10t-2.5 -13t-3.5 -19.5t-5 -20t-7.5 -22t-6 -17.5t-6 -11t-4.5 -10q-10 -22 -32 -88l4 -14q62 20 65 21q118 36 152 133q6 10 9 32.5t1 33.5zM430 238q-12 20 -21.5 24.5t-14 6.5t-13.5 0.5t-12.5 -2.5 t-16 -5t-25.5 -6.5t-55 -16.5t-47 -14q-24 -22 -25 -29q-6 -2 -12 -16t-7 -25.5t1 -14t1 -7.5t-4.5 -16.5t-4.5 -16.5q-8 -22 14.5 -34t60.5 -14q109 -17 171 81q26 33 27 57t-17 48zM393 672q31 4 82 -7t56 -26l6 -2q5 0 16 -10q11 -8 19 -31.5t4 -38.5l7 -33 q11 -63 -51 -130q-4 -5 -14 -18q-16 -21 -22 -21q-11 -10 -15 -19.5t4 -12.5q10 -15 26 -34q19 -29 24 -68.5t-5.5 -77.5t-64 -92t-112.5 -79q-118 -38 -236 21q-2 11 -9 20.5t-12.5 10t-9 5t-8 11t-6.5 8.5q-4 19 -3.5 29.5t7.5 50.5q58 152 98.5 252.5t51 132t1.5 52.5 q-13 42 26 56q82 44 140 51z" />
<glyph unicode="&#xf0209;" horiz-adv-x="491" d="M607 640q12 0 13 -6q-6 -9 2 -16q5 -5 -3.5 -37t-14.5 -42l-3 -10q2 -6 -9 -19q-6 -9 -17 -55t-10 -56q2 -11 -32 -7q-42 5 -49 26q-5 12 5 51q15 48 16 67.5t-12 33.5q-5 9 -22 11.5t-28 -4.5q-23 -9 -68 -51.5t-77 -86.5q-68 -95 -89 -190.5t6 -171.5q2 -5 12 -17.5 t16 -16.5q31 -7 89 -1q40 7 60.5 22t42.5 46q17 22 36 8.5t23 -42.5q0 -9 -17.5 -36.5t-24.5 -29t-6 -8.5q0 -9 -47 -28.5t-85 -24.5q-48 -2 -107 17q-33 10 -58.5 36t-33.5 63q-22 102 19 252q10 35 52.5 108t73 110.5t82 80t72.5 52t53 1.5q20 -2 44.5 -18t26.5 -29 q1 -6 22 1q6 7 20.5 12t26.5 5z" />
<glyph unicode="&#xf020a;" horiz-adv-x="587" d="M555.5 531.5q-21.5 37.5 -53 49t-60 11.5t-36.5 -4q-21 0 -50 -103q-8 -29 -22 -64.5t-24 -68.5q-22 -44 -34.5 -86t-13.5 -45q-12 -22 -24.5 -83.5t-12.5 -87.5q0 -13 26 -13q47 0 69 8q62 16 120 75q35 36 59 71t46 91q32 77 32 144.5t-21.5 105zM292 677.5 q19 11.5 39 14.5t68.5 3t79.5 -5t59 -19t37 -23t14 -9q12 -7 38.5 -46.5t32.5 -67.5q11 -56 -3 -156q-8 -59 -28 -110t-22 -51q-8 0 -9 -16t-42.5 -72.5t-72.5 -75.5q-45 -50 -118.5 -79t-138.5 -29q-105 0 -117 73q1 25 2.5 31.5t7.5 6.5q9 0 9 10q1 25 10.5 62.5 t18.5 50.5q49 180 94 279q13 29 26.5 70t19.5 51l17 30l-27 23q-14 14 -14 28.5t19 26z" />
<glyph unicode="&#xf020b;" horiz-adv-x="475" d="M513 599l-43 -2q-25 -7 -43 -3q-5 -2 -16 -4t-18 -6.5t-11.5 -4.5t-4.5 -9t-2 -19q2 -18 -2 -24q-8 -13 -19 -40.5t-20 -45t-15.5 -36.5t-16.5 -35q2 -10 3 -10.5t9 5.5q6 -3 23 4q10 0 20 -2q-1 2 2 3t12.5 1.5t15.5 3t25 6.5t27 7.5t12.5 3.5t17.5 -6q10 -13 12 -40.5 t-6 -33.5q-16 -6 -31 -11q-17 3 -35 -4q-21 -13 -69 -9q-5 -4 -16.5 -5.5t-14.5 -3.5l-24 -2q-6 0 -6 -15l-6 -12q-6 -6 -7 -13q1 -20 -6 -38q-37 -121 -29 -133q4 -4 16 -4h14q6 4 10 -5t4.5 -14t-6.5 -12.5t-17.5 -18.5t-16.5 -19q-25 -63 -62 -29l-45 38q36 218 44 218 q3 1 7 50l-15 -2q-12 2 -14 5t-2 18q3 33 14 35q17 6 34 19.5t17 25.5t48 103q11 37 11 47q8 29 8 32q6 11 2 13t-19 -1l-29 -2q-4 -3 -9 -0.5t-7.5 3t-5.5 5.5t-4 7q-6 8 -6 13q-9 9 -7.5 19t9.5 9t21 12t40 15t60 10t37 12q0 5 15 5q23 5 30 3q21 9 117 8q38 -4 38 2 q20 -1 42 -8q61 -3 70 -35q6 -23 -1 -63l-27 9q-103 15 -133 10z" />
<glyph unicode="&#xf020c;" horiz-adv-x="507" d="M467 242q0 18 -23 18h-37.5t-35 1t-26 8.5t-12.5 21t8 24.5t34 20t74.5 9t79.5 -21.5t31 -81.5q0 -15 -9 -42q-41 -122 -134 -196t-174 -73q-34 0 -60 20.5t-39 51.5q-25 58 -25 105q0 102 37.5 227t87.5 206t96.5 113t108.5 35q24 0 35 -3q56 -11 80 -31q5 -8 16 -22 q23 -26 23 -49.5t-12 -37.5t-24.5 -14t-22 8.5t-12.5 22.5q-33 39 -85 39q-28 0 -56 -23q-77 -65 -128.5 -216t-51.5 -253q0 -41 14.5 -65.5t38.5 -24.5t52 17q46 11 98.5 86t52.5 120z" />
<glyph unicode="&#xf020d;" horiz-adv-x="573" d="M561 70l-28 -124q-7 -9 -43 5q-21 11 -29 30t1 43q1 1 15.5 60.5t22 96t13 64t7.5 29.5v10q-1 5 -72.5 2t-125.5 -12q-3 0 -81 -3q-4 -9 -23 -86t-31.5 -144.5t-29.5 -132.5l-33 4q-17 3 -32.5 17t-12.5 29q7 7 7 38q4 11 9 32q6 45 31.5 149.5t32.5 111.5q0 5 -0.5 15.5 t9.5 27.5q9 27 9 41q1 1 53 143v5q3 3 23.5 54.5t28 69t11.5 25.5q9 16 9 20q7 12 31.5 7t32.5 -21l23 -16l-34 -73q-34 -66 -34 -79q-14 -43 -22 -70t-14.5 -46t-10.5 -29t-4 -12q0 3 52 5q169 9 183 12l51 7q47 174 61.5 222t32.5 71.5t31 23.5q25 0 41 -36q24 -19 -3 -62 q-16 -32 -27 -67.5t-14 -43.5q1 -20 -5.5 -27.5t-16 -32.5t-9.5 -29q2 -21 -9 -32q-42 -167 -55 -202q1 -5 -4 -18t-4 -18q-15 -48 -14 -54z" />
<glyph unicode="&#xf020e;" horiz-adv-x="409" d="M417 669q12 -7 68.5 -0.5t76.5 1.5t26 -25q15 -46 -16 -44q-16 -5 -82 -9q-57 -7 -63 -17q-3 -3 -7 -9t-6 -8q3 -8 -7.5 -42t-23.5 -78q-32 -108 -38 -119q-8 -24 -8 -35q-17 -69 -39 -147.5t-30 -112.5q40 2 71 6.5t47.5 5.5t24 -2t10 -4.5t3.5 -8.5t2 -10 q21 -26 6 -38.5t-70 -13.5q-120 -9 -128 -14t-8.5 -9.5t-8.5 -10.5t-20 -5.5t-24 14.5t-75 9q-21 -4 -43 7t-19 24q1 14 25.5 27.5t63.5 15.5l43 3l10 21q16 59 32 116q37 127 40 143q21 52 34 118q40 138 33 145q-9 1 -53 -5t-48 -9q-5 -7 -17 -1t-16 16q-5 32 4 38 q20 17 135 37q41 6 60 23q20 8 35 7z" />
<glyph unicode="&#xf020f;" horiz-adv-x="315" d="M314 686q13 0 23 5q1 0 7.5 -2t11.5 -3q18 -5 25 -2q9 0 27 9q3 3 13.5 -10t16.5 -24q6 -17 -8 -88q-16 -53 -23 -69q-2 -39 -17 -67q-11 -33 -20 -61q-15 -51 -15.5 -54.5t-5.5 -15.5q-10 -3 -10 -24q-11 -18 -13 -20q1 -12 -7 -22q0 -25 -28 -89q-3 -13 -22.5 -63 t-20 -53.5t-10.5 -22.5q-23 -48 -49 -107t-54 -85q-50 -45 -108 -16q-44 26 -65.5 77t-16.5 109q2 37 27 44q16 4 23.5 -7t7 -18t5 -20t8 -30.5t6 -27.5t13.5 -18q7 -13 10 -16t8 -3q9 -7 11.5 -9t8 -2t9.5 5.5t14.5 24t46 99.5t42.5 101q5 5 8 14q0 11 22 71t30.5 88 t36.5 112q61 180 61.5 194t-3.5 15t-18.5 -3.5t-37.5 -4.5t-36 -3q-21 -2 -36 23t-8 49q0 6 19 8.5t30 1.5l19 4q22 9 42 6z" />
<glyph unicode="&#xf0210;" horiz-adv-x="503" d="M609.5 600q4.5 0 6.5 -1t7 -4.5t9 -5.5l11 -40q1 -10 -11.5 -24.5t-34.5 -25.5q-78 -48 -176.5 -120.5t-108.5 -96.5q-4 -8 -1.5 -11.5t11 -11.5t11.5 -11q5 -4 36 -43q0 -6 66 -69q2 -6 23.5 -29t32.5 -41q74 -78 64 -106q-3 -9 -14.5 -9t-30 2.5t-45 14.5t-35.5 31 q-3 4 -21.5 24t-26.5 30q-12 12 -31.5 31t-27.5 28q-43 45 -62 79t-27 37q-11 -8 -16 -37q-4 -8 -43 -137q-10 -28 -15 -33q-5 -23 -9 -39q-9 -46 -25.5 -50.5t-41.5 20.5q-4 7 -11 17q-16 23 -16 26q10 27 16.5 49t22.5 70q52 160 52 174q44 132 68 170l5 20q0 9 9 11 q0 13 5 19q7 15 30.5 82t23.5 71.5t9 15.5q14 12 44.5 5.5t42.5 -25.5q0 -17 -13 -49l-19 -43q-12 -40 -35 -100q-50 -101 -41 -110q38 31 81 72q54 55 113 98q74 50 93 61t35 12q6 2 10.5 2z" />
<glyph unicode="&#xf0211;" horiz-adv-x="472" d="M600 540l5 -41q0 -47 -33.5 -108t-83.5 -101q-94 -76 -175 -58q-18 7 -26 22.5t-7.5 27.5t4.5 16q125 0 200 121q20 32 20 96q8 26 -10 43.5t-55 21.5q-18 4 -45.5 -1.5t-39.5 -13.5q-4 0 -6 -8t-4 -12q0 -21 -12 -51q-21 -54 -37.5 -106t-19 -59t-6.5 -17.5t-9.5 -38 t-21.5 -66.5q-31 -104 -20 -121q30 0 32 -12q1 -10 -10 -24.5t-22 -28.5q-12 -33 -27 -40l-6 -3q-3 -3 -11 -3h-13q-10 0 -30 10t-20 20.5t-5 20.5q0 25 5 40q0 25 10 45q0 23 17 70t19 53q5 15 5 24q15 45 30 105q5 5 5 15q10 36 25 76q26 78 29.5 98t-4.5 33q-7 13 0 20 l10 15q0 4 49.5 23.5t76.5 27.5h61q65 -9 100 -46q31 -29 56 -85z" />
<glyph unicode="&#xf0212;" horiz-adv-x="490" d="M243.5 17q3.5 0 6.5 0.5t8.5 5t11 8.5t18 14.5t25.5 20.5q20 10 17 25q-20 51 -19.5 58.5t1.5 13.5q2 12 17 16l16 8q7 1 17 -11q3 -4 22 -36l21 27q28 32 29 44q7 7 13 17t8 12q12 12 14 33q4 16 3.5 20.5t-8.5 14.5q-18 19 -4.5 42t30 61t18.5 56q14 86 -22 95 q-36 8 -43 7q0 -5 -15 -8q-75 -23 -156 -177q-41 -71 -69 -160.5t-27 -113.5q0 -68 59 -92q5 -1 8.5 -1zM93 78l-1 26q-2 52 18.5 131t53.5 135l30 55q6 17 30.5 57.5t45.5 64.5q32 48 86 87q48 22 71 24q73 8 123.5 -55.5t35.5 -148.5v-20q0 -2 -2.5 -8t-1.5 -9 q-4 -6 -0.5 -45t-1 -58t-24.5 -55q-19 -41 -20 -50q-31 -55 -57 -88t-17 -39q1 -8 20.5 -18t26 -14.5t11.5 -8t9 -8t6.5 -7t4 -7.5t2.5 -7q2 -4 2 -13v-17q7 -22 -15 -22q-22 -11 -87 35q-31 31 -39.5 34t-12 1t-5 -7.5t-13.5 -16.5t-26 -19q-54 -43 -76.5 -52t-37 -8 t-31.5 10q-25 6 -83 69q-15 19 -18.5 31t-4.5 15q-2 8 -2 26z" />
<glyph unicode="&#xf0213;" horiz-adv-x="458" d="M312 645l56 -2l8 16q0 17 11 21q8 15 30.5 12.5t33.5 -18.5q2 -4 2 -17.5t6 -19.5q5 5 123 10q17 8 53 3q29 0 45 -28q0 -11 5 -16t0 -15q-7 -9 -36 -9l-53 -3q-44 -9 -93.5 -10t-49.5 -9q-6 0 -20.5 -58.5t-25.5 -76.5q6 -8 0.5 -23t-8.5 -23q-6 -16 -6 -23 q-8 -24 -13 -54q-5 -48 -13 -57t-8 -21.5t-7 -48t-11 -38.5q10 -2 -3 -27l-6 -34q-10 -28 -28 -71t-23.5 -48.5t-23.5 3.5q-22 5 -34.5 22.5t-4.5 35t35.5 126t28 111.5t2.5 15.5t5.5 32.5t5.5 37q9 19 17 56l37 151v16h-37l-76 1q-47 2 -63 9.5t-17 29.5q-3 13 4 22 q16 21 114 19q19 1 38 1z" />
<glyph unicode="&#xf0214;" horiz-adv-x="482" d="M583 666q7 2 55 -22q18 -22 -2 -134q-19 -91 -87 -258v-6q-8 -22 -18 -22q-2 -7 -16 -25l-8 -24q0 -9 -19 -17q-4 0 -5.5 -8.5t-3.5 -10.5q-43 -66 -92 -112t-91 -62q-30 -14 -55 -8q-82 20 -102.5 100.5t7.5 238.5q10 63 38.5 153.5t53.5 140t45 69.5t31 18 q29 -8 41.5 -39t-10.5 -49q-10 -11 -31.5 -57.5t-28.5 -59.5q-67 -230 -67 -392q3 -4 7 -11.5t7 -10.5q8 -12 18.5 -14.5t15.5 -1t7.5 3t23.5 15.5q5 11 20 19q4 -7 8 4q-1 5 9 15q15 7 53 61t37.5 61.5t11 20t66.5 127.5q64 226 68 248t13 49z" />
<glyph unicode="&#xf0215;" horiz-adv-x="490" d="M198 472l-6 61q1 35 -10 58q-22 16 17 39q18 11 65 -19q3 0 4.5 -4t3.5 -7q6 -12 11 -19q13 -17 2 -192q1 -9 1 -37.5t2.5 -56.5t-0.5 -38.5t0 -108.5q-1 -13 -2 -27t0 -15l5 3q5 13 18 38t20.5 51t6.5 30q5 16 18 26q4 6 9.5 16.5t14.5 22.5q5 9 53.5 98.5t64.5 109.5 q11 27 22 32q1 5 11 23t13 27q15 18 28 33.5t22 27.5q29 34 41 34q13 -3 39 -27t23.5 -28.5t-9.5 -15.5q-21 -30 -46 -55q-6 -7 -18.5 -29.5t-19.5 -31.5q-5 -11 -22.5 -36t-20 -30.5t-25.5 -35.5q2 -6 -8 -17q-20 -45 -35 -63q-1 -2 -10 -15.5t-12 -22.5q-13 -13 -12 -21 q-10 -17 -17 -39q-23 -35 -26 -42t-8.5 -13t-5.5 -9q-7 -6 -23 -43q-7 -9 -21 -37q-15 -29 -46 -87q-7 -17 -27 -16t-35 18q-7 0 -14 9q-21 -6 -36.5 14.5t-11.5 59.5q9 66 7.5 127.5t0 73.5t2 18t0.5 59.5t2 67.5v61z" />
<glyph unicode="&#xf0216;" horiz-adv-x="720" d="M808 411q-6 -15 -10 -26q-6 0 -22 -33q0 -7 -7 -28.5t-15 -35.5l-89 -149q-21 -25 -27 -41q-22 -36 -73 -85q-93 -89 -121.5 -89t-49 25t-20.5 59l10 71q-24 -52 -48 -83q-14 -16 -63 -48q-25 -14 -31 -15t-18 9q-18 5 -37.5 20.5t-23.5 30.5q-13 31 -15 94t5 95.5 t10 54.5t5 29q-4 26 60 190t92 188q12 14 27.5 17.5t26 -1t10.5 -11.5q2 -4 4.5 -11t5.5 -11q4 -15 -1 -31.5t-30 -71.5q-55 -98 -89 -232.5t-29 -226.5q0 -16 2 -23.5t11 -5t22 17.5q32 39 67 118q20 29 59.5 120t46.5 126q9 33 22 33q37 20 52 -20l27 -27l-22 -60 q-49 -141 -64 -272l-9 -21q-5 -18 11 -18q15 0 60 68q12 16 77 105q10 21 15 33l22 32q18 16 60 120.5t46 141.5q9 106 35 109q37 -2 47 -32q7 -22 7 -75q0 -54 -31 -124z" />
<glyph unicode="&#xf0217;" horiz-adv-x="524" d="M537 596q33 26 44.5 26t26.5 -15.5t19 -33.5q0 -24 -29 -41q-54 -42 -122 -119l-47 -43q20 -52 37 -84q22 -40 38 -88q25 -58 25 -65q16 -41 31 -81q32 -73 12 -104q-9 -12 -27 -22h-15q2 3 -4 8.5t-14 9t-10 1.5q-3 0 -10 17q5 5 -5 26q0 9 -15 39l-5 22q0 8 -10 28 l-10 29q-39 95 -50.5 120t-11.5 34t-5 9q-5 10 -10 15l-5 20l-8 -19q-5 -3 -9 -15.5t-9 -17.5q-76 -111 -87 -116q10 0 -10 -20q-19 -26 -23 -41.5t-6 -20.5q-6 -17 -24 -43q-7 -16 -23.5 -24t-27.5 -8q-15 4 -23.5 37.5t-0.5 53.5q75 129 102 154q25 36 45 71q5 5 17.5 20 l17.5 21t15 10.5t13 12.5q10 12 10 23t-37.5 92t-51.5 101q-13 20 -11.5 44t23.5 32q12 4 36 -4t28 -20q8 0 18.5 -26.5t24.5 -60.5q15 -37 37 -92l28 41q41 47 55 57l20 16q0 8 33 34z" />
<glyph unicode="&#xf0218;" horiz-adv-x="504" d="M520 386l-5 -15q0 -5 -11 -16q-9 -5 -9 -10t-3 -11q-11 -20 -19 -36q-32 -32 -50 -81q-13 -25 -32 -47q-42 -107 -43 -113q-2 -14 -14 -49q-9 -15 -18 -28q-17 -23 -17 -29q-4 -3 -8 -9q-9 -12 -12 -12q-24 1 -44 27.5t-7 52.5l15 44q0 3 9.5 27t18.5 40t10.5 18.5 t8.5 15.5t12 18l4 15q0 8 9 27.5t17 30.5q4 8 7.5 15.5t6 12t4.5 9t3 6.5t1.5 4.5t-0.5 4.5q-3 4 -5 6q-11 9 -82 165q-3 6 -6 18.5t-4 14.5q-30 60 -34 89q-12 70 0.5 84.5t29.5 16.5t23 -11q0 -2 13.5 -5.5t14.5 -9.5q0 -46 5 -51q2 -10 11 -31q-2 -24 18 -51q7 -12 7 -30 q1 -7 11 -15q10 -22 18 -28l1 -13q11 -8 16 -23l22 -57q2 0 16.5 26.5t33 55t71 103.5t64.5 87q13 10 38 4.5t28 -23.5q9 -43 -25 -74q-5 -14 -38 -54q-26 -40 -32 -50q-12 -10 -26 -40q-9 -18 -23 -16z" />
<glyph unicode="&#xf0219;" horiz-adv-x="377" d="M352 328q-25 0 -55 -24q-61 -32 -90 -74.5t-25.5 -77.5t59.5 8q43 33 72.5 68.5t33.5 39.5q15 29 15 33q6 27 -10 27zM443 280q-1 -2 -3 -8q-7 -18 -13.5 -27t-40 -74.5t-40 -82t-10.5 -25.5q-25 -65 -34 -100q-21 -47 -21 -55q-13 -63 -17 -102q0 -12 -16.5 -24.5 t-32.5 -7.5q-35 10 -36 41q0 12 13 71q0 21 14 53q24 92 58 168q-53 -46 -81 -46q-19 -1 -47.5 14.5t-36.5 32.5q-11 25 -2 70t34 76q22 38 51 59q40 40 72 51q24 17 130 31q18 4 49.5 -4.5t42.5 -19.5q6 -9 6.5 -20t-4 -11.5t-8.5 -3.5q-15 -7 -17.5 -28t-9.5 -28z" />
<glyph unicode="&#xf021a;" horiz-adv-x="377" d="M389 328l-15 1q-7 -1 -18.5 -1.5t-15.5 -1t-12 -2t-13 -4t-12.5 -6t-16.5 -9.5q-52 -35 -86 -78t-36 -74q0 -15 12.5 -15t20.5 1.5t18 7.5t30 22q46 31 72 66l44 60q10 19 28 33zM438 343q21 0 23 -6q-3 -30 -8 -39q-1 -6 -24.5 -75.5t-27 -79.5t-19 -60t-24.5 -69 q-35 -113 -47 -141q18 8 22.5 7t21 4.5t18.5 4.5t1 -11q-1 -30 -10 -39q-20 -20 -59.5 -44t-52.5 -24t-24 11t-14 22q-9 28 14 92q4 6 22 53t28 76q13 40 42 126l-31 -43q-33 -32 -78 -43.5t-70 -2.5q-13 3 -40.5 27.5t-29.5 37.5q-13 25 29 105q40 63 82 102q9 4 34 29 q43 36 126 35t96 -33v-22z" />
<glyph unicode="&#xf021b;" horiz-adv-x="360" d="M184 126l-2 -15q0 -12 13 -19t20 -6.5t24 8.5t38 25t26.5 20t10 6t6.5 5q6 6 9 3q0 -10 8 -1.5t17 7.5t16.5 -5t7.5 -7q-2 -9 4 -15q0 -12 -9 -21l-40 -53q-5 1 -17.5 -11t-23.5 -12q-3 -2 -8 -3q-6 -3 -6 -7q-17 -17 -90 -17q-37 0 -44 5t-17 14q-9 18 -28 37 q-7 21 1 68q7 48 32 107q0 7 25.5 43.5t40.5 50.5q18 20 56.5 33.5t54.5 13.5q37 0 57 -27q17 -17 22.5 -41.5t-0.5 -49.5t-33.5 -36.5t-46.5 9.5q-6 12 1.5 39t-5.5 27t-20 -6q-54 -46 -84 -117z" />
<glyph unicode="&#xf021c;" horiz-adv-x="419" d="M318 272q-4 11 -10 12t-25 -7q-29 -18 -68.5 -79t-39.5 -86l5 -10q11 0 45.5 25.5t41.5 34t14.5 19.5t21.5 26.5t19.5 30.5t-4.5 34zM301 375q5 0 27 -11q39 -10 54 -30q13 -26 19 -64q10 -34 0 -44q-5 -6 -5.5 -7t1.5 -3q0 -5 -5 -14q-17 -50 -10 -76q16 -47 57 -8 q16 12 27.5 11t11.5 -6q5 -5 10 -5q4 -1 4 -10q0 -20 -12 -41q-15 -15 -15 -20q-5 -5 -15 -14q-18 -11 -45.5 -11t-42.5 11q-40 28 -48 57l-5 10l-29 -19l-25 -26q-8 -10 -14 -10h-10q0 -7 -28 -17t-44 -10q-17 -4 -41 18t-28 41q-7 35 14.5 92.5t68 114t101.5 80.5 q22 11 27 11z" />
<glyph unicode="&#xf021d;" horiz-adv-x="382" d="M328 30l-16 -4q-5 0 -31 -6.5t-33 -10.5q-26 -12 -76 6q-4 0 -26.5 19.5t-27.5 30.5q-31 44 22 176q11 23 36.5 60.5t34.5 42.5q16 5 31 12.5t38.5 12.5t31.5 4q30 -2 61.5 -29.5t24.5 -46.5q-1 -4 -11 -23.5t-17 -27.5t-28 -1t-22 25q-2 7 -27 22q-12 0 -48 -52 q-24 -26 -29.5 -48t-8 -37t-5 -22t1.5 -21.5t10 -16.5q18 -1 56.5 8.5t68.5 21.5q13 9 23.5 9t14 -0.5t9.5 -2t7 -1.5q16 -6 8 -30.5t-32 -37.5q-41 -20 -41 -32z" />
<glyph unicode="&#xf021e;" horiz-adv-x="213" d="M256 573q14 1 34 -12.5t21.5 -31t-11.5 -38t-34 -31.5q-11 -1 -29.5 4t-25.5 10q-24 21 -5 57t50 42zM186 56q-4 -8 -38 -89q-6 -26 -34 -76q-8 -18 -31 -47t-36 -39q-23 -21 -66.5 -18.5t-64.5 28.5q-9 21 10.5 40t37.5 11q27 -12 49 18q16 20 44.5 86t31.5 72 q13 37 13 41q6 8 16 45q8 6 3 11q28 101 34.5 122t9.5 38t7 23q1 12 4.5 30t3.5 19q19 13 50 -4q11 -10 15.5 -17t4.5 -32.5t-11 -70.5q-5 -41 -40 -143q-12 -41 -13 -48z" />
<glyph unicode="&#xf021f;" horiz-adv-x="517" d="M220 214l-2 -55q2 -13 1.5 -21t0 -8t3.5 2q10 4 49 71q11 16 23.5 39t17.5 30q4 30 11 70q14 15 32 20t26 -8q11 -5 20.5 -17t7.5 -22l-15 -54q-7 -24 -9.5 -63.5t2.5 -64.5q2 -22 26 -1q21 22 41.5 54t20.5 40q0 20 14 32l16 40q-2 5 5.5 13.5t8.5 10.5q2 13 17.5 20.5 t31 1t16 -30t-10 -63t-30.5 -67.5q-17 -37 -39.5 -66t-36.5 -41q-48 -61 -72 -62q-8 -2 -28.5 9t-32.5 23q-19 29 -22 88q-27 -41 -50.5 -65.5t-37 -32.5t-27 -12.5t-29 6t-24 26.5t-7.5 47q-5 45 -6 101.5t5 75.5l-1 12q-4 8 -2.5 40t4 36.5t16.5 11t21 8.5q15 -3 16 -12 q9 -9 13 -8q4 -3 9 -24t5 -40l-1 -35q0 -20 3 -55z" />
<glyph unicode="&#xf0220;" horiz-adv-x="341" d="M175 -238h-10h-10q-15 -3 -24 17q-5 11 -3 26q-8 24 26 95q7 11 19 40t43.5 86t49.5 103q-22 -23 -47 -53.5t-37.5 -39t-25 -6.5t-30 16.5t-22.5 30.5q-9 43 5 128t11 99.5t-17 27.5q-18 25 23 47q21 6 33.5 3t25.5 -18q1 -3 6 -10.5t7 -12t5 -12.5q6 -16 6 -28.5 t-5 -79.5q-8 -32 -13 -47t-8 -26q-2 -12 0 -18q29 24 49.5 47t58.5 75q28 51 33 66q19 41 30 43q6 2 22.5 -4t17 -8t19 -3.5t18.5 -4t-18 -44t-16.5 -44.5t-26.5 -68q-25 -80 -54 -130q-11 -20 -112 -256q-4 -34 -29 -37z" />
<glyph unicode="&#xf0221;" horiz-adv-x="459" d="M203 169q1 0 43 42q79 79 122 81q22 0 39 -23t17 -55q0 -6 -2 -34v-57q15 4 30 9q29 10 57 13q-3 -28 -36.5 -71.5t-64.5 -43.5q-34 0 -55 42q-12 34 -12 66v44q0 11 -2 11q-8 0 -83.5 -79.5t-103.5 -79.5q-4 0 -19 7.5t-19 11.5q-11 11 -11 62t57 174q6 10 17 35 q23 52 42 71q8 0 16 -1t25.5 -12t21.5 -29q0 -38 -28 -76q-11 -15 -29 -65q-3 -3 -12.5 -22t-9.5 -21z" />
<glyph unicode="&#xf0222;" horiz-adv-x="362" d="M295 248l-17 -5q-4 0 -11 5l-16 20l-17 -17q-23 -23 -38.5 -62t-17.5 -62t3.5 -28.5t14 -6t32.5 11.5q13 13 18 14.5t6 2.5t3 4.5t4 8.5q4 11 26 39q20 22 25.5 35.5t3.5 22.5t-4.5 10.5t-7 3t-7.5 3.5zM386 331q8 4 24.5 0t16.5 -10t3.5 -14t6.5 -8q10 -1 2 -16t-22 -25 q-25 -16 -26 -19.5t1 -10.5q13 -31 -17.5 -82t-83 -92t-96.5 -46q-23 -8 -53 19q-23 11 -40 37t-15 41q7 76 53.5 159.5t106.5 110.5q20 9 43 6t31 -19q15 -29 -7 -37q-11 0 -11 -9q7 -3 41 2t42 13z" />
<glyph unicode="&#xf0223;" horiz-adv-x="362" d="M284 142q40 56 39 124q-1 27 -9 29q-27 11 -58 -24q-23 -25 -34 -49t-24.5 -76.5t7.5 -64.5q27 -16 79 61zM107 99q0 5 -2 12q-6 5 -3.5 8t2.5 4q8 2 2 11q-3 8 3.5 36.5t15.5 50.5q28 64 60 98q47 53 79 65q44 18 77 -7q57 -16 69 -62q19 -76 -29 -170 q-34 -68 -77 -104.5t-107 -49.5q-17 -2 -41 13q-22 17 -36.5 42t-13.5 36.5t1 16.5z" />
<glyph unicode="&#xf0224;" horiz-adv-x="350" d="M351 407q18 -8 33 -10t33.5 -26.5t16 -47t-17 -44.5t-29.5 -25q4 0 -2 3q-12 6 -13 7l-4 -2q0 5 -5 14t-4 21.5t1 15t0.5 4.5t-1.5 3q-6 1 -11 1q-33 7 -70 -21q-29 -20 -37.5 -28.5t-17.5 -29.5q-10 -15 -10 -23q0 -17 68 -45q22 -9 29.5 -21t9.5 -16q12 -24 12 -29 q8 -24 5 -27q0 -1 2 -3q11 -22 -16 -47.5t-61 -31.5t-64 -6q-53 0 -78 34q-14 30 -2 52q7 14 20 1q13 -8 30 -8t41.5 1.5t33 8t8.5 13.5t-6 13q-41 10 -77 34.5t-42 51.5t5.5 62t35.5 62q44 29 48 30v-1q29 32 99 56q32 4 37 4z" />
<glyph unicode="&#xf0225;" horiz-adv-x="334" d="M313 311q-13 13 -38 -5q-10 -3 -27.5 -18t-29.5 -30t-7 -18q-1 -2 2.5 -3t9 -1.5t10.5 -1t18.5 2.5t27 11.5t31.5 33.5q8 24 3 29zM244.5 166q-28.5 0 -37.5 5q-11 6 -16 -15l-3 -22q-4 -26 13 -44q8 -10 25 -8.5t30 11.5t28 26t22 21q10 18 50 7q22 -16 -6 -66 q-5 -10 -30.5 -34t-40.5 -33q-52 -27 -112 -5q-75 30 -62 148q2 29 -1.5 40.5t-10 17t-13.5 11.5q-16 15 -16.5 21t3.5 16.5t7 12.5q23 10 26.5 9.5t12 -5.5t8.5 -9q5 -10 22 21l9 18q14 21 38 41.5t38.5 28t41.5 13t38 4.5q33 -3 69 -41q18 -13 21 -46.5t-8 -53.5 q-4 -15 -39.5 -45.5t-57.5 -39.5q-20 -5 -48.5 -5z" />
<glyph unicode="&#xf0226;" horiz-adv-x="360" d="M420 278q-10 0 -22.5 -5.5t-18 -9t-14 -10t-27 -18.5t-64 -49.5t-57.5 -68.5q-37 -87 -45 -94q-5 -10 -20.5 -11.5t-21.5 3.5q-7 0 -18.5 10t-14.5 20t12 58q17 74 25 106q5 11 13 37t15 40q12 45 38 89q2 4 9.5 11.5t10.5 7.5q8 7 22 5.5t24 -10.5q26 -27 -1 -79 q-9 -24 -23.5 -51t-19.5 -38q51 68 108 104q2 1 5 4q41 29 72 24q16 1 32 -24t7 -52q-16 1 -26 1z" />
<glyph unicode="&#xf0227;" horiz-adv-x="402" d="M307.5 208q32.5 43 32.5 50.5t-15.5 13.5t-31.5 2q-30 -7 -80 -68.5t-58 -107.5q-4 -18 5 -18t17 2.5t18 10t15 11.5t19 17.5t30 28.5t48.5 58zM402 136q-4 -24 -4 -79t-10 -56q-43 -6 -57 11q-21 20 -20 36t1 32v19q-5 2 -14 -7q-11 -11 -29 -26q-40 -46 -71.5 -60.5 t-69.5 -9.5q-26 3 -42.5 36t-12.5 69q8 67 49 130q16 29 59 63q88 71 156 49q29 -14 35 3q3 5 8.5 19.5t10.5 23.5q26 78 46 123.5t31 71.5q34 66 64 46q13 -10 19.5 -18t9.5 -25t-11 -43q-33 -56 -79 -172q-1 -5 -9.5 -33.5t-14 -56.5t-11.5 -28q-18 -19 -34 -118z" />
<glyph unicode="&#xf0228;" horiz-adv-x="402" d="M253 123q11 0 11 -23.5t12 -30.5q3 -4 -10.5 -12.5t-58.5 -34.5q-29 -8 -44 -7t-32 13q-29 18 -36 63t12 102q31 74 92 137q5 5 27 17q75 41 117 12q18 -4 24.5 1t15.5 28q30 82 57.5 149t31.5 77.5t6 16t4 7.5l28 9q10 3 25 -9.5t19 -25.5q0 -33 -41.5 -131 t-50.5 -124.5t-16.5 -45t-12 -29.5t-8 -26.5t-24.5 -67.5q-25 -71 -29 -104.5t3 -71.5q0 -12 -18 -24q-31 -10 -55 8q-17 17 -17 60q4 30 21 103.5t25 91.5q6 24 2.5 30t-23.5 7q-43 1 -105 -95q-43 -67 -30 -93q6 -13 40 6q6 3 38 17z" />
<glyph unicode="&#xf0229;" horiz-adv-x="569" d="M585 36q-24 0 -53.5 11.5t-29.5 33.5v62q0 40 -7 46q-15 8 -40 -22.5t-59 -86.5t-56 -41q-38 12 -29 48q26 85 36 134q-8 13 -33 -4q-3 -2 -9.5 -6t-11 -7t-10.5 -8q-11 -11 -50.5 -71.5t-50.5 -69.5q-7 -18 -13 -22.5t-17 0.5q-42 18 -42 62.5t29 146.5q17 31 17 58 q3 19 12 51.5t13 35.5q7 8 29 5.5t28 -15.5q26 -27 3 -92q-12 -25 -25 -67q12 21 64 78q18 20 40.5 31t36.5 11q24 -4 40.5 -23.5t20.5 -53.5l-5 -52q23 31 61 65q42 32 69 4q25 -14 37.5 -49t8.5 -73t8 -75q10 -18 3.5 -31.5t-15.5 -13.5z" />
<glyph unicode="&#xf022a;" horiz-adv-x="364" d="M340 300q0 12 -19 13h-6q-28 0 -78 -32q-19 -26 -34 -28l2 -1q-5 -10 -19 -28.5t-14 -29.5t6.5 -15.5t10 -5t15.5 -2.5q26 0 73.5 35t58.5 77q4 14 4 17zM182 99l-14 1q-28 0 -50 20.5t-22 63.5q0 18 17 57t46 72q30 29 83 56.5t84 27.5q12 0 20 -6q30 -7 56.5 -44 t26.5 -84q0 -17 -8 -23q-1 -14 -7 -18.5t-13.5 -3.5t-16.5 -8q-8 -9 -18 -50q-15 -23 -15 -45q-12 -33 -12 -39q-33 -165 -64 -222t-67 -57q-54 0 -101.5 35t-47.5 77q0 16 29 16t29 -10q35 -33 62 -33q34 0 55 93q30 132 39 159q-3 0 -26 -11.5t-34 -16.5q-18 -7 -31 -7z " />
<glyph unicode="&#xf022b;" horiz-adv-x="374" d="M317.5 622q14.5 0 20.5 -8q15 -7 23 -24.5t6 -27.5q0 -11 -5.5 -19t-11.5 -18.5t-11 -17.5q-16 -49 -23 -61q-11 -22 -14.5 -32t-17 -39.5t-23.5 -59t-15 -40.5q14 10 18 15q28 17 68.5 50t51.5 44q9 11 31 2q27 -7 27 -41q5 -21 -51 -57q-26 -17 -45 -34 q-27 -16 -36.5 -24.5t-29.5 -28.5q4 -8 12 -16q49 -78 63 -94.5t23 -23t25 -15.5q10 -7 8 -25q-5 -26 -56 -29q-19 2 -48 23q-15 8 -37.5 41.5t-40 60.5t-22.5 34q-12 -33 -12 -39q-3 -10 -10 -39.5t-14 -41.5q0 -44 -42.5 -31t-38.5 53q3 28 16 64q8 48 23 70 q48 137 51 150q8 19 26.5 61t25.5 60t20.5 58.5t21.5 51.5t23 35q6 13 20.5 13z" />
<glyph unicode="&#xf022c;" horiz-adv-x="374" d="M362 318q-2 3 -21.5 -8.5t-29.5 -16.5q-85 -49 -104 -81q-4 -12 11 -24t29 -5q15 11 51 42t46 44q8 8 15 24t3 25zM354 664q20 0 28.5 -9t11.5 -15q8 -14 -18 -57q-9 -21 -20 -37.5t-19 -32.5q-7 -20 -15 -20q0 -9 -10 -29q-2 -9 -10.5 -26t-10 -21t-11.5 -25 q-21 -43 -25 -60q2 -1 19 10q90 72 141 52q23 -14 33 -64q0 -15 -18.5 -56.5t-31.5 -52.5l-15 -9q0 -12 -15 -20q-14 -14 -14 -19v-5q-6 0 -20 -9q-11 -11 -18.5 -13t-9.5 -3.5t-6 -2.5q-9 -4 -9 -7q0 -7 27.5 -38.5t39.5 -39.5q13 -6 13.5 -28t-4.5 -29q-5 -5 -25.5 -8.5 t-36.5 2.5q-2 2 -12 11l-49 52q-8 16 -32 40q-23 31 -28 31q-22 -69 -31 -99q-11 -20 -28 -20t-32.5 11t-15.5 28q-8 29 53 181q2 9 6 20t8 22.5t11.5 35t67.5 164.5q17 35 53.5 103t47 80t30.5 12z" />
<glyph unicode="&#xf022e;" horiz-adv-x="573" d="M526 -75q-8 -26 -22 -26q-7 0 -17.5 3t-24.5 23t-20 37q41 174 64 240q5 24 5.5 28t-4.5 10q-14 9 -181 35q-8 -1 -26.5 2.5t-34 3.5t-17.5 4t-2.5 8t-3 -2.5t-12 -39t-18.5 -60t-17 -58t-11 -46t-6 -34t-4 -24.5q-34 -113 -44 -114q-4 -8 -39 7q-20 24 -19 46 q2 32 26 130q20 108 30 116q37 138 94 274q55 130 64 149q12 10 12 40q7 14 26 28t27 13q19 -4 37.5 -28.5t11.5 -39.5q-8 -8 -48 -109q-2 -4 -16 -25q-19 -27 -24 -46.5t-24 -56t-15 -44.5q3 -4 209 -28q66 -22 70 -12q6 15 18 43q12 60 25 101q27 46 44 137q9 40 43 74 q11 -5 20 -7q62 -11 16 -143q-42 -106 -58 -158t-25 -72q-2 -7 18.5 -21t9 -33.5t-28.5 -18.5t-22.5 -5.5t-8.5 -28.5q-22 -50 -50 -148t-27 -124z" />
<glyph unicode="&#xf022f;" horiz-adv-x="491" d="M89 84l4 18v10q-2 6 -2 12q2 66 91 263q38 84 121.5 183t135.5 119q21 7 34 7q57 0 98.5 -41.5t41.5 -120.5q-4 -99 -40 -101q-70 10 -70 45q0 4 9 40t9 47q0 31 -27 40q-46 0 -126 -100.5t-122 -201.5q-49 -141 -55 -190q2 -8 2 -19t-3 -11q3 -22 18.5 -43.5t36.5 -21.5 t51.5 7.5t44.5 17.5q9 0 61.5 23.5t78.5 23.5q7 0 27 -4q-4 -24 -9 -39q-16 -23 -31 -34.5t-37 -21t-34 -16.5q-72 -44 -143 -44q-32 0 -69.5 13.5t-61.5 33.5q-8 13 -21 54t-13 52zM573 433z" />
<glyph unicode="&#xf0230;" horiz-adv-x="587" d="M448 581q-6 9 -34.5 15t-46.5 6q-4 -5 -5.5 -19.5t-16.5 -51.5t-27 -46q-1 -2 -10.5 -25.5t-21.5 -50.5q-30 -71 -52 -142q-9 -18 -23 -32q-6 -26 -11 -44q-14 -51 -30 -125l-12 -34l49 -2q15 0 41 12t32 14l24 4q5 0 117 51q48 48 54 56q9 5 21 19.5t15 15.5 q3 0 16.5 23.5t28 47.5t20.5 41.5t8 47.5q1 59 -4 86.5t-23 55.5q-33 44 -68 63q-14 2 -23 6q-17 8 -18 8zM159 589q-29 -8 -30 18q-1 30 28 54q15 13 34 17t63.5 9t63.5 5q72 2 128 -11.5t112 -48.5q20 -13 44.5 -43t36.5 -49q19 -39 22 -47q15 -36 16 -96t-12 -102 q-23 -70 -79 -145.5t-110 -103.5q-41 -19 -51 -22q-6 -8 -79 -39t-82 -35q-19 1 -29 -9q-35 -9 -68 -7l-43 -2l-19 37q-5 4 -13.5 10t-11 8.5t-7.5 9.5t-3 13.5t4.5 26.5t17.5 80.5t25 88.5q2 23 16 47l11 34l32 85q12 24 53.5 117.5t50.5 109.5q2 9 -3 11t-33 4 q-18 -2 -48 -12.5t-37 -12.5z" />
<glyph unicode="&#xf0231;" horiz-adv-x="539" d="M440 551q-4 0 -27 -10q-52 -20 -81.5 -57t-63.5 -108.5t-56.5 -137.5t-26.5 -100q1 -52 11 -73.5t37 -31.5t38.5 -9.5t34.5 6.5t34 8.5t15 3.5q10 2 27 14q22 18 22 24t-20 28q-12 18 -15 34q-13 32 8 43q10 10 24 10t25 -11q20 -16 26 -33q4 -20 14 -20q11 4 46 106 q40 100 53 194q9 50 5.5 90.5t-17.5 54.5q-11 14 -17.5 13t-18.5 -17q-15 -15 -31 -18q-4 -3 -15 -9t-13 -10q-10 0 -12 8t-6 8zM486 653q23 16 43 20q18 6 33.5 3.5t43 -23t42.5 -51.5q27 -62 11 -145l-5 -43q6 -9 -12 -70.5t-27 -84.5t-17.5 -48.5t-12 -34t-11.5 -25.5 q-13 -30 -38 -68q-27 -35 -23 -40q1 -3 4.5 -10t4.5 -11q14 -27 47 -42t51 -2q12 2 29.5 -15.5t16.5 -32.5q-2 -24 -29.5 -32t-75.5 4q-79 34 -107 66q-7 15 -20 23q-9 -8 -20 -10q-71 -52 -157 -43.5t-136 71.5q-11 7 -13.5 18.5t-8.5 18.5q-9 2 -11 62t7 77q2 3 5 13 q38 133 84.5 221t81.5 121q37 42 68 58t68 21.5t49.5 10t17 8t17.5 15.5z" />
<glyph unicode="&#xf0232;" horiz-adv-x="482" d="M219 137q0 -89 15 -91q19 -8 36.5 -6t48 34.5t55.5 68.5q52 50 66 92q3 11 15 26v-1l9 17q18 28 49.5 125t36.5 141q3 20 20.5 36t26.5 13q8 -8 21.5 -11t17.5 -7q4 -10 -12.5 -92.5t-28.5 -104.5l-14 -43q-7 -11 -12 -33q-22 -69 -67 -139q-15 -10 -36 -46 q-69 -68 -86 -88l-57 -53q-40 -25 -71.5 -24.5t-62.5 19.5q-48 46 -57 91q-3 18 -2 79.5t16 116.5q28 127 53 203q0 14 5.5 24t5.5 19q1 8 23 69l16 33q49 108 74 125h1q31 -1 47 -27t4 -41q-12 -32 -17 -40t-8.5 -18t-6.5 -14q-7 -19 -10.5 -25t-5.5 -11t-3.5 -8.5 t-1.5 -5.5q-9 -15 -8 -21q-8 -11 -12 -20t-15 -29q-2 -30 -9 -48.5t-11 -39.5q-13 -25 -25.5 -82t-15.5 -98q-7 -40 -7 -65z" />
<glyph unicode="&#xf0233;" horiz-adv-x="490" d="M580 586q30 30 60 39t39 -15q5 -7 -7.5 -39.5t-26 -46.5t-13.5 -31q-10 -3 -26.5 -24.5t-17 -27.5t-17.5 -41q-41 -82 -148 -258q-84 -134 -110 -154q-11 -9 -21 -8q-23 6 -51 34t-18 37q-6 27 -14.5 106.5t-7 175.5t8 201.5t12.5 109.5q7 21 26.5 22t35.5 -20 q41 -62 27 -122q-8 -42 -15.5 -166t-3.5 -151q5 -90 13 -92q46 42 187 330q30 60 32 62q3 2 4 5q6 11 12 20q0 3 6 10q26 30 34 44z" />
<glyph unicode="&#xf0234;" horiz-adv-x="524" d="M579 -49q-4 -3 -9 -4.5t-43 0.5q-47 16 -68 48q-69 84 -104 188l-35 73q-4 -5 -14 -21.5t-17 -26.5q-20 -30 -46 -43q0 -13 -15 -25q-10 -13 -21 -19q0 -8 -53 -68t-63 -59q-6 -6 -21 7.5t-24 29.5q-16 18 -16.5 23.5t12.5 18.5q16 12 34 43q14 6 75 76q31 31 55 66 q8 0 17.5 12.5t13.5 16.5q15 26 46 51l12 13q-30 87 -58.5 148.5t-43.5 81.5q-4 7 -4 14t2 13.5t7 14t9 12.5q16 20 19 24q26 11 56.5 -32t50.5 -110q6 -27 31 -77l11 -25l66 68q30 27 92 71.5t69 49t16.5 5t17.5 -5.5q9 0 25.5 -23t15.5 -35q-8 -13 -23 -17 q-33 -26 -52 -31q-10 -4 -79.5 -62.5t-104.5 -94.5l-23 -21l20 -45q52 -125 86.5 -188.5t49.5 -46.5q8 9 25 19t23 -1l2 -51q-3 -33 -22 -55z" />
<glyph unicode="&#xf0235;" horiz-adv-x="504" d="M383 375q9 0 26 36q157 222 168 233q10 3 15 -0.5t10.5 -7t8.5 -5.5q47 -29 14 -69q-57 -69 -130.5 -178.5t-74.5 -123.5q-5 -10 -16 -26q-25 -35 -25 -43t-16 -46q-16 -33 -36 -91.5t-20 -74.5q0 -27 -45 -17q-5 0 -18.5 4.5t-17 8t11.5 84.5q76 198 82.5 208.5t5 18.5 t-12.5 27q-16 37 -16.5 39.5t-5.5 14t-9 21.5q-15 31 -18 60q-48 147 -53 154q-6 18 15 43q53 22 80 -27q6 -6 27.5 -77.5t23.5 -76.5q15 -89 26 -89z" />
<glyph unicode="&#xf0236;" horiz-adv-x="557" d="M179 247l7 32q8 23 32 73t40 70q0 2 7.5 13.5t10.5 21.5q16 16 43 62q35 29 29 52q1 21 17.5 30.5t59.5 19.5q53 20 151 23l34 5q6 7 55 -9t47 -36q-1 -8 -44.5 -20.5t-110.5 -20t-89 -15.5q-41 -15 -83 -81q-57 -89 -22 -89l54 5q28 12 57 16.5t48 8.5q69 18 69 -17 q0 -25 -32 -45q-6 -4 -35.5 -16t-47.5 -12q-11 -3 -28 -3q-122 -16 -150 -33q-11 -8 -26 -44t-22.5 -97.5t6.5 -76.5q29 -28 78 -25t89 28q19 15 42 23q13 7 18.5 5.5t16 -8.5t12.5 -9q17 -24 -1 -45.5t-75 -45.5q-92 -33 -142 -29q-34 8 -79 28.5t-48 33.5q0 12 -13 12v8 q0 13 -4 16q-10 20 0.5 80.5t28.5 110.5z" />
<glyph unicode="&#xf0237;" horiz-adv-x="511" d="M448 603q-16 8 -21 8t-8 -1.5t-6 -4.5t-5 -6t-4.5 -9t-3.5 -10q-78 -198 -85 -222q-6 -6 -20.5 -37.5t-14.5 -39.5q0 -25 25 -25q19 0 44 8h14q16 0 32 5q35 5 41.5 10t6.5 22t11 125q14 152 10 160q0 9 -16 17zM355 175l-63 1q-22 0 -30.5 -0.5t-16.5 -6.5t-9 -11 q-5 -18 -28 -66q-35 -85 -62 -121t-53 -36q-7 0 -22.5 6t-15.5 18t21.5 56t32.5 59q-1 0 -1 7q0 22 26 73q2 8 6 16q7 19 7 22q6 12 19 37q0 16 26 68q0 22 16.5 52t16.5 36t13 31q-2 0 -2 1t8 11q0 11 4 15q9 11 29 71q36 78 57 135q14 23 18 26q15 13 45 15q12 3 25 3 q52 0 90 -39t38 -99q0 -140 -18 -268t-24.5 -219t-11 -130t-14.5 -44q1 -1 1 -2q0 -10 -24 -10q-54 0 -54 37q0 9 8 88.5t10 128.5l6 44h-25q-17 -5 -49 -5z" />
<glyph unicode="&#xf0238;" horiz-adv-x="511" d="M293 287q102 6 125 6h22q11 -1 15 8.5t4 26.5q-9 100 -6 183l-6 58q-5 5 -25 -27t-29.5 -48t-14 -22.5t-10.5 -17.5q-22 -42 -31 -57q-63 -100 -44 -110zM541 62q3 -143 -46 -149q-19 0 -30.5 12.5t-11.5 36.5q0 54 -1 68t-2 38q-2 45 3 53q-3 5 2 56l-4 27h-54 q-18 -3 -155 5q-35 -56 -40 -70q-26 -68 -50 -103q-20 -37 -31 -45.5t-21.5 -8.5t-22.5 9q-49 22 -11 76l13 21q0 6 29.5 63.5t38.5 61.5q18 20 -3 38q-8 3 -9.5 17t8.5 26t33 11q4 2 8.5 4t5.5 3q5 3 5 7t16.5 35.5t29.5 47.5q3 8 27 56q1 1 33 55q15 15 29 34l51 75 q20 23 46.5 35t48.5 2t41 -40t22 -70q10 -80 5 -94q0 -77 2 -93q-5 -19 -3.5 -46.5t-0.5 -93.5t-1 -160z" />
<glyph unicode="&#xf0239;" horiz-adv-x="521" d="M512 544q2 24 -9.5 34t-24 8t-26 -3.5t-20.5 -2.5q-18 -3 -42 -17t-20 -23l7 -3q17 0 -14 -52q-16 -28 -64.5 -123t-46.5 -98.5t26 6.5q65 26 97 56q19 13 35 32.5t16 25.5q6 17 21 34q27 27 27 39q7 16 17 33q10 13 21 54zM127 -8q-7 0 -10 4q-7 9 -17 19 q-10 0 -17 14.5t0.5 35.5t27.5 76q48 131 51 133q2 15 7 21t5 7q1 1 6.5 16t11.5 29q17 40 27 50q0 8 28 52q5 10 14.5 34.5t11.5 29.5q12 14 7 22q-1 3 -9 11t-8 35q0 3 33 21q123 64 183 60q40 14 91 -28q25 -21 28 -37q6 -38 -3 -56q-2 -21 -16 -62t-19 -46t-28.5 -44.5 t-36 -53t-41.5 -47.5q32 0 43 -7q50 -32 68 -84q11 -21 2 -55q-17 -64 -85 -130q-15 -14 -17 -14q-8 3 -37 -11q-20 -24 -30 -20q-17 -6 -38 -18q-26 -7 -77 -16q-58 -8 -83 -3.5t-45 24.5q-8 7 -9 21.5t4 16.5q29 18 80 22q72 -3 137 25t90 67q21 36 19.5 60t-23.5 47 q-13 11 -27.5 12.5t-31 2t-50 -18t-44.5 -19.5q-11 -14 -37.5 -18.5t-33.5 3.5q-7 0 -10 -5q-6 -11 -10 -18q-6 -15 -12 -27q-3 -10 -13.5 -35.5t-11.5 -34.5q-25 -63 -45 -63z" />
<glyph unicode="&#xf023a;" horiz-adv-x="557" d="M459 81l30 9q8 11 15.5 11t16.5 -8.5t18 -23.5t9 -30t-117 -61q-42 -18 -58.5 -23t-56 -5t-69 5.5t-52.5 23.5q-71 53 -37 181q11 63 23 63q13 69 19.5 75t14.5 30q0 11 6 25q15 25 15 33q15 22 19 33q67 119 72 141q2 5 5 16q8 24 16 34q-2 3 6.5 8.5t24 10.5t34.5 10 q41 11 75 13q9 6 49 7.5t75 -1.5q23 0 61 -18q1 -1 5.5 -5t7 -6.5t6 -7.5t5 -8.5t1.5 -8.5q0 -8 -13 -15q-7 -7 -66 -7t-94 -6t-38 -6q-16 -6 -43 -6h-9q-4 0 -27.5 -38t-24 -47.5t-19.5 -35.5q-33 -47 -15 -58q90 14 144 14q25 7 44 -4q17 -4 16 -22t-12 -23 q-13 -13 -117.5 -37t-117.5 -21q-9 20 -21 -20l-10 -39q-18 -40 -22 -52.5t-12 -57.5q-16 -58 42 -85q47 -9 115 9q4 2 61 34z" />
<glyph unicode="&#xf023b;" horiz-adv-x="458" d="M405 641l49 5h62q29 0 77 12q100 21 113 -31q9 -50 -151 -59q-67 -6 -71 -9.5t-4 -7.5t-2 -7q-4 -6 -11 -13q-8 -3 -27 -49.5t-19 -57.5q-7 -12 -7 -17q-7 -18 -22 -46q-17 -47 -32 -83t-27 -75.5t-22 -65.5q-2 -3 -5.5 -6.5t-5 -6t-1.5 -7.5t-29 -80t-32 -76 q-56 -19 -60 51q-3 36 23 105q59 176 76 201q5 12 5 20t2 13t12.5 25t10.5 31q15 60 47 119q11 20 11 25q-12 5 -79 0t-84 -9t-23.5 -2t-17 28.5t2.5 37.5q28 16 67.5 18t53.5 3l28 2t23.5 2.5t12.5 1.5t22.5 4t33.5 4z" />
<glyph unicode="&#xf023c;" horiz-adv-x="475" d="M182 305q-2 1 -0.5 11.5t30.5 79.5t32 77q14 30 17 39q9 34 20 52q2 10 11 25.5t11 22.5q6 33 30 41t44 -18q8 -11 16.5 -11t28.5 11q37 0 84 10q14 0 55 5q4 5 28.5 1t33.5 -12q3 -9 5 -36.5t-2 -28.5h-52q-27 0 -80 -10q-75 -9 -89.5 -9.5t-18.5 -0.5q-8 -2 -17 -19 q-29 -69 -39 -100l-12 -43h16q40 2 79.5 8t52.5 7q40 6 60.5 -7t19.5 -40q0 -12 -16.5 -20t-35.5 -10t-64 -6q-112 -10 -127 -9.5t-17 -0.5t-11 -37q-14 -19 -18 -35.5t-7 -23.5q-6 -12 -6 -16q-5 -6 -23 -61.5t-29.5 -93t-23 -54.5t-37.5 -9q-46 42 -38 65q13 11 13 27 q6 24 10 30q20 66 20 70l8 34q6 6 19 39q1 22 13 31q6 10 6 25z" />
<glyph unicode="&#xf023d;" horiz-adv-x="507" d="M376 316q0 9 14 42q0 11 32.5 18.5t78.5 5.5q84 0 84 -51q8 -19 4.5 -34t-31.5 -85q-91 -259 -115 -264q-12 -6 -28.5 6.5t-17.5 20.5q-5 0 -5 14v17q8 14 17 14q-4 5 4 21l17 43q-6 1 -20.5 -6.5t-26.5 -19.5q-10 -6 -30.5 -23t-24.5 -19q-13 -3 -35 -19 q-75 -46 -128 -44q-14 2 -35 19.5t-27 21.5q-2 3 -7 10q-11 12 -11 21q-12 17 -11 65.5t11.5 99.5t32.5 95.5t91 152.5q8 22 32.5 51t38.5 40q7 0 32 26.5t48.5 43.5t39 25t44 22t38.5 19q50 7 119 -5q35 -20 42 -45t3 -29t-11 -12q-15 -19 -27 -15q-44 27 -84.5 21.5 t-99.5 -46.5q-65 -52 -142 -145q-69 -105 -102 -212q-11 -31 -9.5 -67t5.5 -45q15 -23 42 -15q31 10 52.5 26t30.5 22.5t21.5 16.5t35.5 23q50 31 65 50q27 25 36.5 34.5t13.5 18t7 13.5q3 17 13 34q1 5 -3 7t-16 5q-19 0 -58.5 5.5t-39.5 10.5z" />
<glyph unicode="&#xf023e;" horiz-adv-x="409" d="M239 -5l-9 -24q-2 -1 -83 1q-81 9 -83.5 9.5t-13.5 9.5q-14 4 -23 24t-5 31q1 3 13.5 6.5t23.5 1.5q13 3 33.5 5t28.5 4.5t22.5 5t18 3.5t6 2.5t5 6.5t3.5 9q8 22 13.5 35.5t30 83t25.5 73.5q-1 7 2.5 20.5t3.5 16.5q2 2 5 11q12 36 34 90t22 65q26 54 26 57 q-30 -1 -53 0q-32 -2 -63 6q-37 10 -42 26q-2 9 5.5 16.5t8.5 9.5q3 11 81 14q90 -1 91 5q12 0 22 2q16 0 75 18q53 12 84 12q21 3 34 -8.5t12 -34.5q0 -15 -57 -21q-26 -5 -84 -24q-13 0 -24 -37q-6 -4 -6 -6.5t-2 -4.5q-8 -9 -9.5 -14.5t-17.5 -50t-18 -67.5 q-32 -78 -33 -99q-3 -4 -24 -63.5t-25 -63t-7 -21.5q-13 -43 -8 -55q58 0 74 4q56 3 69 0.5t16 -2.5q27 3 43 -32q4 -8 -4 -19t-18 -15q-12 -9 -34 -6q-122 1 -134 0q-6 1 -17.5 -1t-16.5 -2q-14 -2 -17 -13z" />
<glyph unicode="&#xf023f;" horiz-adv-x="315" d="M482 618q0 -4 -9.5 -16.5t-78.5 -167.5q-6 -27 -17 -55q-12 -50 -19 -67.5t-32.5 -80.5t-50.5 -132q-14 -28 -19.5 -49t-12.5 -42q-14 -42 -23 -61q0 -8 -31.5 -55.5t-39.5 -63.5q-80 -92 -171 -37q-42 24 -55 74q-4 30 8.5 53t40.5 24q16 -10 23 -30q2 -30 7.5 -41.5 t25 -10t25.5 7.5q56 37 97 156q7 16 32.5 77t43.5 104t18 45q-2 6 22.5 83.5t38.5 102.5t13.5 36t32.5 97q5 15 0 19t-17.5 1.5t-29 -2.5t-26 -1t-16.5 0q-23 1 -30 1q-38 0 -48.5 27t6.5 46q4 19 89 7q52 -3 102 11q39 8 60.5 -1.5t33.5 -41.5q7 -13 7 -17z" />
<glyph unicode="&#xf0240;" horiz-adv-x="503" d="M542 577l76 49q35 0 51 -23q7 -13 3 -26t-12 -19q-10 -21 -37 -35t-38 -26.5t-39 -29.5t-40 -30t-36.5 -41t-42.5 -42q-13 1 -63 -51l20 -43q38 -53 56 -77t45.5 -51.5t44.5 -32.5t27 -23q6 -6 7 -21t-9.5 -31.5t-26.5 -17.5q-10 -7 -38.5 8t-39.5 27q-58 40 -112 138 q-8 14 -13 26q-8 20 -15 20q-18 -3 -38 79q1 10 6.5 19.5t13.5 8.5q1 8 78.5 86.5t109.5 100.5q8 11 16 19q12 5 22 14q17 8 24 25zM274 588q0 8 19.5 43.5t27.5 37.5q23 9 43 0.5t25.5 -24t0.5 -25t-18 -41.5q-36 -85 -44 -102q-27 -60 -37 -97q-10 -15 -19 -42 q-14 -48 -21 -55q-4 -9 -10 -22q0 -26 -8 -36l-10 -25q0 -7 -6.5 -26t-25.5 -88t-31 -91.5t-25 -22.5q-22 1 -37 18.5t-17 34.5q3 5 6 19.5t6 16.5q0 3 5.5 25.5t7.5 38.5q5 11 12 33t10 28t7.5 20t7.5 19q22 67 25 91q10 18 12 28.5t5.5 17.5t7.5 16q11 23 15 44 q14 36 30 72q19 42 36 94z" />
<glyph unicode="&#xf0241;" horiz-adv-x="426" d="M114 147l5 25q0 17 5 17t5 4t2 10q6 18 8 26q5 9 14 35q24 73 31.5 92t8.5 24q14 24 14 36q6 16 57 114t66 122q30 46 58 46q8 -3 24.5 -21t17 -24.5t-15.5 -35.5t-31 -45l-4 -10q-43 -74 -46 -93q-10 -12 -37 -74t-28 -63q0 -12 -3 -16.5t-7 -19.5q-14 -42 -26 -65 q-16 -65 -32 -81q-5 -12 -3.5 -12h3.5q5 5 5 1.5t-5 -11.5q-5 -13 -5 -47q1 -40 41 -40q56 1 96 12q75 20 99 -10q8 -12 8 -39q-6 -9 -76.5 -30.5t-108.5 -23.5t-43.5 -1.5t-38.5 10.5q-11 7 -32 25.5t-22 19.5l-5 11q-6 0 -8 29t0.5 61.5t8.5 41.5z" />
<glyph unicode="&#xf0242;" horiz-adv-x="426" d="M403.5 647q15.5 0 15.5 -8q-3 -8 2 -9q14 -2 -1.5 -31.5t-32.5 -40.5q0 -10 -15 -21l-12 -28q-8 -11 -15 -27q-20 -25 -20 -33q-22 -42 -22 -47l-7 -5q0 -24 -23 -56q-9 -20 -19.5 -52.5t-13 -37t-3.5 -11.5q-12 -12 -16 -62l-18 -51q-3 -10 4 -66q9 -13 17.5 -15.5 t36.5 -0.5q8 -1 28 1t29 0q29 0 65 6q44 4 66 -18q11 -16 0 -31.5t-31 -21.5q-136 -35 -197 -30q-77 11 -95 62q-24 63 -11 103q7 74 31 142q32 112 97.5 228t99.5 142q8 8 26.5 13.5t34 5.5z" />
<glyph unicode="&#xf0243;" horiz-adv-x="729" d="M334 258l4 83l8 109q-11 -11 -41.5 -95t-37.5 -100q-22 -75 -36 -105.5t-19 -42.5t-12 -29q-54 -146 -91 -146q-16 0 -31.5 16.5t-15.5 32.5t9 37t29.5 57.5t23.5 42.5q103 276 103 277q10 25 17 39q14 30 14 37v2l6 5q27 66 31 70q-1 3 -1 8t3 11t9 12.5t7 8.5 q0 10 18 35.5t23 35.5q10 19 31.5 19t43 -24t21.5 -30.5t-3 -7.5t-2.5 -5.5t0.5 -17t-5 -22.5q-9 -35 -9 -77l1 -29q0 -9 -4 -13t-5 -6v-2l-1 -8l1 -6q0 -6 -5 -22q-10 -34 -10 -89.5t9 -60.5l40 60q124 183 125 186q7 4 13 15q-1 0 -1 2q0 12 51.5 78.5t79.5 66.5 q14 0 39 -26t25 -48q0 -5 -6 -9q0 -1 4 -4q0 -1 -8 -39q-24 -114 -31.5 -167.5t-14.5 -108t-10 -78.5q-8 -66 -8 -108t1.5 -66t3.5 -37t2 -16.5t-14 -15.5t-36 -12q-43 0 -47 88q0 67 10 179q3 7 3 23t-1.5 24t2 25t3.5 24t5 24t5 26v7q10 38 9.5 40t-0.5 13t-2 15l26 100 q-1 0 -9 -17q-31 -60 -62 -102q-26 -42 -64 -89t-46 -66q-39 -95 -104 -103l-16 -2h-6q-44 0 -44 118z" />
<glyph unicode="&#xf0244;" horiz-adv-x="729" d="M359 292l7 47q0 8 12 71t12 72.5t-1 10.5v-2q0 -3 -14.5 -25t-22 -35.5t-13.5 -24t-16 -31t-17 -33.5q-26 -53 -40 -83q-3 -31 -42 -113q-66 -168 -83 -166q-10 0 -36.5 21.5t-26.5 43.5q0 3 22.5 47t24.5 52q5 21 10.5 30t14.5 22q0 17 35 87q8 12 8 23q9 11 22.5 48.5 t19.5 44t14.5 20.5t25.5 44l47 81q4 11 5 11q6 2 35 56q45 63 52 63q11 0 36.5 -15t25.5 -27l2 -47q0 -40 -38 -292q0 -2 2 -7q3 -12 3 -23q8 12 21 29q24 34 39 63q0 6 14 24t14 32q11 16 47 71q87 136 105.5 152t48.5 16t45 -16.5t15 -35.5t-14 -63t-14 -91l1 -10 q-6 -13 -10 -40t-11 -32l3 -28v-12q-19 -109 -19 -196.5t24 -92.5q4 0 4 -6.5t-1.5 -12.5t-6 -13t-6.5 -11q-8 -10 -19 -21q-8 -11 -13.5 -11t-23.5 5q-3 6 -13 11.5t-18.5 13t-16 36t-7.5 61t1 42.5v3q-1 4 -1 12q-1 87 33 249q5 23 14 57q20 74 20 83l-1 1q2 -3 -44 -80.5 t-53.5 -88t-12.5 -20.5t-15 -32t-22 -45q-82 -122 -126 -122q-58 0 -66 71q-3 27 -3 40q2 11 2 26v11z" />
<glyph unicode="&#xf0245;" horiz-adv-x="575" d="M645 650q28 20 42 14q1 -1 6 -5t7 -6t5 -7t3 -10q2 -15 -5 -32q-6 -39 -19 -58q-3 -6 -8.5 -23t-9.5 -25q-9 -43 -9 -44q-10 -15 -22 -35q-19 -50 -35 -100.5t-29 -81.5q-4 -34 -25 -62q-19 -33 -42 -77.5t-27.5 -51t-11 -11.5t-25.5 -7q-34 -4 -62 55q-44 90 -47 216 q0 40 -2 55q0 77 -2 118q-11 -23 -32.5 -99.5t-40.5 -107.5q-8 -61 -21 -80q-5 -15 -11.5 -48t-8.5 -39q0 -9 -26 -94q-8 -20 -31.5 -24t-34.5 17q-12 12 -15.5 41t5 45t12.5 54q11 42 62 196t69 199q15 30 14 43q5 28 18 41q28 34 45 26q42 -11 58 -52q22 -35 17 -70 q1 -20 10.5 -83t7.5 -91q0 -171 12 -179q1 -1 2 -5t3 1l10 35q3 9 18.5 39t21.5 58q4 10 57 167q9 35 33 79q36 64 36 67q-2 10 4 15q14 9 18 14t6 13z" />
<glyph unicode="&#xf0246;" horiz-adv-x="575" d="M345 383l3 51q0 10 -2 10q-6 0 -31 -43.5t-25 -47.5l-75 -176q-19 -39 -51 -181q0 3 -3 -2q-19 -39 -23.5 -43t-7.5 -4q1 1 -4.5 5t-13.5 10l-16 12q-21 14 -21.5 28t26.5 99q53 166 92 247q43 88 45 88h-1q0 7 33 73t48.5 92t23 35.5t12 9.5t8.5 -2h4q73 0 73 -28 l-11 -141q0 -48 16 -208l17 -111q17 35 29 66q40 103 58.5 137.5t33.5 88.5q10 29 27.5 86t27.5 86q6 5 13 21l35 8q29 -24 29 -40.5t-7.5 -42t-10.5 -28.5q4 -1 4 -4v-6q-2 -5 -29 -107q-7 -26 -46.5 -114t-50.5 -106q-17 -43 -57.5 -101.5t-63.5 -58.5t-45.5 23.5 t-28.5 56.5q-1 10 -17 87.5t-16 100.5l-2 27l1 36v11z" />
<glyph unicode="&#xf0247;" horiz-adv-x="505" d="M461 564l-28 -8q-14 -8 -14 -17.5t-7.5 -15.5t-15.5 -1q-23 -2 -30 -13q-2 -3 -7.5 -14t-11.5 -21q-46 -36 -54 -75q-31 -54 -38.5 -75.5t-12.5 -58.5q-7 -13 -13 -36t-8.5 -28.5t0.5 -44.5t10 -50q12 -48 94 -10q30 10 60 32.5t35.5 41t18.5 30.5t41.5 73.5t29.5 83.5 q0 22 5.5 31t5.5 11v8l-1 17v15l1 46q-3 65 -20 75q-4 4 -17 5.5t-23 -1.5zM573 265q1 -9 -26 -62.5t-31 -54.5l-3 -5q1 -3 -15.5 -18t-23.5 -15q-4 -1 0 -5q2 -3 -26.5 -24.5t-65.5 -44.5t-55 -27q-3 -4 -14 -6q-11 -11 -42 -15.5t-47 3.5q-54 19 -82 76q-35 71 -4 187 q8 32 9 38t3 11.5t1 8.5q23 63 32 72q5 2 5 8v1q-1 20 56.5 100t68.5 81q2 0 5 4.5t4 4.5q7 8 56 29.5t78 28.5q66 24 111 -23.5t46 -148.5q-3 -16 -5 -40q-4 -68 -16 -109z" />
<glyph unicode="&#xf0248;" horiz-adv-x="505" d="M532 431l-6 8q0 1 3 4q10 10 -25 95q-1 1 -6 5.5t-7 6.5q-6 6 -14 6t-18 -2q-4 4 -8 4q-8 0 -23 -6t-24 -13t-12.5 -10.5t-16 -17.5t-18.5 -20q-8 -27 -33 -47q-4 -3 -12 -14.5t-12 -15.5l-6 -12q-32 -53 -70 -153t-38 -125t18.5 -42t42.5 -19q43 0 57.5 1t40.5 13.5 t51 41.5q10 18 16 24q32 54 44 54q0 5 8 27.5t11 24.5t11 22q22 60 22 92q17 17 16 20.5t-1 4.5v10q0 25 3 28t4.5 3.5t1.5 1.5zM535 633q0 -6 5 -6h1q9 1 32.5 -28.5t34.5 -55.5q12 -19 12 -60.5t-11 -98.5q-12 -62 -34.5 -114.5t-43 -96.5t-43 -73t-40.5 -30 q-3 -1 -3 -6.5t-73 -63.5q-70 -26 -126 -28q-26 0 -76 26t-62 52l-2 4q-19 32 -19 61t9 63t9 51q30 41 30 48v15q0 7 5.5 15t17.5 16q2 -1 3.5 -1t7.5 12q17 36 33 80q50 92 112 153.5t110 82.5q5 2 17.5 2.5t18.5 1.5q19 -1 46 -9t29 -12z" />
<glyph unicode="&#xf0249;" horiz-adv-x="472" d="M509 565q-34 49 -107 8q-16 -7 -69 -128.5t-48 -138.5q45 4 69.5 16t56.5 43q61 61 80 87.5t23.5 63t-5.5 49.5zM265 514q0 7 13 25q0 18 11 26q6 25 2 28q-9 26 16 27q5 0 13 15t75 29l53 9q40 0 72 -7q35 -17 62 -46.5t30 -54t-21.5 -96t-42.5 -85.5q10 1 -14.5 -22.5 t-32.5 -25.5q-10 -23 -27 -32q-40 -25 -48 -38q0 11 -18 -4q-26 -21 -86 -32q-7 -6 -36 -6l-37 5q-82 -235 -85.5 -250t-11.5 -28q-17 -28 -29 -18q-1 0 -7 3t-10.5 5t-10.5 5.5t-10 6.5q-11 8 -11 16q-3 5 11 55t14 51q7 -2 9.5 5t2.5 18q-2 9 11 31q0 7 8 51q22 73 53 135 q0 3 6.5 20.5t9.5 21.5q2 15 11 38.5t18 31.5q0 11 17 49t20 38z" />
<glyph unicode="&#xf024a;" horiz-adv-x="498" d="M508 451l10 45q0 21 -58 48q-11 6 -36 17q-11 0 -32 7t-25 7q-8 0 -20 -41t-23 -45q-1 -5 -20 -61q-55 -164 -55 -168.5t7 -10t11 -5.5t4 3l24 -11q22 19 23 20l22 8q81 40 130 119q6 4 15.5 19.5t12.5 17.5q13 19 13 22t-3 9zM151 252q8 0 8 14t-2 18q0 18 31 100 q46 124 57.5 143.5t11.5 23.5q-28 28 -28 46.5t37 48.5q44 24 72 25q5 0 15 -2q50 -2 69 -13t35 -12.5t52.5 -20.5t42.5 -27q47 -39 53 -110q0 -40 -5.5 -61.5t-27.5 -52.5q-64 -107 -188 -179l-7 -13q0 -18 53.5 -63.5t69.5 -51.5h2l20 2q17 0 17 -31q-4 -30 -15 -38 q-2 0 -13 -12.5t-20.5 -12.5t-22.5 9q-61 20 -136 114q-9 9 -17.5 18t-12 12.5l-7.5 7.5q-6 5 -13 5l-25 -3q-9 0 -21 11.5t-15.5 11.5t-8.5 -13t-12 -32.5t-14 -30.5v-9q0 -11 -13 -60t-26 -49l-9 6q-2 0 -3 -3.5t-2 -3.5q-51 38 -51 69q7 49 49 163q9 56 20 56z" />
<glyph unicode="&#xf024b;" horiz-adv-x="498" d="M422 555q-31 15 -67 7q-18 -4 -12 -12q1 -6 7 -22q8 -26 0 -40q0 -9 -17 -48.5t-25.5 -59.5t-17.5 -40q-17 -33 -17 -36q7 -23 40 2q41 15 71 36l21 18q11 2 31 24t28.5 40t11 25.5t3 11t-0.5 12.5l-1.5 13.5t-2.5 12t-2.5 9.5t-3 7.5t-3.5 7t-3.5 6t-5 6t-6 5t-7.5 5.5 t-9.5 4.5t-11.5 5.5zM77 58l5 19l27 66q0 1 4 8q13 22 20.5 52t7.5 40v14q8 0 8 3l5 5q0 9 9 15q12 14 12 22q16 48 55 138q12 20 23.5 47.5t14.5 30.5q8 19 8 31h-3q-9 -6 -21.5 9.5t-17.5 19.5q-7 9 1 28q0 4 32 19.5t52 20.5q30 15 108 -3q35 -7 69 -31t48 -51t18 -68 t-4 -72q-13 -37 -60.5 -94t-61.5 -57h-9q0 -4 -31.5 -19.5t-42.5 -16t-16 -9.5t-5.5 -15.5t1.5 -23.5q6 -18 22.5 -46t19.5 -28q12 0 25 -17q10 -7 27.5 -20.5t17.5 -9.5t9 8t20 5q18 0 33 -13l2 -20q0 -19 -21 -44t-39 -26q-51 -6 -107 44.5t-89 131.5q-3 10 -4.5 24 t-4.5 17.5t-10 3t-9 -0.5t-4.5 -2t-2.5 -4q-4 -12 -8 -21q-2 -21 -7 -21q-8 -18 -17 -37q-2 -9 -6.5 -22.5t-4.5 -15.5q0 -19 -7 -19l-3 -18q0 -25 -6 -33q-9 -13 -9 -17q0 -8 -22 -18.5t-34 -7.5q-4 0 -10.5 10.5t-6.5 15.5t-2 5q-8 0 -9 15t4 18.5t5 16.5z" />
<glyph unicode="&#xf024c;" horiz-adv-x="495" d="M202 148q8 -17 6 -35q10 -20 12 -25q5 -11 21 -20q17 -17 28.5 -19t21.5 -2h15q10 0 14 5q11 20 20 32q4 28 -21 106q-21 69 -80 207q3 19 -2 35q-6 5 -7 27.5t-2 29.5q2 37 6.5 45.5t10.5 16.5q30 44 80.5 76.5t113.5 42.5q22 4 73.5 0.5t66.5 -10.5q56 -25 62 -83 q0 -13 2 -19q4 -9 -4 -23q-11 -13 -58.5 -38.5t-72.5 -29.5q-12 -5 -12 0v12q-32 0 8.5 47t30.5 59q-9 6 -36 7.5t-50 -2.5q-105 -31 -119 -94q-4 -8 -4 -15.5t0.5 -10.5t2.5 -10t2.5 -10.5t4 -13t4.5 -18.5q4 -41 7 -51q4 -17 4 -37q7 -21 37 -44q2 -17 7.5 -38.5 t6.5 -28.5q18 -37 26.5 -78t6.5 -65t-9 -24q-1 0 -1 -3t1 -3q0 -12 -26.5 -45.5t-39.5 -36.5q-72 -10 -138 16.5t-84 83.5q-10 24 -5 29q10 0 2.5 7.5t-3 36t22 36.5t41.5 -12q11 -10 6 -13z" />
<glyph unicode="&#xf024d;" horiz-adv-x="495" d="M530 514q-25 0 -29 8q-2 0 -2 3q0 6 7 6q6 4 18.5 20t12.5 27q0 16 -28 16q-51 0 -90 -27t-55 -57.5t-15.5 -43.5t1.5 -22q1 -21 8 -36q80 -112 80 -113v-4q2 0 16 -27t14 -32q5 -8 7.5 -14t5.5 -13t5.5 -14.5t4.5 -16.5l4 -18q4 -18 4 -40q-2 -21 -13.5 -50t-27.5 -44 q-26 -24 -66 -45q-90 -49 -207 -49q-45 0 -83 30.5t-38 79.5q0 27 17 50t38 23t36 -12q-12 -40 -12 -53.5t15.5 -24t47.5 -10.5q105 0 152.5 35t47.5 84q-3 35 -9.5 46.5t-14 27t-14.5 29.5q0 5 -44 56q-26 54 -42 65q-3 4 -8 17t-7 14q-1 1 -8.5 17t-7.5 37q0 57 48 117 q8 16 39.5 49t36 33t37 17t54.5 17q29 10 45 10l22 -1q61 -17 79.5 -43t18.5 -67q0 -24 -30 -42.5t-46.5 -18.5t-24.5 4z" />
<glyph unicode="&#xf024e;" horiz-adv-x="720" d="M786 424q-6 0 -6 -21q-3 -7 -10 -21.5t-9 -21.5q-6 -5 -6 -36q-10 -4 -24 -41q-19 -38 -23 -43q-28 -61 -75 -146t-62 -91q-5 1 -20.5 -2.5t-15.5 -8.5q-1 -4 -18 -16q-21 -4 -40 5l-17 7q-7 0 -21.5 26.5t-14.5 33.5l9 25q-9 18 -9 35q4 14 4 27t1.5 17.5t2.5 6.5 q5 11 1 26q0 4 2 12t0 9q-7 0 -15 -5q0 -10 -5 -16q0 -4 -4 -8q-10 -12 -21 -41q-43 -57 -78.5 -93t-49.5 -34.5t-37.5 16t-27.5 28.5q0 6 -3 26q-5 35 2 61q-1 33 46 263.5t55 241.5q9 7 34.5 2t34.5 -18q27 -29 -18 -174q-14 -56 -27 -107t-21.5 -85t-11.5 -52 q-11 -65 -5 -74q24 7 52 56q20 35 54.5 104.5t55.5 109.5q19 31 38 72t21 45q13 12 34.5 10.5t30.5 -11.5t10.5 -16.5t0.5 -12t-4.5 -22t-5.5 -33.5q-37 -130 -41 -178t-7 -79.5t-3 -33t-2 -8.5q-4 -17 0 -40q-3 -11 4 -10q5 0 9 8q9 2 15 14t13 24t13 23q13 16 32 54.5 t25 43.5q3 12 19 49.5t22 66.5q37 71 44 112q1 2 13.5 44t20.5 50q0 24 21 38q12 5 26 3t15 -13l28 -44q-17 -57 -30 -80q-8 -30 -14.5 -43.5t-6.5 -15.5z" />
<glyph unicode="&#xf024f;" horiz-adv-x="522" d="M365 550l-38 -2q-80 -17 -99.5 -17t-35.5 19q-4 6 -4 51q2 1 8 6.5t9 5.5q28 0 64 12q17 3 60 6t65 7q48 0 48 3h96q66 0 118 -19q17 -12 22 -22.5t5 -29.5q-3 -18 -14.5 -35t-19.5 -17q-3 0 -48.5 -35.5t-58.5 -48.5q-19 -7 -38 -26q-142 -121 -198 -186 q-42 -42 -46 -44q-6 -12 -10 -19q-11 -19 -25 -32q-33 -30 -33 -37q0 -1 6.5 -1t33.5 9l46 9q23 0 79 7.5t91 16.5q62 9 71 -30q5 -10 5 -29v-7q-4 -4 -121 -24t-132 -20l-15 -4q-10 -7 -17 -7t-44 -12q-34 -9 -42 -9t-13.5 -2t-15 -6t-26.5 -9t-23 -5q-18 0 -35 46 q-9 22 -2 30l16 21q9 0 83 89q18 23 53 58q87 101 155 169t151 132q32 24 54 49q-4 6 -83.5 0t-101.5 -11z" />
<glyph unicode="&#xf0250;" horiz-adv-x="522" d="M372 644q33 0 217 -7q53 -10 67.5 -24.5t14.5 -20.5v-30q4 -2 -4 -7t-14.5 -8t-23.5 -14t-70 -54.5t-85 -77.5q-17 -24 -31 -29.5t-16 -5.5q0 -2 -3 -8q-13 -19 -17 -36q-3 -3 -15 -12q-29 -22 -36 -42q-7 -12 -18 -21.5t-55.5 -66.5t-50.5 -70q-9 -14 9 -12q11 2 36 12 q65 29 202 22q71 0 94 -12.5t23 -34.5t-10.5 -34.5t-20.5 -5.5q-21 6 -89 5.5t-138 -7.5q-31 -8 -83.5 -28.5t-81.5 -36.5q-30 -13 -46 2q-45 43 -32 56q12 24 19 39t28 50q52 84 61 107q30 19 32 22.5t16 21.5q33 44 94 105q20 36 63 83q58 64 94 82q8 5 13 7.5t5 5.5 t-86 3t-105 -2.5t-56 -17.5q-60 -15 -65 -10h-6q0 -4 -5 0t-6 10q-36 38 46 74q20 9 51 13q9 7 84 15z" />
</font>
</defs>
</svg>
